<?xml version="1.0" encoding="utf-8"?>
<!-- Generator: Adobe Illustrator 27.3.1, SVG Export Plug-In . SVG Version: 6.00 Build 0)  -->
<svg version="1.1" id="Layer_1" xmlns="http://www.w3.org/2000/svg" xmlns:xlink="http://www.w3.org/1999/xlink" x="0px" y="0px"
	 viewBox="0 0 180 110" style="enable-background:new 0 0 180 110;" xml:space="preserve">
<style type="text/css">
	.st0{fill:#E30523;}
</style>
<g>
	<polygon class="st0" points="40.1,26.6 16.9,79.9 27.9,79.9 31.8,70.8 51.4,70.8 47.3,61.4 35.7,61.4 44.4,40.5 60.8,79.9 
		71.8,79.9 48.7,26.6 	"/>
	<polygon class="st0" points="150.8,34.2 150.8,61.3 128.9,34.2 120,34.2 120,79.9 130.2,79.9 130.2,51.7 152.9,79.9 160.9,79.9 
		160.9,34.2 	"/>
	<path class="st0" d="M92.1,33.1c-13.2,0-24,10.8-24,24s10.8,24,24,24s24-10.8,24-24S105.3,33.1,92.1,33.1z M92.1,70.9
		c-7.6,0-13.9-6.2-13.9-13.9c0-7.6,6.2-13.9,13.9-13.9s13.9,6.2,13.9,13.9C105.9,64.7,99.7,70.9,92.1,70.9z"/>
</g>
</svg>
