<?xml version="1.0" encoding="utf-8"?>
<!-- Generator: Adobe Illustrator 28.2.0, SVG Export Plug-In . SVG Version: 6.00 Build 0)  -->
<svg version="1.1" xmlns="http://www.w3.org/2000/svg" xmlns:xlink="http://www.w3.org/1999/xlink" x="0px" y="0px"
	 viewBox="0 0 489.3 144.5" style="enable-background:new 0 0 489.3 144.5;" xml:space="preserve">
<style type="text/css">
	.st0{opacity:0.75;}
	.st1{opacity:0.85;}
</style>
<g id="Calque_1">
</g>
<g id="Mode_Isolation">
	<g>
		<g>
			<g class="st0">
				<path d="M52.7,49.2c0,0-2.9-0.1-11.9-0.1h0c-9.1,0-11.9,0.1-11.9,0.1c-8.5,0-15.4,6.9-15.4,15.4c0,8.5,6.9,15.4,15.4,15.4
					c0,0,2.9,0.1,11.9,0.1h0c9.1,0,11.9-0.1,11.9-0.1C61.1,80,68,73.1,68,64.6C68,56.1,61.1,49.2,52.7,49.2 M314.3,49.2
					c0,0-2.9-0.1-11.9-0.1h0c-9.1,0-11.9,0.1-11.9,0.1c-6.2,0-11.6,3.7-14,9h51.9C325.9,52.9,320.6,49.2,314.3,49.2 M138,49.2
					c0,0-2.9-0.1-11.9-0.1h0c-9.1,0-12,0.1-12,0.1c-8.5,0-15.4,6.9-15.4,15.4c0,8.5,6.9,15.4,15.4,15.4c0,0,2.9,0.1,12,0.1h0
					c9.1,0,11.9-0.1,11.9-0.1c8.5,0,15.4-6.9,15.4-15.4C153.4,56.1,146.5,49.2,138,49.2 M312.7,15.5l20.4-6.6l3.2,10.1l-30.5,9.8
					C304.1,23.3,307.2,17.3,312.7,15.5 M52.7,93.3H28.8C13,93.3,0.1,80.4,0.1,64.6V13.3C0.1,5.9,6.1,0,13.4,0v40.5
					c4.4-2.8,9.7-4.5,15.4-4.5h23.9c15.8,0,28.6,12.9,28.6,28.6C81.3,80.4,68.5,93.3,52.7,93.3 M138.1,93.3h-23.9
					c-15.8,0-28.6-12.9-28.6-28.7c0-15.8,12.8-28.6,28.6-28.6h23.9c15.8,0,28.6,12.9,28.6,28.6C166.7,80.4,153.8,93.3,138.1,93.3
					 M215.8,93.3H200c-15.8,0-28.6-12.9-28.6-28.7V13.3c0-7.3,5.9-13.3,13.2-13.3v64c0,9.2,6.9,16,15.7,16c0,0,2.6,0.1,11.7,0.1h3.8
					V93.3z M261.2,93.3h-15.8c-15.8,0-28.6-12.9-28.6-28.7V13.3c0-7.3,5.9-13.3,13.2-13.3v64c0,9.2,6.9,16,15.7,16
					c0,0,2.6,0.1,11.7,0.1h3.8V93.3z M338.3,93.3h-47.9c-15.8,0-28.6-12.9-28.6-28.7c0-15.8,12.8-28.6,28.6-28.6h23.9
					c15.7,0,28.5,12.8,28.6,28.5v6.7h-66.4c2.5,5.2,7.8,8.8,13.9,8.8c0,0,2.9,0.1,11.9,0.1h36V93.3z"/>
				<path d="M158.4,119.2l28.3,0v-2l-29,0c-7.1,0-12.9,6.1-12.9,13.6c0,7.5,5.8,13.6,13,13.6l28.8,0v-1.9c0,0-25.9,0-28.1-0.1
					c-6.1,0-11-4.7-11.5-10.6h39.7v-2.2H147C147.6,123.9,152.3,119.2,158.4,119.2"/>
				<path d="M277.9,117.3v12.8h-31.7c0,0-2.5,0.1-4.2-1.6c-1.2-1.2-1.9-3.1-1.9-5.5v-5.7H238v5.7c0,3.1,0.9,5.4,2.6,7.1
					c2.4,2.3,5.5,2.2,5.8,2.2h31.6v2.9c0,2.4-0.6,4.3-1.9,5.5c-1.7,1.7-4.2,1.6-4.2,1.6h-27.5v2.2h27.5c0.3,0,3.4,0,5.8-2.2
					c1.7-1.6,2.6-4,2.6-7.1v-17.9H277.9z"/>
				<path d="M38.2,129.7l-29.4,0.1c-4.6,0-6.8-1.8-6.8-5.2c0-3.4,2.2-5.3,6.8-5.3c2.2-0.1,36.3,0,36.3,0l0-2l-37,0
					c-5.1,0-8.2,3.2-8.2,7.3c0,4.2,3.1,7.2,8.2,7.2l29.4-0.1c4.6,0,6.8,2.1,6.8,5.5c0,3.4-2.2,5.3-6.8,5.3c-2.2,0.1-36.3,0-36.3,0
					l0,2l37,0c5.1,0,8.2-3.2,8.2-7.3C46.5,133,43.4,129.7,38.2,129.7"/>
			</g>
			<polygon class="st1" points="232.6,117.3 191.8,117.3 191.8,119.3 211.1,119.3 211.1,144.5 213.1,144.5 213.1,119.3 232.6,119.3 
							"/>
			<g class="st1">
				<path d="M93,125.5c0-0.4-0.5-8.2-11.4-8.2l-18.7,0c-11.2,0-11.6,7.7-11.6,8.1v19h2.2V132h37.4v12.5H93L93,125.5z M53.5,129.8
					V126c0-0.4,0.4-6.4,9.4-6.4l18.7,0c8.7,0,9.3,5.9,9.3,6.5v3.8H53.5z"/>
				<path d="M102.3,121.2c1.7-1.7,4.2-1.6,4.2-1.6l34,0v-2.2h-34c-0.3,0-3.4,0-5.8,2.2c-1.7,1.7-2.6,4.8-2.6,7.9v17h2.2v-12.9h40.1
					v-2.1h-40.1v-2C100.4,125,101,122.4,102.3,121.2"/>
			</g>
			<g class="st0">
				<path d="M422.9,84.1L422.9,84.1l-42,0v7.4c0,1.3,1.1,2.4,2.4,2.4l39.6,0v0l39.5,0c1.3,0,2.4-1.1,2.4-2.4l0-7.4L422.9,84.1z"/>
				<path d="M487.8,31c-15.8,4.7-50.6,11.7-64.9-11.9v0l0,0c0-0.1-0.1-0.1-0.1-0.2c-14.2,23.8-49.1,16.8-65,12.1
					c-1-0.3-1.9,0.7-1.4,1.7c5.2,10.2,19,37.5,23.6,46.7l43,0v0l42.7,0c4.6-9.2,18.4-36.5,23.6-46.7C489.7,31.7,488.8,30.7,487.8,31
					z"/>
			</g>
		</g>
		<path d="M464.9,84.1l-41.9,0v9.9l39.5,0c1.3,0,2.4-1.1,2.4-2.4L464.9,84.1z"/>
		<path d="M487.8,31c-15.8,4.7-50.6,11.7-64.9-11.9v60.3l42.7,0c4.6-9.2,18.4-36.5,23.6-46.7C489.7,31.7,488.8,30.7,487.8,31"/>
	</g>
</g>
</svg>
