<?xml version="1.0" encoding="utf-8"?>
<!-- Generator: Adobe Illustrator 27.5.0, SVG Export Plug-In . SVG Version: 6.00 Build 0)  -->
<svg version="1.1" id="Layer_1" xmlns="http://www.w3.org/2000/svg" xmlns:xlink="http://www.w3.org/1999/xlink" x="0px" y="0px"
	 viewBox="0 0 309.7 74.7" style="enable-background:new 0 0 309.7 74.7;" xml:space="preserve">
<style type="text/css">
	.st0{fill:url(#SVGID_1_);}
	.st1{fill:url(#SVGID_00000096040337097485285200000002650192498531227777_);}
</style>
<path d="M94.8,1.1c0.5,0,1.2,0.1,2.1,0.2v9.1c-0.6-0.1-1.5-0.1-2.9-0.2s-4.4,0.3-4.9,1c-0.5,0.7-0.8,1.5-0.8,2.3c0,0.8,0,2,0,3.6
	v7.9v34.6H78.3V25.1l-0.1-7.9v-2.8c0-4.6,0.7-7.8,2.1-9.5C81.8,2.3,85.3,1,91,1C91.6,1,94.3,1.1,94.8,1.1z"/>
<path d="M114.6,11.6h-11.4V1.3h11.4V11.6z M103.2,16.8h11.4v42.9h-11.4V16.8z"/>
<path d="M122.5,25.1v-8h5.4v-12H138v12h6.3v8H138v22.7c0,1.8,0.2,2.9,0.6,3.3c0.4,0.4,1.6,0.7,3.7,0.7c0.3,0,0.6,0,1,0
	c0.3,0,2.8,0,3.1-0.1v8.4l-6.9,0.2c-4.8,0.2-8.1-0.7-9.8-2.8c-1.1-1.3-1.7-3.3-1.7-5.9V25.1H122.5z"/>
<path d="M70.6,25.9v-9.1h119.3v9.3l-24.3,24.4h22.9v9.2h-38v-8.7l24.5-25H70.6z"/>
<path d="M262.4,54.6c-3.6,4.4-9.1,6.6-16.5,6.6s-12.9-2.2-16.5-6.6c-3.6-4.4-5.4-9.6-5.4-15.8c0-6.1,1.8-11.3,5.4-15.7
	c3.6-4.4,9.1-6.7,16.5-6.7s12.9,2.2,16.5,6.7c3.6,4.4,5.4,9.7,5.4,15.7C267.9,44.9,266.1,50.2,262.4,54.6z M253.5,48.5
	c1.8-2.3,2.6-5.5,2.6-9.7c0-4.2-0.9-7.4-2.6-9.7c-1.8-2.3-4.3-3.4-7.6-3.4c-3.3,0-5.8,1.1-7.6,3.4c-1.8,2.3-2.7,5.5-2.7,9.7
	c0,4.2,0.9,7.5,2.7,9.7c1.8,2.3,4.3,3.4,7.6,3.4C249.2,51.9,251.7,50.8,253.5,48.5z"/>
<linearGradient id="SVGID_1_" gradientUnits="userSpaceOnUse" x1="70.3305" y1="45.7483" x2="309.6675" y2="45.7483">
	<stop  offset="0" style="stop-color:#D7DF28"/>
	<stop  offset="0.2039" style="stop-color:#A8AE58"/>
	<stop  offset="0.6115" style="stop-color:#3B3C39"/>
	<stop  offset="0.6232" style="stop-color:#373835"/>
	<stop  offset="0.7071" style="stop-color:#1F1F1E"/>
	<stop  offset="0.7951" style="stop-color:#0E0E0D"/>
	<stop  offset="0.8892" style="stop-color:#030303"/>
	<stop  offset="1" style="stop-color:#000000"/>
</linearGradient>
<path class="st0" d="M70.3,64.5l203.2,0c1,0.1,6.6,0.1,6.9-0.8c0.6-1.4,0.6-1.9,0.5-2.2l-14.3-44.8H278l9.5,31.7l10.4-31.7h11.8
	L293,59c-2.6,8.1-4.6,10.9-6.1,12.8c-1.5,2-5.5,2.9-10,2.9c-0.9,0-1.6,0-2.2,0c-0.5,0-203.3-0.1-204.3-0.1V64.5z"/>
<path d="M192.3,59.7V16.5h11.6v8.2c0,0,5.5-7.4,9.3-8.4c3.7-1,9.6-1.2,14.4,0.8l-5.5,9.8c0,0-9.4-1.8-13.4,1.8c0,0-4.1,3.4-4.1,6.8
	s0,24.2,0,24.2H192.3z"/>
<g>
	<g>
		<g>
			
				<linearGradient id="SVGID_00000006670198518885196790000002918420756330577561_" gradientUnits="userSpaceOnUse" x1="-0.6248" y1="36.3452" x2="69.4862" y2="36.3452" gradientTransform="matrix(0.9922 -4.307069e-04 -4.307069e-04 1 0.6379 3.502839e-02)">
				<stop  offset="0" style="stop-color:#D7DF28"/>
				<stop  offset="0.2102" style="stop-color:#A4AA1F"/>
				<stop  offset="0.7144" style="stop-color:#2F3109"/>
				<stop  offset="0.937" style="stop-color:#000000"/>
			</linearGradient>
			<path style="fill:url(#SVGID_00000006670198518885196790000002918420756330577561_);" d="M7.9,61.1c-6-6.5-8.6-14-7.7-22.4
				c0.9-8.4,5.1-15.3,12.6-20.7c7.4-5.3,23.6,1.6,25.3-6.6c5.7-26.7,16.6-0.1,23.3,11.3c4.7,7.9,9.1,14.5,8,22.9
				c-1.1,8.3-5.2,15.1-12.5,20.3c-4.9,3.5-10.4,5.6-16.4,6.4c-6.1,0.8-12,0.2-17.9-1.8C16.8,68.6,11.9,65.4,7.9,61.1 M13,49.6
				c3.9,4.3,8.9,6.6,14.9,7.2c6,0.5,11.5-1,16.6-4.6c5.6-4,8.4-9,8.3-15c-0.1-4.7-1.8-8.8-5.2-12.5c-3.8-4.1-8.8-6.5-14.8-7
				c-6-0.5-11.5,0.9-16.4,4.4c-4.9,3.5-7.6,7.9-8.2,13.2C7.5,40.7,9.1,45.4,13,49.6 M42.8,36.3c2-1.5,2.3-4.1,0.6-6
				c-1.7-1.8-4.7-2.1-6.8-0.7c-2,1.5-2.3,4.1-0.6,6C37.7,37.5,40.8,37.8,42.8,36.3"/>
		</g>
	</g>
</g>
</svg>
