<?xml version="1.0" encoding="utf-8"?>
<!-- Generator: Adobe Illustrator 24.0.1, SVG Export Plug-In . SVG Version: 6.00 Build 0)  -->
<svg version="1.1" id="Capa_1" xmlns="http://www.w3.org/2000/svg" xmlns:xlink="http://www.w3.org/1999/xlink" x="0px" y="0px"
	 viewBox="0 0 40.9 24.1" style="enable-background:new 0 0 40.9 24.1;" xml:space="preserve">
<style type="text/css">
	.st0{fill:#FFFFFF;}
</style>
<g>
	<g>
		<path class="st0" d="M22.3,1.8c-2.3-2.3-6.2-2.3-8.5,0l-3.4,3.4c-0.1,0.1-0.2,0.4-0.1,0.6c0.1,0.2,0.3,0.3,0.5,0.3l0.2,0
			c0.3,0,0.5,0,0.8,0c0.4,0,0.9,0.1,1.4,0.3c0.2,0.1,0.4,0,0.5-0.1l2.3-2.3c1.1-1.1,3.1-1.1,4.3,0c1.2,1.2,1.2,3.1,0,4.3l-3.4,3.4
			c-0.3-1-0.8-2-1.5-2.7c-1-1-2.3-1.6-3.7-1.7C10.3,7,9.1,7.2,8,7.8C7.5,8.1,7.1,8.4,6.8,8.8l-5,5c-2.3,2.3-2.3,6.2,0,8.5
			c1.2,1.2,2.7,1.8,4.3,1.8s3.1-0.6,4.3-1.8l3.4-3.4c0.1-0.1,0.2-0.4,0.1-0.6c-0.1-0.2-0.3-0.3-0.5-0.3l-0.2,0c-0.3,0-0.5,0-0.8,0
			c-0.4,0-0.9-0.1-1.4-0.3c-0.2-0.1-0.4,0-0.5,0.1l-2.3,2.3c-1.1,1.1-3.1,1.1-4.3,0c-1.2-1.2-1.2-3.1,0-4.3l3.4-3.4
			c0.3,1,0.8,2,1.5,2.7c1,1,2.3,1.6,3.7,1.7c0.2,0,0.4,0,0.6,0c1.1,0,2.1-0.3,3-0.8c0.5-0.3,0.9-0.6,1.3-0.9l5-5
			C24.7,7.9,24.7,4.1,22.3,1.8z M13.9,13.9c-1.1,0.3-2.2,0-3-0.7c-0.8-0.8-1.1-1.9-0.7-3c1.1-0.3,2.2,0,3,0.7
			C13.9,11.7,14.2,12.9,13.9,13.9z"/>
	</g>
</g>
</svg>
