<?xml version="1.0" encoding="UTF-8"?>
<svg id="Layer_1" data-name="Layer 1" xmlns="http://www.w3.org/2000/svg" version="1.1" viewBox="0 0 634 781.2">
  <defs>
    <style>
      .cls-1 {
        fill: #000c27;
      }

      .cls-1, .cls-2, .cls-3, .cls-4 {
        stroke-width: 0px;
      }

      .cls-2 {
        fill: #242b30;
      }

      .cls-3 {
        fill: #001b3a;
      }

      .cls-4 {
        fill: #fff;
      }
    </style>
  </defs>
  <path class="cls-3" d="M611.4,254.2s14.8,145.5-55.4,271.3c-2.2,4-4.6,8-6.9,11.9l23,21.1c91-162.2,39.4-304.2,39.4-304.2Z"/>
  <path class="cls-3" d="M477.5,622.7c-72.6,66.5-153.3,98.6-160.6,101.1-7.3-2.5-87.9-34.6-160.5-101l-23.4,25.4c74.3,69.8,172.2,126,183.3,132.3v.6s.2-.1.6-.3c.4.2.6.3.6.3v-.6c11.1-6.3,109.1-62.6,183.4-132.5l-23.4-25.4Z"/>
  <path class="cls-3" d="M284.8,65.8l31.7,46.5v1.3s.2-.6.2-.6v-.2c.1,0,.3.2.3.2l.2.6v-1.3s31.7-46.5,31.7-46.5c0,0,47.4,25.9,78.4,35.4l21.3-19.3c-42.3-4-115.1-67-130.4-80.6l-1.4-1.3-1.4,1.3c-15.3,13.6-88.1,76.6-130.4,80.6l21.3,19.3c31-9.5,78.4-35.4,78.4-35.4Z"/>
  <path class="cls-1" d="M618,318.9c-.4,7.6-1,15.8-1.9,24.4-4.7,48.1-18,119.3-54.8,185.2-2.5,4.4-5.1,8.8-7.7,13.1l13.7,12.6c15.2-27.3,27.2-55.6,35.9-84.5,10.6-35.5,16.2-72.1,16.6-108.8.2-15.3-.6-29.4-1.8-41.9Z"/>
  <path class="cls-1" d="M481.7,627.3c-76.6,70.2-161.7,101.9-162.9,102.3l-.8.3v43.3c21.9-12.6,110.4-65.3,178.7-129.5l-15-16.3Z"/>
  <path class="cls-3" d="M61.8,558.6l23-21.1c-2.4-3.9-4.8-8-7.1-12C7.5,399.7,22.3,254.2,22.3,254.2c0,0-51.6,142.2,39.5,304.4Z"/>
  <g>
    <path class="cls-2" d="M438.7,143.1c.7.4,1.4.7,2.1,1.1,0,0,.2,0,.3.1,1.8.9,3.5,1.9,5.3,2.8.1,0,.3.2.4.2,1.7.9,3.4,1.9,5.1,2.8.2.1.4.2.6.4,1.6.9,3.2,1.9,4.8,2.9.3.2.5.3.8.5,1.5.9,3.1,1.9,4.6,2.9.3.2.7.4,1,.6,1.5.9,2.9,1.9,4.3,2.9.4.3.8.5,1.2.8,1.4.9,2.7,1.9,4.1,2.8.5.3.9.7,1.4,1,1.3.9,2.5,1.8,3.8,2.7.5.4,1.1.8,1.6,1.2,1.2.9,2.3,1.8,3.5,2.7.6.5,1.3,1,1.9,1.5,1.1.8,2.1,1.7,3.2,2.5.7.6,1.4,1.2,2.1,1.8.9.8,1.9,1.6,2.8,2.4.8.7,1.6,1.4,2.5,2.2.8.7,1.6,1.4,2.4,2.1,1,.9,2,1.8,2.9,2.7.6.6,1.2,1.1,1.8,1.7,1.6,1.5,3.1,3,4.7,4.6,1.5,1.5,3.1,3.1,4.6,4.7.6.6,1.1,1.2,1.7,1.8.9,1,1.8,2,2.7,3,.7.8,1.4,1.5,2.1,2.3.7.8,1.5,1.7,2.2,2.5.8.9,1.5,1.8,2.2,2.6.6.8,1.3,1.5,1.9,2.3.8,1,1.6,1.9,2.4,2.9.6.7,1.1,1.4,1.7,2.1.8,1.1,1.6,2.1,2.4,3.2.5.6,1,1.3,1.4,1.9.8,1.1,1.7,2.3,2.5,3.4.4.6.8,1.2,1.2,1.7.9,1.2,1.7,2.4,2.5,3.7.4.5.7,1,1.1,1.6.9,1.3,1.7,2.6,2.6,3.9.3.5.6.9.9,1.4.9,1.4,1.7,2.8,2.6,4.1.2.4.5.8.7,1.2.9,1.5,1.8,2.9,2.6,4.4.2.3.4.7.6,1,.9,1.5,1.8,3.1,2.6,4.6.2.3.3.6.5.8.9,1.6,1.7,3.2,2.6,4.9.1.2.2.4.3.6.9,1.7,1.7,3.4,2.6,5.1,0,.1.1.3.2.4.9,1.8,1.7,3.6,2.5,5.4,0,0,0,.1.1.2.9,1.9,1.7,3.7,2.5,5.6,2.8-2.1,4.7-3.8,4.7-3.8l4.8-4.8.2-.2,9.9-9.9s16.4-17.7,10.8-28c0,0-14.8,19-32.7,4.4l-37.9-37.9,13.1-13.1-29.4-11.1-3.9,3.9-37.9-37.9c-14.5-17.9,4.4-32.7,4.4-32.7-10.3-5.7-28,10.7-28,10.7l-9.9,9.9-.2.2-4.8,4.8s-1.8,1.9-4,4.8c5.1,2.2,10,4.6,15,7.1Z"/>
    <polygon class="cls-2" points="588.1 132.6 558.8 121.4 541.1 139.1 570.5 150.2 588.1 132.6"/>
    <polygon class="cls-2" points="515.8 164.4 545.2 175.5 562.8 157.9 533.5 146.7 515.8 164.4"/>
    <path class="cls-2" d="M575.7,104.6l-9.3,9.3,29.4,11.1h.1c10.1,2.8,21.4.4,29.4-7.6,11.6-11.6,11.6-30.5,0-42.2-11.6-11.6-30.5-11.6-42.2,0-8,8-10.3,19.3-7.4,29.3ZM613.9,86.5c5.4,5.4,5.4,14.2,0,19.6-5.4,5.4-14.2,5.4-19.6,0-5.4-5.4-5.4-14.2,0-19.6,5.4-5.4,14.2-5.4,19.6,0Z"/>
  </g>
  <path class="cls-2" d="M124.9,574.9l-88.9,88.9,27.8-68.3,43.3-40.2c.3.3.5.6.8.9-4-4.8-7.9-9.7-11.5-14.8l-59.2,54.4L0,700.4l104.6-37.1,54.8-59.6c-12.2-8.6-23.8-18.2-34.5-28.8Z"/>
  <path class="cls-2" d="M59.5,267.7l.2.2,4.9,4.8s1.1,1,2.9,2.4c13.4-30.8,32.5-59.1,56.5-83.1,24.6-24.6,53.6-44,85.2-57.4-1.7-2.2-3-3.6-3-3.6l-4.9-4.8-.2-.2-9.9-9.9s-17.7-16.4-28-10.7c0,0,19,14.8,4.4,32.7l-37.9,37.9-3.9-3.9-29.4,11.1,13.1,13.1-37.9,37.9c-17.9,14.5-32.7-4.4-32.7-4.4-5.7,10.3,10.8,28,10.8,28l9.9,9.9Z"/>
  <polygon class="cls-2" points="45.8 132.6 75.2 121.4 92.9 139.1 63.5 150.2 45.8 132.6"/>
  <polygon class="cls-2" points="118.2 164.4 88.8 175.5 71.1 157.9 100.5 146.7 118.2 164.4"/>
  <path class="cls-2" d="M50.9,75.2c-11.6-11.6-30.5-11.6-42.2,0-11.6,11.6-11.6,30.5,0,42.2,8,8,19.3,10.3,29.4,7.4h.1c0,.1,29.4-11,29.4-11l-9.3-9.3c2.9-10.1.5-21.4-7.4-29.3ZM39.6,86.5c5.4,5.4,5.4,14.2,0,19.6-5.4,5.4-14.2,5.4-19.6,0-5.4-5.4-5.4-14.2,0-19.6,5.4-5.4,14.2-5.4,19.6,0Z"/>
  <path class="cls-2" d="M526.3,554.8l43.9,40.8,27.8,68.3-89.4-89.4c-.2.2-.4.4-.6.6-1.4,1.4-2.9,2.9-4.4,4.3-.6.5-1.1,1.1-1.7,1.6-.9.8-1.8,1.7-2.7,2.5-.7.7-1.5,1.3-2.2,2-.7.6-1.4,1.3-2.1,1.9-.9.8-1.8,1.5-2.7,2.3-.5.4-1,.8-1.5,1.2-5.3,4.4-10.7,8.6-16.3,12.6,0,0,0,0,0,0l55,59.8,104.6,37.1-37.1-104.6-59.9-55.1c-3.1,4.3-6.2,8.5-9.5,12.6-.2.3-.5.6-.7.9"/>
  <path class="cls-3" d="M317,124.9c-142.8,0-258.6,115.8-258.6,258.6s115.8,258.6,258.6,258.6,258.6-115.8,258.6-258.6S459.8,124.9,317,124.9ZM317,567.3c-101.6,0-183.9-82.3-183.9-183.9s82.3-183.9,183.9-183.9,183.9,82.3,183.9,183.9-82.3,183.9-183.9,183.9Z"/>
  <path class="cls-3" d="M317,635.9c-67.4,0-130.8-26.3-178.5-74-47.7-47.7-73.9-111.1-73.9-178.5s26.3-130.8,73.9-178.5c47.7-47.7,111.1-73.9,178.5-73.9s130.8,26.3,178.5,73.9c47.7,47.7,73.9,111.1,73.9,178.5s-26.3,130.8-73.9,178.5c-47.7,47.7-111.1,74-178.5,74h0ZM317,193.4c-104.8,0-190,85.2-190,190s85.2,190,190,190,190-85.2,190-190-85.2-190-190-190h0Z"/>
  <path class="cls-1" d="M318,9.2v90.9l29-42.4,4.9,2.7c.5.2,43.9,23.9,74,33.9l9.6-8.7c-40.6-11.5-95.6-57.1-117.5-76.3Z"/>
  <path class="cls-1" d="M495.5,204.9c-47.4-47.4-110.4-73.7-177.5-73.9v62.5c104.3.6,189,85.6,189,190s-84.7,189.5-189,190v62.4c67.1-.3,130-26.5,177.5-73.9,47.7-47.7,73.9-111.1,73.9-178.5s-26.3-130.8-73.9-178.5Z"/>
  <path class="cls-2" d="M317,556.1c-95.2,0-172.6-77.4-172.6-172.6s77.4-172.6,172.6-172.6,172.6,77.4,172.6,172.6-77.4,172.6-172.6,172.6h0ZM317,221.2c-89.5,0-162.3,72.8-162.3,162.3s72.8,162.3,162.3,162.3,162.3-72.8,162.3-162.3-72.8-162.3-162.3-162.3h0Z"/>
  <g>
    <g>
      <path class="cls-2" d="M420.6,505.6l-45.9-41.6c-.4,1.9-.9,3.7-1.5,5.4l43.8,39.7-4.8,5.2-42.3-38.3c-.9,1.4-1.9,2.8-3,4.1l42,38.1c2,1.8,4.7,1.9,6.3.2l6-6.6c1.6-1.7,1.3-4.5-.7-6.3Z"/>
      <path class="cls-2" d="M274,392.1v-2.9l-40.8-37,4.8-5.2,36,32.6v-6.8l-33-29.9c.9-2,1-4.2.3-6.2,0,0,.1,0,.2,0-.2-.2-.3-.4-.4-.6,0-.2-.2-.4-.3-.7-1-2.8,1.3-6,2.5-7.4,8.9-7.4,18.1-14.2,26.2-21.5-2.8-2.6-9-11.7-11.7-14.4-10.9,8.2-22.1,17.9-33,28.9-3-1-6.4-.3-8.8,2l-2.1-1.9c-.6-.6-1.6-.5-2.2,0l-6.5,7c-.6.7-.6,1.6,0,2.2l2.1,2c-1.9,2.5-2.2,5.8-1,8.6-27.7,32.5-45.6,66-50,90.8,15.5-26,35.5-50,58.9-75.9,1.5-1,3.3-1.6,5.1-1,2.7,1.8,6.1,2,8.9.6l47.2,42.8v-6.1h-2.5ZM256.6,296c.4.4.7.8,1.1,1.2-9.6,7.9-19.3,16.7-28.8,26.3l-.7-.6c-.3-.3-.7-.6-1.1-.8,9.8-9.7,19.7-18.4,29.5-26ZM167,405.9c8.6-19.5,22.5-41.3,40.7-62.8.3.4.6.7.9,1l.7.6c-17.7,20.6-32,41.6-42.4,61.1ZM231.2,350.7c-2.4,2.7-6.6,2.8-9.2.4l-10.7-9.9c-2.6-2.4-2.8-6.6-.4-9.2l1.3-1.5c-2.4,2.7-2.3,6.8.4,9.3l10.7,9.9c2.7,2.5,6.8,2.3,9.3-.4l-1.3,1.4Z"/>
    </g>
    <g>
      <g>
        <polygon class="cls-4" points="365 397 369.9 392.6 365 392.6 365 397"/>
        <g>
          <path class="cls-2" d="M259.5,489.2l-35.7,32.3-4.8-5.2,51.5-46.7v-6.8l-55.1,49.9c-2,1.8-2.3,4.6-.7,6.3l6,6.6c1.6,1.7,4.3,1.6,6.3-.2l32.5-29.4v-6.8Z"/>
          <path class="cls-2" d="M400,351.1c-.9-1.3-1.4-2.7-1.7-4l-27.8,25.2v6.8l30-27.2c-.2-.2-.4-.5-.5-.7Z"/>
          <path class="cls-2" d="M408.2,360.7c-1.1-.7-2-1.4-2.8-2.3-.2-.2-.5-.5-.7-.8l-34.2,31v3.9h-4.3l-1.2,1.1v6.8l43.6-39.5c-.1,0-.2-.1-.4-.2Z"/>
        </g>
      </g>
      <path class="cls-2" d="M429.6,348.1c1.2-2.8.8-6.1-1-8.6l2.1-2c.6-.6.7-1.6,0-2.2l-6.5-7c-.6-.6-1.6-.7-2.2,0l-2.1,1.9c-2.4-2.3-5.8-3-8.8-2-10.9-11-22.1-20.7-33-28.9-2.8,2.7-8.9,11.8-11.7,14.4,8.1,7.3,17.3,14.2,26.2,21.5,1.3,1.5,3.5,4.6,2.5,7.4-.1.2-.2.4-.3.6-.1.2-.2.4-.4.6,0,0,.1,0,.2,0-.9,2.9-.3,6.3,1.9,8.7l7.5,8.1c3,3.3,7.9,3.8,11.5,1.4,1.8-.6,3.6,0,5.1,1,23.4,25.9,43.4,49.9,58.9,75.9-4.4-24.8-22.3-58.2-50-90.8ZM378.3,304.3c.4-.4.7-.8,1.1-1.2,9.8,7.6,19.7,16.2,29.4,25.9-.7.4-1.2,1-1.8,1.5-9.5-9.6-19.2-18.4-28.8-26.2ZM414,358.2c-2.6,2.4-6.8,2.3-9.2-.4l-1.3-1.4c2.5,2.6,6.6,2.8,9.3.4l10.7-9.9c2.6-2.4,2.8-6.6.4-9.3l1.3,1.5c2.4,2.7,2.3,6.8-.4,9.2l-10.7,9.9ZM428.3,350.2c18.2,21.5,32.1,43.3,40.7,62.8-10.3-19.5-24.7-40.5-42.3-61.1.6-.5,1.1-1.1,1.6-1.8Z"/>
    </g>
  </g>
  <g>
    <path class="cls-2" d="M290.4,455.3s-.2,7.9,33.4,7.3c33.8-.5,33.8-7.7,33.8-7.7,0,0,12.4,8.6-13.8,12.8-26.3,4.2-45.2.9-53-3.5-7.9-4.4-5.4-6.1-5.4-6.1"/>
    <g>
      <path class="cls-2" d="M322.8,257.9s-11.5-.2-18.6-4.5c-7.1-4.3-15.5,0-15.5,0v5.1s-13.2-2-8.7-5.2c4.5-3.2,19.1-6.7,43.1-7.9"/>
      <rect class="cls-2" x="295" y="388.8" width="6.9" height="81.8"/>
      <path class="cls-2" d="M288.3,387.8l-3.5,72s1.6,2.6,5.9.5l3.3-78.5"/>
      <path class="cls-2" d="M287.1,459.8s-6.2,7.5,13.7,10.5c11.9,1.6,22.1,1.9,22.1,1.9v8s-25.1,0-37.9-5.1c-12.8-5.1-6.4-16.2,3.6-17.2"/>
    </g>
    <g>
      <path class="cls-2" d="M322,257.9s11.5-.2,18.6-4.5c7.1-4.3,15.5,0,15.5,0v5.1s13.2-2,8.7-5.2c-4.5-3.2-19.1-6.7-43.1-7.9"/>
      <rect class="cls-2" x="342.9" y="388.8" width="6.9" height="81.8"/>
      <path class="cls-2" d="M356.5,387.8l3.5,72s-1.5,2.9-5.7.7l-3.3-78.9"/>
      <path class="cls-2" d="M357.7,459.8s6.2,7.5-13.7,10.5c-11.9,1.6-22.1,1.9-22.1,1.9v8s25.1,0,37.9-5.1c12.8-5.1,6.4-16.2-3.6-17.2"/>
    </g>
    <path class="cls-2" d="M280.7,475.7v13.7s-4.3,2.9-3.7,6.8c.6,4,5.1,6.4,5.1,6.4v13.5s-5.9,8.1-1.8,13.2c4.1,5.1,21.5,12.4,48.5,10.5,27-1.9,36.6-8.6,37.4-12.9.8-4.8-3.3-8.9-3.3-8.9,0,0-.5,8.9-35.8,10-35.3,1.1-39.6-7.9-39.6-7.9v-15.9s21.9,10,56,4.1c34-5.9,19.7-19.7,19.7-19.7,0,0,1.3,9.5-33.4,12.3-34.7,2.7-41.7-7.3-41.7-7.3v-13.7s-2.2-.5-7.5-4.1Z"/>
    <path class="cls-2" d="M281.3,483.5s-14.8-.7-17.6,2.9c-2.9,3.6,11.4,6.7,11.4,6.7v13.6l7.9,1.4"/>
    <path class="cls-2" d="M320.5,254.1c-1.1,0-2.1-.6-2.6-1.6-.1-.3-.4-.7-.7-1.3-2.3-3.8-7.1-11.7-5.3-18.3,1-3.5,3.5-6.2,6.8-7.2,3.2-1,6.7-.3,9.2,1.8,2.7,2.3,3.9,6.1,3.1,9.7-.8,3.6-3.4,6.3-6.9,7.3-1.5.4-3.1-.5-3.5-2-.4-1.5.5-3.1,2-3.5,2-.5,2.7-2.1,2.9-3,.4-1.6-.1-3.2-1.2-4.1-1.1-.9-2.5-1.2-3.8-.7-1.5.4-2.6,1.6-3,3.2-1.2,4.3,2.9,11,4.7,13.9.5.8.9,1.4,1,1.8.7,1.4,0,3.1-1.4,3.8-.4.2-.8.3-1.2.3h0Z"/>
    <path class="cls-2" d="M234.3,274.6c-1.8,0-3.2-.4-4-1.2-1.1-1.1-1.5-2.8-.8-4.4,3.3-8.6,83.3-34.7,84-34.7,1.6,0,2.9,1.3,2.9,2.9s-1,2.6-2.3,2.8c-4.1,1.1-31.7,10.7-53.2,19.2.7.5,1.2,1.4,1.2,2.3,0,1.4,0,3.7-11.5,8.6-7.2,3-12.6,4.6-16.1,4.6h0ZM255.1,261.3c-5.4,2.2-10.1,4.2-13.7,6,5-1.7,10.9-4.2,13.7-6h0Z"/>
    <path class="cls-2" d="M292.1,463.9c-.7,0-1.3-.2-1.8-.7-1.3-1.1-2.5-3.4-1.8-5.9,1-3.5,5.1-5.9,13-7.5,12.1-2.4,47.2-4.9,54.8,3.9,1.7,1.9,2.1,4.4,1.2,6.9-.5,1.5-2.2,2.3-3.7,1.7-1.5-.5-2.3-2.2-1.7-3.7.2-.6.1-.9-.2-1.2-4.5-5.3-34.1-5.1-49.4-2-7.7,1.6-8.6,3.4-8.6,3.4,1.2,1,1.4,2.9.3,4.1-.6.7-1.4,1-2.1,1h0Z"/>
    <path class="cls-2" d="M328.1,454.2v-7.3c0-4-3.2-7.2-7.2-7.2s-7.2,3.2-7.2,7.2v7.3h14.3Z"/>
    <path class="cls-2" d="M362.2,383.9c2.1,0,1.8-2.4,1.8-2.4,0,0,.2-10.2,0-12.6-.2-2.4-3-3.5-3-3.5l-6.8-108.7c-.4-.3-1.1-.6-2-.8v7.3c0,2.6-2.1,4.6-4.7,4.6s-4.7-2.1-4.7-4.6v-7.1c-1.5.3-3.1.8-4.8,1.5v6.9c0,2.6-2.3,4.6-5.2,4.6s-5.2-2.1-5.2-4.6v-4.1c-2.3.3-3.9.2-4.7.2h0s0,0-.2,0c-.1,0-.2,0-.2,0h0c-.8,0-2.4,0-4.7-.2v4.1c0,2.6-2.3,4.6-5.2,4.6s-5.2-2.1-5.2-4.6v-6.9c-1.7-.7-3.3-1.1-4.8-1.5v7.1c0,2.6-2.1,4.6-4.7,4.6s-4.7-2.1-4.7-4.6v-7.3c-.9.2-1.6.5-2,.8l-6.9,108.7s-2.9,1.1-3,3.5c-.2,2.4,0,12.6,0,12.6,0,0-.4,2.4,1.8,2.4,0,0-3,3.8-1.4,4.9,1.4,1,32.8,2,40.4,2.2h0s.3,0,.8,0c.5,0,.8,0,.8,0h0c7.6-.3,39-1.3,40.4-2.2,1.6-1.1-1.4-4.9-1.4-4.9ZM295.1,273.8c.3,0,.6,0,1,0,1,0,1.9-.2,2.9-.3l1.4,89.2-10-.2,4.7-88.8ZM332.8,371.4v12.5s-36,.4-42.6,0c-6.6-.3-5.6-4.8-5.6-4.8v-4.1c0-4.1.6-6.8,7.5-6.4,26.1,1.7,62.8.6,62.8.6h7.7c-11.5,3-29.9,2.1-29.9,2.1Z"/>
  </g>
  <g>
    <path class="cls-4" d="M118.9,343.8c.4-1.4.6-2.5.8-3.2,1.1-5.5,1.2-9.7.3-12.7-.5-1.4-1-2.7-1.6-3.7-.6-1.1-1-1.9-1.3-2.3-.3-.5-.4-.9-.3-1.3.2-.9.7-1.2,1.6-1,.3,0,.7.3,1.1.8.5.5,1,1.1,1.6,1.8.6.7,1,1.1,1.1,1.3l1.6,1.6c0,.1,1.5,1.6,4.4,4.5.5,2.1.4,4.9-.3,8.2-.5,2.3-1.4,5.8-2.7,10.4-1.3,4.6-2.2,8.2-2.7,10.7-.4,2-.6,3.8-.5,5.4,0,1.6,0,2.5,0,2.6-.1.7-.5,1-1.2.9-.3,0-.5-.3-.8-.6-1.3-1.8-2.5-3.1-3.7-3.9-1.2-.8-2.8-1.4-4.8-2-3-.9-7.6-1.9-13.6-3.1-5.6-1.1-10.2-1.9-13.8-2.3-2.3-.3-4.1.1-5.4,1.3-.2.2-1.5,1.3-3.7,3.4-.4.4-.7.5-1.1.5-.8-.2-1.1-.7-.9-1.7,0-.2.2-.8.6-1.7.6-2.2,1.2-4.8,1.8-8.1.7-3.7,1-6.2.8-7.5-.1-1.2-.1-1.9,0-2.2.1-.7.5-.9,1-.8.1,0,.3.1.5.3.2.2.5.4.9.8.4.4.8.7,1.1,1,1.3,1.1,3.6,2.1,7.1,3.1,2.5.7,6.9,1.7,13.4,2.9,9.9,1.9,15.6,3,17,3.3l1.7-6.7Z"/>
    <path class="cls-4" d="M105.6,259c2.7-4.1,5.3-7.2,7.8-9.2,2.5-2,5.2-3.1,8.1-3.5,3.5-.5,7.6.3,12.5,2.3,4.9,2,8.4,4.2,10.6,6.5,1.6,1.6,3.2,3.5,4.6,5.6,1.4,2.1,2.2,3.7,2.2,4.8-1.1,11-1.7,17.9-1.7,20.9-2.3,6.7-6.1,12-11.6,15.9-3.7,2.7-7.9,4.1-12.4,4.2-4.5.1-8.7-.7-12.5-2.4-3.2-1.4-6.1-3.5-8.6-6.1-2.6-2.7-4.1-5.7-4.6-9.2-.6-4.6-.7-9.2-.3-13.6.4-4.4,1.2-7.8,2.5-10.1,1.6-2.9,2.7-4.9,3.5-6.1ZM114.3,290c2.4,1.4,5.3,2.5,8.7,3.2,3.4.7,6.8.6,10.1-.3,3.1-.8,5.8-2.2,7.9-4.3,2.1-2.1,3.6-4.3,4.3-6.8.7-2.8.7-5.1-.1-7.1-.8-2-2.3-4.1-4.5-6.4-1.6-1.6-3.5-3.1-5.8-4.7-2.3-1.5-5-2.8-8.1-3.8-3.1-1-5.8-1.2-8.2-.6-2.1.6-4.2,1.8-6.3,3.8-2.1,2-3.7,4-4.9,6-1.2,2.1-2,4-2.6,5.7-1,3.6,0,7,3.1,10.1,1.9,1.9,4,3.6,6.4,5Z"/>
    <path class="cls-4" d="M178.2,184.5c.6,1.5,1.3,2.9,2.3,4.1.7.8,2.8,3.5,6.4,7.9,3.6,4.5,7.1,8.7,10.3,12.8,3.3,4.1,5,6.1,5.1,6.2.3.3.7.7,1.1,1.2.5.5.8.8.9,1,.9,1,1.2,2.1,1,3.4-.2,2-.7,3.3-1.5,4-.3.2-.5.3-.8.4-.3,0-.5,0-.7-.1-.2,0-.5-.3-.9-.5-.4-.2-.7-.4-1-.5-1.4-.6-2.8-1.1-4.5-1.4-1.6-.3-3-.6-4.2-.7s-2.9-.1-4.9,0c-2,.1-3.5.3-4.5.4-1,.1-2.6.3-5,.7-2.4.4-3.9.6-4.6.7-4.9.7-9.2.8-12.6.3-3.5-.5-6.8-1.5-10-3l21.3,19.7c1.8,1.7,2.9,2.7,3.3,3.3.9,1,1,1.8.4,2.3-1.2,1.1-2.2,2-2.8,2.9-.7.9-1.5,2.5-2.4,4.5-.4,1-.8,1.6-1.2,1.9-.5.5-1,.5-1.4,0-.2-.2-.2-.4-.3-.6,0-.2,0-.5,0-.8,0-.3,0-.6,0-.7.1-2.1-1.4-5.1-4.6-9.1-8.3-10.1-13.3-16.2-15.1-18.2-2.1-2.4-3.8-3.9-5.2-4.4-1.4-.5-3.4-.6-6.3-.1-.4,0-.8.2-1.2.2-.4,0-.8.1-1,.2-.2,0-.4,0-.6,0-.2,0-.4,0-.6,0-.1,0-.3-.2-.4-.3-.5-.6-.5-1.1.2-1.7.1-.1.4-.3.8-.6.4-.3.9-.6,1.6-1.1.7-.5,1.3-.9,1.8-1.3.5-.4,1.9-1.6,4.2-3.6.9-.8,1.7-1.6,2.3-2.3.6-.7,1-1.1,1.2-1.3.5-.5,1.1-.6,1.7-.2l.4.2c.3.1.7.3,1.1.5.4.2.8.4,1.3.7.4.2.9.4,1.4.7.5.2.9.4,1.3.5,5.3,2,12.2,2.3,20.5,1,4-.7,7.4-1,10.2-1.1,2.8,0,4.9,0,6.2.3,1.3.3,2.9.7,4.8,1.4l-14.4-14.8c-4-4.1-7.9-5.5-11.7-4.4-.8.2-1.6.5-2.5.9-.9.4-1.5.6-1.8.6-.3,0-.6-.1-.8-.4-.4-.5-.3-1,.5-1.7.6-.5,1.7-1.4,3.2-2.4,1.5-1.1,2.6-1.9,3.3-2.5,1.6-1.4,2.9-2.7,3.9-3.9,1-1.1,1.7-2,2-2.6.3-.6.6-1,.8-1.1.5-.4.9-.4,1.4.1,0,.1.4.9,1,2.4Z"/>
    <path class="cls-4" d="M237.1,152.7c.6,1.3,1,3,1.3,5.1.3,2.1.7,3.7,1.2,4.7l.6,1.3c.8,1.9.8,3,0,3.3-.5.2-1.6-.5-3.3-2-1.3-1.2-3.1-1.6-5.5-1.1-2.3.5-5.5,1.6-9.5,3.3l-4.4,1.9c.4,1.9,1.5,4.9,3.3,9l1.4,3.3,9-3.8c1.6-.6,3.1-1.3,4.4-2s2.3-1.4,3.1-2c.8-.6,1.2-.9,1.4-1,.4-.2.8,0,1,.4.2.5.3,1.3.3,2.3,0,1.5-.2,2.5-.4,3.1-.2.5-.5.8-.9,1,0,0-1,.3-2.9.8-1.9.5-3.6,1.1-5.2,1.8l-8,3.5c3.3,7.6,5.6,12.5,6.8,14.9l9.3-3.6c6-2.4,9.8-5,11.2-8,.2-.5.5-1.1.8-1.9.3-.8.5-1.4.8-1.8.2-.4.5-.7.8-.8.3-.1.6-.1,1,0,.3.1.6.4.7.8.1.3.1.7,0,1.2,0,.5-.3,1.3-.5,2.3-.3,1-.4,1.6-.4,1.7l-.5,2c-.1.6-.3,1.5-.6,2.9-.3,1.4-.5,2.4-.6,3.1-1.7,1.4-3.7,2.6-6.1,3.7-1.2.5-4.3,1.6-9.3,3.1-5,1.6-8.8,2.9-11.4,4.1-1.2.5-2.3,1.2-3.6,2.1-1.2.9-2,1.4-2.4,1.6-.8.3-1.3.2-1.6-.4-.3-.6,0-1.7.7-3.4.7-1.6.9-3.1.7-4.4-.1-.6-.7-2.3-1.7-4.9-2.5-6.1-5.6-13.3-9.4-21.7-1-2.3-2-3.9-2.9-4.9-.9-1-2.2-1.5-3.7-1.7-.3,0-.7,0-1.1,0-.4,0-.7,0-1,0-.2,0-.5,0-.8-.1-.3,0-.5-.2-.6-.3-.2-.1-.3-.3-.3-.4-.3-.7,0-1.3,1-1.7.5-.2,1.4-.5,2.6-.9,1.2-.4,1.8-.6,1.9-.6l25.2-10.9c3-1.2,4.7-2.5,5-3.8.2-.9.6-1.4,1-1.6.7-.3,1.4.3,2,1.8Z"/>
    <path class="cls-4" d="M329.7,160.6c3-6.7,4.5-11.6,4.4-14.5,0-1.3-.6-2.2-1.8-2.8-1.2-.6-2.6-.9-4.1-.8-.3,0-.8,0-1.5.2-.7.1-1.3.2-1.8.2-.8,0-1.2-.3-1.2-1,0-.4.2-.8.6-1.2,1.5-1.2,3.2-2.2,5.3-2.8,1-.4,1.9-.5,2.7-.6.8,0,1.9.3,3.4.9,1.4.6,2.7,1.1,3.9,1.3,1.2.2,2,.4,2.4.5.4.1.8.5,1.2,1,.4.5.6,1.2.6,2.2,0,1.6-.6,4.1-1.8,7.3-3.1,7.7-7.8,17-14.2,27.9-3.4,5.9-6,9.3-7.8,10.2-1.2.6-3.3,1-6.6,1-.8,0-1.5-.4-2.2-1.3-.6-.9-1.5-2.5-2.6-4.9-5.6-12-12.2-24.5-20-37.6-.2-.4-.7-1-1.3-1.9-.6-.9-1.1-1.6-1.4-2.1-.3-.6-.5-1-.5-1.5,0-.8.7-1.2,2.2-1.3.6,0,1.7,0,3.3.2,1.6.1,3.7.2,6.5.1,1.6,0,3.3-.2,5.1-.4,1.8-.2,3-.3,3.4-.3,1.2,0,1.8.4,1.8,1.1,0,.4-.4.9-1.2,1.3-.8.4-1.6,1-2.4,1.6-.8.6-1.2,1.4-1.2,2.2,0,3.6,2.6,10.1,7.6,19.5,3,5.7,5.9,10.6,8.6,14.6,4.5-7,7.9-13.1,10.3-18.4Z"/>
    <path class="cls-4" d="M374,185.5c-.5,3.3-.6,5.9-.4,7.8,0,0,0,.5.2,1.3.1.8.2,1.2.1,1.4-.2.7-.6.9-1.2.7-.1,0-.5-.2-1.1-.5s-.9-.5-.9-.5c-1.4-.6-3.5-1.3-6.4-2-1.7-.4-3.1-.7-4.2-.8-1.1-.1-1.9-.1-2.5,0-.5,0-.9,0-1.2,0-.8-.2-1.1-.6-.9-1.3,0-.3.3-.5.6-.7,1.9-1.2,3.3-2.4,4.1-3.4.8-1.1,1.6-2.7,2.2-4.7,1.1-3,2.4-7.4,3.9-13.4,1.4-5.5,2.4-10.1,3.1-13.7.4-2.3.1-4.1-1-5.5-.2-.2-1.2-1.5-3.2-3.9-.3-.4-.5-.7-.4-1.1.2-.8.8-1.1,1.7-.8.2,0,.8.3,1.7.7,2.1.7,4.8,1.4,7.9,2.3,3.7.9,6.1,1.3,7.4,1.2,1.2,0,1.9,0,2.3,0,.7.2,1,.6.8,1.1,0,.2-.2.5-.4.7-.2.2-.3.4-.5.5-.1.1-.4.3-.7.5-.3.2-.6.4-.7.5-1.1.9-2.3,3.3-3.6,7-.9,2.6-2.2,7.4-4,14.5-1.5,5.9-2.4,9.9-2.8,12.1Z"/>
    <path class="cls-4" d="M406,197.5c-1.3,3-2,5.5-2.3,7.5,0,0,0,.5-.2,1.3,0,.8-.1,1.2-.2,1.4-.3.6-.8.7-1.4.4-.1,0-.4-.3-.9-.8-.5-.4-.7-.7-.8-.7-1.2-.9-3.1-2.1-5.7-3.5-1.5-.8-2.8-1.4-3.9-1.8-1.1-.4-1.9-.6-2.4-.7-.5,0-.9-.2-1.1-.3-.7-.4-.9-.9-.6-1.5.1-.3.4-.4.8-.6,2.1-.7,3.7-1.5,4.8-2.3,1.1-.9,2.2-2.2,3.3-4,1.8-2.6,4.1-6.6,7-12,2.7-5,4.8-9.2,6.3-12.5,1-2.1,1.1-4,.4-5.6-.1-.3-.8-1.8-2.1-4.5-.2-.5-.3-.8-.1-1.1.4-.7,1-.9,1.9-.4.2,0,.7.4,1.5,1.1,1.9,1.2,4.3,2.6,7.2,4.1,3.3,1.8,5.6,2.8,6.9,3,1.1.2,1.9.4,2.2.6.6.3.8.8.5,1.3-.1.2-.3.4-.5.6-.2.2-.4.3-.6.4-.2,0-.4.2-.8.3-.4.1-.7.3-.8.3-1.3.6-3,2.6-5.2,5.9-1.5,2.3-3.9,6.7-7.5,13.1-2.9,5.3-4.8,9-5.7,11ZM432.2,218.6c0,.4.3,1.1.7,2.1.4,1,.7,1.9,1,2.6.3.8.3,1.3.2,1.5-.3.6-.9.7-1.7.3-.4-.2-1.3-.9-2.8-2.1-1.5-1.2-3.1-2.2-4.6-3.1-.6-.3-1.2-.6-1.8-.9-.7-.3-1.2-.6-1.6-.8-.3-.2-.5-.3-.7-.4-.2-.1-.4-.3-.5-.5s-.3-.4-.3-.5c0-.1-.1-.4-.2-.8,0-.4-.1-.7-.1-1,0-.2,0-.7-.1-1.5,0-.7-.1-1.4-.2-1.9l-1.8-18.4c0-.2,0-.9-.2-2.2-.1-1.3-.2-2.4-.3-3.5,0-1,0-1.7.2-2,.2-.3.6-.5,1.3-.5.7,0,1.5,0,2.4.1.9,0,1.4.1,1.6.1,2.6-.1,5.3-.7,7.9-1.7,2.6-1,4.5-2.6,5.7-4.8.6-1.1.7-2.4.2-4,0-.2-.2-.5-.5-1-.3-.5-.5-1-.6-1.4-.1-.4,0-.8.1-1.2.3-.6.9-.7,1.7-.3.6.3,1.4.9,2.5,1.8,1.1.9,2.4,1.7,3.8,2.5,1,.5,2,1,3,1.4.3.1.9.3,1.8.6.9.3,1.4.4,1.5.5.8.4.8,1.3.1,2.5-.8,1.4-2.2,3-4.4,4.8-2.2,1.8-4.5,3.1-6.9,3.9-3.5,1.2-7.5,1.4-11.9.7l5.8,28.9Z"/>
    <path class="cls-4" d="M459.4,234.7c-2,2.7-3.3,4.9-4,6.7,0,0-.2.5-.5,1.2-.2.7-.4,1.2-.6,1.3-.5.5-.9.5-1.4,0-.1,0-.3-.4-.7-1-.4-.5-.5-.8-.6-.9-.9-1.2-2.5-2.8-4.8-4.8-1.3-1.2-2.4-2.1-3.3-2.7-.9-.6-1.7-1-2.2-1.2-.5-.2-.8-.4-1-.5-.6-.6-.7-1.1-.2-1.6.2-.2.5-.3.9-.4,2.2-.2,4-.6,5.2-1.1,1.3-.6,2.7-1.6,4.2-3.1,2.3-2.1,5.5-5.5,9.7-10,3.8-4.2,6.8-7.8,9.1-10.7,1.4-1.8,2-3.6,1.7-5.3,0-.3-.4-1.9-1-4.9-.1-.5,0-.9.1-1.1.6-.6,1.2-.6,1.9,0,.1.1.5.6,1.2,1.4,1.6,1.6,3.5,3.5,6,5.7,2.8,2.5,4.8,4,6,4.5,1.1.5,1.7.9,2,1.1.5.5.6.9.2,1.4-.2.2-.4.3-.6.4-.3,0-.5.2-.6.2-.2,0-.5,0-.9.1-.4,0-.7.1-.9.1-1.4.3-3.5,1.8-6.4,4.5-2,1.9-5.4,5.5-10.3,11-4.1,4.5-6.8,7.6-8.1,9.4Z"/>
    <path class="cls-4" d="M533.5,274c-1.6.4-3,.9-4.4,1.7-.9.5-3.8,2.3-8.7,5.2-4.9,2.9-9.6,5.8-14.1,8.5-4.5,2.7-6.8,4.1-6.9,4.2-.4.2-.8.6-1.4.9-.6.4-.9.7-1.1.8-1.1.7-2.3.9-3.5.5-2-.5-3.2-1.2-3.8-2-.2-.3-.3-.6-.2-.8,0-.3,0-.5.2-.7.1-.2.3-.4.6-.8.3-.4.5-.7.6-.9.8-1.3,1.5-2.7,2-4.2.6-1.5,1-2.9,1.3-4.1.3-1.2.5-2.8.7-4.8.1-2,.2-3.5.3-4.5,0-1,0-2.7,0-5.1,0-2.4,0-4,0-4.7,0-5,.5-9.2,1.5-12.5,1-3.4,2.4-6.5,4.4-9.5l-22.5,18.4c-1.9,1.5-3.1,2.5-3.7,2.8-1.1.7-1.9.8-2.4,0-.9-1.4-1.7-2.4-2.5-3.1-.8-.8-2.2-1.8-4.1-3-.9-.6-1.5-1-1.7-1.4-.4-.6-.3-1.1.2-1.4.2-.1.4-.2.6-.2.2,0,.5,0,.8.2.3.1.6.2.7.2,2.1.4,5.3-.7,9.6-3.3,11.2-6.8,17.9-10.9,20.1-12.4,2.7-1.7,4.4-3.2,5.1-4.5.7-1.3,1-3.3,1-6.2,0-.4,0-.8,0-1.3,0-.5,0-.8,0-1,0-.2,0-.4,0-.7,0-.2,0-.4.2-.5,0-.1.2-.3.4-.4.6-.4,1.2-.3,1.6.4.1.2.3.5.5.9.2.4.5,1,.9,1.7.4.7.7,1.4,1,2,.3.6,1.3,2.1,2.9,4.7.7,1,1.3,1.9,1.9,2.6.6.7,1,1.1,1.1,1.3.4.6.4,1.2,0,1.7l-.3.4c-.2.3-.4.6-.7,1-.3.4-.5.8-.8,1.2-.3.4-.6.8-.8,1.3-.3.4-.5.8-.7,1.2-2.7,5-4,11.7-3.9,20.2,0,4,0,7.5-.4,10.3-.3,2.8-.7,4.9-1.2,6.1-.4,1.3-1.1,2.8-2,4.6l16.6-12.2c4.6-3.4,6.6-7.1,6-11-.1-.8-.3-1.7-.5-2.6-.3-1-.4-1.6-.3-1.9,0-.3.2-.6.5-.7.5-.3,1.1-.1,1.6.7.4.7,1.1,1.8,2,3.5.9,1.6,1.5,2.8,2,3.6,1.2,1.8,2.3,3.3,3.3,4.4,1,1.1,1.8,1.9,2.3,2.3.5.4.9.7,1,.9.3.5.2,1-.3,1.3-.1,0-1,.3-2.5.7Z"/>
    <path class="cls-4" d="M518,345.5c1.3-.2,2.7-.7,4.4-1.4,1.6-.7,2.6-1.5,3.1-2.5.2-1.1.2-2,0-2.8-.2-.8-.7-1.8-1.2-3-.6-1.2-.9-2.1-1-2.6-.3-1-.1-1.7.4-2.1.4-.3,1.1,0,2.1.5,1.4.7,2.4,1.2,2.8,1.7.5.4.8,1,.9,1.8.3,1.6.4,2.7.5,3.2.6,3.3,1.1,5.5,1.3,6.4.3,1.4.9,3.3,1.7,5.8.4,1.2.4,2.1.2,2.6-.2.5-.7.8-1.5.8-1,0-2.6.3-4.6.6l-16.9,2.1c-.1,0-.6.1-1.2.3-.7.1-1.3.3-1.8.4-.5,0-1.1,0-1.7,0-.6,0-1.1-.3-1.4-.6l-.4-.8c-.2-.5-.5-1.1-.7-1.8-.3-.6-.4-1-.5-1.1-.9-1.6-2-2.7-3.2-3.3-3.5-2.1-5.3-3.7-5.4-4.7,0-.6.1-1.1.5-1.3.1,0,.2-.2.4-.2.1,0,.2,0,.4,0,.2,0,.3,0,.3,0,0,0,.2.1.5.3.3.1.4.2.6.3,3,1.2,5.5,1.9,7.4,2.3,2,.3,4.2.4,6.8,0l-6-8.5c-.3-.6-.6-1.8-1.1-3.6-.7-2.9-.7-6.1.2-9.6,1.7-7.7,6.2-13.4,13.5-17.1,1.6-1.1,4.7-2.1,9.3-3,4.6-1,8-1,10.1,0,1.8.8,3.9,2.4,6.3,4.6,2.4,2.2,4.4,4.3,5.9,6.2,2.7,3.5,4.8,8.3,6.4,14.5.7,2.9,1.2,5.2,1.5,7l.3,2c.2,1,.6,1.5,1.3,1.6l1,.4c.1,0,.3.1.7.2.3,0,.6.1.7.3.2.1.3.3.4.7,0,.6-.3,1-.8,1.3-.7.4-1.3.6-1.8.6-.5,0-1.4,0-2.7,0-1.3,0-2.5,0-3.5.3,0,0-1,.3-2.7.7-1.7.5-3.4.9-5.1,1.3-1.7.4-2.6.5-2.9.4-.5-.3-.8-.7-.8-1.3,0-.3.2-.6.6-.9.4-.3.8-.6,1.3-1,.5-.3.9-.6,1-.7,1.8-1.7,2.7-4.7,2.9-9.1.2-4.4,0-7.9-.5-10.7-.1-.6-.3-1.4-.7-2.4-.3-1-.9-2.1-1.8-3.3-.8-1.2-1.8-2-2.8-2.4-1.5-.6-3.7-.6-6.6,0-2.9.6-5.6,1.4-8.1,2.5-2.5,1.1-4.5,2.1-5.9,3.1-3.4,2.5-5.9,5-7.4,7.6-1.5,2.6-2.2,5.7-2,9.3.2,3,1.3,6,3.3,9,1.1,0,2.3-.2,3.6-.5Z"/>
  </g>
  <g>
    <path class="cls-4" d="M110.9,517.6c2.7-1.4,4.8-2.7,6.5-4,1.9-1.5,3.7-3,5.2-4.5.8-.7,1.4-.6,2,0,.3.4.4,1.4.3,3.1v2c-.3,4.2.1,8.2,1.1,12,1,3.8,2.4,7,4.4,9.5,1.6,2.1,3.2,3.3,4.6,3.6,1.4.3,2.9-.1,4.6-1.4,1.9-1.5,3-2.9,3.5-4.2.4-.9.4-2.2-.1-3.9-.5-1.6-1.4-3.3-2.5-5-.5-.7-1.5-2.3-3.1-4.7-1.6-2.4-2.9-4.4-4.1-6-3.1-4.3-4.1-7.3-2.9-9.1.7-1.4,2.4-3.1,5.3-5.2,2.9-2.1,5.1-3.2,6.8-3.2,1.8,0,4.4.5,7.9,1.8,3.5,1.3,6,2.5,7.4,3.7,1.8,1.5,3.5,3.3,5.1,5.3,1.1,1.5,2.4,3.3,3.8,5.5.2.3.6,1,1.2,2.2.6,1.2,1.1,2,1.5,2.5.6.7,1.2,1.1,1.9,1.1.2,0,.5,0,1,0,.4,0,.8-.1,1.2,0,.3,0,.6.2.8.5.2.5.2.9-.1,1.4-.5.5-.9.9-1.3,1.1-.3.2-1,.5-1.8.9-.9.4-1.4.7-1.6.7-2.1,1.2-3.8,2.5-5,3.9-2.3,2.5-4,3.6-5.1,3.4-.4,0-.8-.4-1-.8,0-.1,0-.4,0-.7.1-.4.3-.8.5-1.2.2-.4.3-.7.4-.9.3-.8.5-2,.5-3.5.1-3.2-.6-6.8-2.3-10.7-1.7-3.9-3.5-6.7-5.3-8.2-1.1-.8-2.4-1-3.8-.5-1,.3-2.2,1.2-3.4,2.5-1.3,1.4-2,2.7-2.2,4-.3,1.7-.2,3.1.2,4.4.4,1.2,1.4,3.1,3.1,5.5.4.6,1.4,2,2.9,4,1.5,2,2.7,3.8,3.7,5.2,2,3,3,5.3,2.9,7,0,1.6-1.1,3.2-3,4.8-1.6,1.3-3.4,2.3-5.3,3.1-1.9.8-3.5,1.3-4.7,1.4-3.6-.8-8-1.5-13-2.1-1.8-.9-3.7-2.5-5.6-5-2.6-3-4.6-6.9-6.1-11.7l-1.6-4.4c-.5-1.3-1.1-2-2-2.1-.4,0-1.3,0-2.8.3-.5,0-.9,0-1.4-.2-.5-.2-.7-.4-.9-.8-.2-.8.5-1.6,2.2-2.3Z"/>
    <path class="cls-4" d="M212.7,553.3c-.8,1.1-2.1,2.3-3.7,3.6-1.6,1.3-2.8,2.4-3.4,3.3l-.9,1.1c-1.2,1.6-2.2,2.1-2.9,1.6-.4-.3-.4-1.6.1-3.8.4-1.7-.2-3.5-1.7-5.2-1.5-1.8-4-3.9-7.4-6.5l-3.8-2.8c-1.4,1.3-3.4,3.6-6.1,7.2l-2.1,2.8,7.6,5.9c1.3,1.1,2.6,2,3.9,2.7,1.3.7,2.3,1.3,3.2,1.7.8.4,1.3.6,1.5.7.4.3.4.6.1,1-.3.4-.9.9-1.8,1.4-1.3.7-2.2,1.1-2.8,1.2-.5,0-1,0-1.3-.3,0,0-.7-.7-2.1-2.1-1.3-1.4-2.7-2.5-4-3.5l-6.8-5.1c-4.9,6.5-8,10.9-9.3,13.1l7.6,6.2c4.9,4,9,5.9,12.3,5.7.5,0,1.2-.1,2-.3.8-.2,1.5-.2,1.9-.2.5,0,.8,0,1.1.3.3.2.4.5.4.8,0,.4,0,.7-.3,1-.2.2-.5.4-1,.6-.5.2-1.2.4-2.2.7-1,.3-1.5.4-1.7.5l-1.9.6c-.5.2-1.5.5-2.8.9-1.3.4-2.3.8-3,1-2-.7-4-1.9-6.1-3.4-1-.8-3.4-2.9-7.2-6.4-3.8-3.5-6.8-6-9-7.7-1-.7-2.2-1.4-3.5-2-1.4-.6-2.2-1-2.5-1.3-.7-.5-.8-1-.4-1.6.4-.5,1.5-.9,3.2-1.1,1.7-.2,3.1-.7,4.1-1.6.5-.4,1.6-1.7,3.3-3.8,4-5.1,8.6-11.3,13.9-18.6,1.4-2,2.3-3.6,2.7-4.9.4-1.3.3-2.6-.3-4-.1-.3-.3-.6-.5-1-.2-.4-.3-.7-.4-.9-.1-.2-.2-.5-.3-.7,0-.3,0-.5,0-.7,0-.2,0-.4.2-.5.5-.6,1.1-.6,1.9,0,.5.3,1.1.9,2.1,1.8.9.8,1.4,1.3,1.5,1.3l21.6,16.2c2.5,2,4.4,2.8,5.7,2.4.9-.2,1.5-.2,1.9,0,.6.5.4,1.3-.5,2.6Z"/>
    <path class="cls-4" d="M223.7,599.7c-.9,3.1-1.3,5.7-1.3,7.6,0,0,0,.5,0,1.3,0,.8,0,1.3,0,1.4-.2.6-.6.7-1.3.5l-2-1.2c-1.4-.8-3.3-1.7-5.8-2.7-1.9-.8-3.7-1.2-5.3-1.5-1.6-.2-2.4-.4-2.5-.4-.6-.2-.7-.6-.5-1.3.1-.3.3-.5.7-.6,1.8-.9,3.2-1.8,4.2-2.7,1-.9,2-2.4,2.9-4.5,1.6-3.3,3.4-7.5,5.3-12.6,2-5.2,3.5-9.5,4.5-13,.6-2-.2-4.7-2.5-8.2-.7-1.1-1-1.9-.8-2.5.3-.8.9-1.1,1.7-.8.1,0,.9.5,2.2,1.4,1.3.9,2.9,1.7,4.8,2.4,2.2.9,5.6,1.9,10.3,3.1,4.7,1.2,8.2,2.3,10.5,3.2,1.6.6,3,1.2,3.9,1.6,1,.5,2,1.1,3.1,1.9,1.1.8,1.9,1.6,2.3,2.5.5.9.7,2,.8,3.3,0,1.3-.2,2.8-.9,4.4-1.2,3.2-2.7,5.8-4.5,7.7-1.7,2-5.3,3-10.7,3.1l5.9,20.8c.4,1.5,1,2.8,1.7,4,.8,1.2,1.3,2.1,1.7,2.7.4.6.5,1.1.4,1.5-.2.6-.7.7-1.5.4-.2,0-1-.6-2.5-1.5-1.5-.9-3.3-1.8-5.3-2.6-.4-.1-1-.3-1.8-.6-.9-.3-1.5-.5-2-.7-.4-.2-.7-.3-.9-.4-.2-.1-.5-.3-.7-.6-.2-.3-.4-.5-.4-.6,0-.2-.2-.5-.3-.9-.1-.5-.2-.8-.2-1.2,0-.3-.1-.9-.3-1.7-.2-.8-.3-1.5-.3-2.1l-3.2-17.6c-.2-1.6-.3-2.5-.3-2.7.2-.5.8-.8,1.7-.8,2.9,0,5.1-.4,6.6-1,1.5-.6,2.7-2.1,3.6-4.5.4-1.1.7-2.1.9-3.1.2-1,.3-2.1.3-3.3,0-1.2-.3-2.3-.8-3.2-.5-.9-1.4-1.6-2.5-2.1-1.6-.6-4-1-7.3-1.2-1.7,3.5-4,9.1-6.9,16.8-2.6,6.6-4.1,10.9-4.6,12.7Z"/>
    <path class="cls-4" d="M311.2,602.6c3.6-6.3,5.5-10.8,5.7-13.7.1-1.3-.4-2.3-1.5-2.9s-2.4-1.1-3.9-1.2c-.3,0-.8,0-1.5,0-.7,0-1.3,0-1.8,0-.8,0-1.1-.4-1-1.1,0-.4.3-.7.7-1.1,1.6-1.1,3.4-1.8,5.5-2.2,1-.2,1.9-.3,2.7-.3.8,0,1.9.5,3.2,1.2,1.3.8,2.6,1.3,3.7,1.6,1.1.3,1.9.6,2.3.8.4.2.8.5,1.1,1.1.3.5.4,1.3.3,2.2-.1,1.6-1,3.9-2.5,6.9-3.7,7.2-9.3,15.8-16.6,25.8-3.9,5.4-6.8,8.5-8.6,9.2-1.2.5-3.4.6-6.5.4-.8,0-1.5-.6-2-1.5-.5-.9-1.2-2.6-2-5-4.2-12.3-9.5-25.1-15.8-38.7-.2-.4-.6-1-1.1-1.9-.5-.9-.9-1.6-1.1-2.2-.3-.6-.4-1.1-.3-1.5,0-.8.8-1.1,2.2-1,.6,0,1.6.2,3.2.5,1.5.3,3.6.5,6.3.7,1.6.1,3.2.2,5.1.1,1.8,0,2.9,0,3.4,0,1.2,0,1.7.5,1.7,1.3,0,.4-.5.8-1.3,1.2-.8.4-1.6.8-2.5,1.3-.8.5-1.3,1.2-1.4,2.1-.3,3.5,1.6,10.1,5.5,19.8,2.4,5.9,4.7,10.9,7,15.1,5.1-6.4,9-12,11.8-16.9Z"/>
    <path class="cls-4" d="M358.2,615.2c.8,3.1,1.7,5.5,2.6,7.2,0,0,.2.5.6,1.1.4.6.6,1,.7,1.2,0,.7-.2,1-.8,1.1-.1,0-.5,0-1.2,0-.6,0-1-.1-1,0-1.5,0-3.7.2-6.6.6-1.7.3-3.1.5-4.1.9-1.1.3-1.8.6-2.3.9-.5.3-.8.4-1,.4-.8.1-1.2-.1-1.3-.8,0-.3,0-.6.3-.9,1.3-1.8,2.1-3.4,2.4-4.7.3-1.3.4-3,.2-5.1-.2-3.1-.7-7.6-1.6-13.6-.8-5.5-1.7-10-2.5-13.5-.5-2.2-1.5-3.8-3-4.6-.3-.2-1.7-.9-4.4-2.3-.5-.2-.7-.5-.8-.8-.1-.8.3-1.3,1.2-1.4.2,0,.8,0,1.8,0,2.2-.2,4.9-.5,8-1,3.7-.6,6-1.1,7.1-1.7,1-.5,1.7-.8,2.1-.8.7-.1,1.1.1,1.2.7,0,.2,0,.5,0,.7,0,.3-.2.5-.2.6,0,.2-.2.4-.4.7-.2.3-.4.6-.4.7-.6,1.2-.8,3.8-.6,7.7.2,2.7.9,7.5,1.9,14.7.9,5.9,1.6,9.9,2.1,12Z"/>
    <path class="cls-4" d="M393.5,565c4.6-1.7,8.1-2.8,10.6-3.1,2.5-.3,4.1.3,4.7,2,.1.3.3.9.5,1.7.2.8.4,1.5.6,2l1.6,4.1s.2.5.7,1.5c.4.9.8,1.7,1,2.2.4,1.2.3,1.9-.5,2.2-.5.2-.9.2-1.3,0-.4-.2-.8-.6-1.2-1.2-.4-.6-.7-1-.9-1.1-2-1.7-5-2.6-9.1-2.6-4,0-7.6.6-10.8,1.8-3.5,1.3-5.4,2.9-5.9,4.8-.5,2.1,0,5,1.4,8.8,1,2.6,2.2,5.1,3.8,7.7,1.5,2.6,2.9,4.5,4.1,5.8,2.4,2.7,5.4,4.5,8.8,5.5,3.5,1,6.9.8,10.2-.5,2.1-.8,4-1.8,5.6-3,1.7-1.2,2.9-2.3,3.8-3.2.9-.9,1.4-1.4,1.6-1.5,1-.4,1.6-.2,1.9.6.1.3.1.6,0,.9l-.7.9-2,2.6c-.9,1.1-1.6,2.1-2.2,2.9-.7.9-1.5,2.1-2.6,3.4-1.9,1.3-4.3,2.5-7,3.5-3.6,1.4-7.4,2.1-11.5,2.1-4,0-7.8-1-11.5-2.9-5.3-2.8-9.2-7.4-11.6-13.8-1.2-3.1-1.9-6.4-2.2-9.7-.2-3,1.2-6.6,4.3-11,3.1-4.4,6-7.6,8.7-9.7,1.4-1.1,3.8-2.3,7.2-3.6Z"/>
    <path class="cls-4" d="M449.1,532.6c.8,1.1,1.6,2.6,2.4,4.6.8,2,1.5,3.4,2.2,4.2l.8,1.1c1.2,1.6,1.4,2.7.7,3.2-.4.3-1.6,0-3.6-1.2-1.5-.9-3.4-.8-5.5.1-2.1,1-4.9,2.7-8.3,5.2l-3.8,2.8c.8,1.7,2.5,4.3,5.1,7.9l2.1,2.8,7.8-5.6c1.4-.9,2.7-1.9,3.7-2.9,1.1-1,1.9-1.8,2.5-2.5.6-.7,1-1.1,1.1-1.2.4-.3.7-.2,1,.1.3.4.6,1.1.8,2.2.3,1.4.4,2.5.3,3,0,.5-.3.9-.6,1.2,0,0-.9.5-2.6,1.4-1.7.9-3.2,1.8-4.5,2.8l-6.9,5.1c4.8,6.5,8.1,10.8,9.8,12.7l8.1-5.5c5.3-3.6,8.3-6.9,9-10.1.1-.5.2-1.2.3-2,0-.8.2-1.5.3-1.9.1-.5.3-.8.6-1,.3-.2.6-.3.9-.2.3,0,.6.3.9.6.2.2.3.6.3,1.1,0,.5,0,1.3,0,2.3,0,1,0,1.6,0,1.7v2c0,.6,0,1.5,0,2.9,0,1.4,0,2.4.1,3.1-1.3,1.7-3,3.3-5.1,4.9-1,.8-3.8,2.4-8.2,5-4.4,2.6-7.7,4.7-10,6.4-1,.7-2,1.7-2.9,2.8-1,1.1-1.6,1.8-2,2.1-.7.5-1.2.5-1.6,0-.4-.5-.4-1.7-.1-3.4.3-1.7.2-3.2-.3-4.4-.3-.6-1.2-2-2.7-4.3-3.7-5.3-8.3-11.5-13.8-18.7-1.5-2-2.8-3.3-3.9-4-1.1-.7-2.4-1-3.9-.8-.3,0-.7.1-1.1.2-.4,0-.7.1-1,.1-.2,0-.5,0-.8,0-.3,0-.5,0-.7-.1-.2,0-.3-.2-.4-.3-.4-.6-.3-1.2.6-1.8.5-.3,1.2-.8,2.3-1.5,1.1-.6,1.6-1,1.7-1l21.7-16c2.6-1.8,3.9-3.4,4-4.8,0-.9.2-1.5.6-1.8.6-.4,1.4,0,2.4,1.3Z"/>
    <path class="cls-4" d="M494.2,553.8c-2-2.3-3.8-4.1-5.3-5.4-1.9-1.5-3.8-2.9-5.6-4-.8-.6-.9-1.2-.4-1.9.3-.4,1.3-.7,3-1l1.9-.4c4.1-.8,8-2,11.5-3.8,3.5-1.8,6.3-4,8.3-6.5,1.7-2.1,2.5-3.8,2.5-5.3,0-1.5-.8-2.8-2.4-4.1-1.8-1.5-3.5-2.3-4.9-2.5-1-.2-2.2.1-3.7,1-1.5.9-2.9,2.1-4.3,3.6-.6.6-1.9,2-3.9,4.1-2,2.1-3.7,3.9-5,5.3-3.5,4-6.2,5.7-8.2,4.9-1.5-.3-3.6-1.7-6.3-4-2.7-2.3-4.3-4.3-4.7-5.9-.5-1.7-.5-4.4,0-8.1.4-3.7,1.1-6.4,1.9-8,1.1-2.1,2.4-4.2,4-6.2,1.2-1.4,2.7-3.1,4.5-4.9.2-.2.9-.8,1.9-1.7,1-.9,1.7-1.6,2.1-2,.6-.7.8-1.4.7-2.1,0-.2-.1-.5-.3-.9-.2-.4-.3-.8-.3-1.1,0-.3,0-.6.3-.8.4-.3.9-.4,1.3-.2.6.4,1.1.7,1.3,1,.3.3.7.8,1.3,1.6.6.8,1,1.2,1.1,1.4,1.7,1.8,3.3,3.1,4.9,4,2.9,1.6,4.4,3,4.5,4.2,0,.4-.2.8-.6,1.2-.1,0-.4.1-.7,0-.4,0-.8,0-1.3-.2-.5-.1-.8-.2-1-.2-.9-.1-2.1,0-3.5.3-3.1.6-6.4,2.1-9.9,4.7-3.5,2.5-5.7,4.9-6.8,7-.6,1.2-.5,2.5.4,3.9.5.9,1.6,1.8,3.2,2.8,1.6.9,3.1,1.3,4.4,1.3,1.7-.1,3.1-.5,4.2-1.2,1.1-.7,2.7-2.1,4.7-4.3.5-.6,1.6-1.8,3.2-3.7,1.6-1.9,3.1-3.5,4.2-4.8,2.5-2.6,4.5-4.1,6.1-4.4,1.6-.3,3.4.3,5.3,1.9,1.6,1.3,3,2.8,4.2,4.4,1.2,1.7,2,3.1,2.4,4.3,0,3.7.4,8.1.9,13.2-.5,1.9-1.7,4.1-3.6,6.6-2.4,3.2-5.7,6.1-10,8.6l-4,2.6c-1.1.7-1.7,1.5-1.6,2.4,0,.4.4,1.3.9,2.7.2.5.2.9.2,1.4,0,.5-.3.8-.5,1-.7.4-1.7-.1-2.8-1.6Z"/>
  </g>
</svg>