<?xml version="1.0" encoding="utf-8"?>
<!-- Generator: Adobe Illustrator 24.2.2, SVG Export Plug-In . SVG Version: 6.00 Build 0)  -->
<svg version="1.1" id="Layer_1" xmlns="http://www.w3.org/2000/svg" xmlns:xlink="http://www.w3.org/1999/xlink" x="0px" y="0px"
	 viewBox="0 0 288 32.4" style="enable-background:new 0 0 288 32.4;" xml:space="preserve">
<style type="text/css">
	.st0{fill:#FFFFFF;}
	.st1{fill:#D08A20;}
	.st2{fill:#58595B;}
</style>
<g>
	<g>
		<g>
			<path class="st0" d="M13.5,0.7c0.3,0.2,12.4,5.9,12.7,6.1c0,0.3,0,17.4,0,17.8c-0.3,0.2-12.4,5.9-12.8,6
				C13.1,30.5,1,24.7,0.7,24.5c0-0.3,0-17.4,0-17.8C1,6.6,13.1,0.9,13.5,0.7z"/>
		</g>
	</g>
	<g>
		<polygon class="st1" points="13.4,29 2,23.7 2.1,7.5 13.4,12.8 		"/>
		<path d="M13.4,29.2C13.4,29.2,13.3,29.2,13.4,29.2L2,23.9c-0.1,0-0.1-0.1-0.1-0.2l0-16.3c0-0.1,0-0.1,0.1-0.2c0.1,0,0.1,0,0.2,0
			l11.4,5.3c0.1,0,0.1,0.1,0.1,0.2l0,16.3c0,0.1,0,0.1-0.1,0.2C13.5,29.2,13.4,29.2,13.4,29.2z M2.2,23.6l11,5.1l0-15.8l-11-5.1
			L2.2,23.6z"/>
	</g>
	<g>
		<polygon class="st1" points="24.8,23.8 13.4,29 13.4,12.8 24.8,7.5 		"/>
		<path d="M13.4,29.2c0,0-0.1,0-0.1,0c-0.1,0-0.1-0.1-0.1-0.2l0-16.3c0-0.1,0-0.1,0.1-0.2l11.4-5.3c0.1,0,0.1,0,0.2,0
			C25,7.4,25,7.5,25,7.5l0,16.3c0,0.1,0,0.1-0.1,0.2L13.4,29.2C13.4,29.2,13.4,29.2,13.4,29.2z M13.6,12.9l0,15.8l11-5.1l0-15.8
			L13.6,12.9z"/>
	</g>
	<g>
		<polygon class="st1" points="24.8,7.5 13.4,12.8 2.1,7.5 13.5,2.2 		"/>
		<path d="M13.4,13C13.4,13,13.4,13,13.4,13L2,7.6c-0.1,0-0.1-0.1-0.1-0.2c0-0.1,0-0.1,0.1-0.2L13.4,2c0.1,0,0.1,0,0.2,0l11.4,5.3
			C25,7.4,25,7.5,25,7.5c0,0.1,0,0.1-0.1,0.2L13.4,13C13.5,13,13.5,13,13.4,13z M2.5,7.5l10.9,5.1l10.9-5L13.5,2.4L2.5,7.5z"/>
	</g>
	<g>
		<g>
			<path d="M13.4,31.3c-0.1,0-0.1,0-0.2,0c-0.2-0.1-6.3-3-10-4.8l-3-1.4C0.1,25,0,24.8,0,24.7L0,6.6c0-0.1,0.1-0.3,0.2-0.3
				C0.6,6,13,0.2,13.3,0c0.1,0,0.2,0,0.3,0c0.3,0.1,10.5,5,12.6,6.1l0.4,0.2c0.1,0.1,0.2,0.2,0.2,0.3l0,18.1c0,0.1-0.1,0.3-0.2,0.3
				c-0.3,0.2-12.7,6-13,6.2C13.5,31.3,13.4,31.3,13.4,31.3z M0.8,24.5l2.7,1.3c3.5,1.7,8.9,4.2,9.9,4.7c1.4-0.7,11-5.2,12.7-6
				l0-17.7l-0.2-0.1c-2-1-11.1-5.3-12.5-6c-1.4,0.7-11,5.2-12.7,6L0.8,24.5z"/>
		</g>
	</g>
	<g>
		<path class="st2" d="M183.2,25.7l1.1,0c1,0,2.3,0,1.9,1.3c-0.2,0.6-0.7,1-1.3,1.1l0,0c0.3,0,0.3,0.3,0.4,0.5l0.2,1.9l-1.1,0
			l-0.2-1.5c0-0.4-0.1-0.5-0.5-0.5l-0.3,0l-0.6,2l-1,0L183.2,25.7z M183.6,27.8l0.3,0c0.5,0,1.1-0.1,1.2-0.7
			c0.2-0.6-0.4-0.6-0.9-0.6H184L183.6,27.8z"/>
		<path class="st2" d="M189.1,30.4c-0.4,0.2-0.8,0.3-1.3,0.3c-1.2,0-1.7-0.7-1.4-1.9c0.3-1,1.1-1.9,2.2-1.9c1.3,0,1.5,0.9,1.1,2.2
			l-2.5,0c-0.1,0.6,0.2,0.9,0.8,0.9c0.5,0,0.9-0.2,1.3-0.4L189.1,30.4z M189,28.5c0.1-0.5,0-0.8-0.5-0.8c-0.5,0-0.9,0.4-1.1,0.8
			L189,28.5z"/>
		<path class="st2" d="M194.3,27l-0.9,3.3c-0.3,1-0.9,1.9-2.4,1.9c-0.4,0-0.8-0.1-1.2-0.2l0.3-0.8c0.2,0.2,0.7,0.3,1,0.3
			c1,0,1.3-0.8,1.5-1.4h0c-0.3,0.3-0.8,0.6-1.3,0.6c-1.1,0-1.2-0.9-1-1.8c0.2-0.9,1-1.9,2.1-1.9c0.5,0,0.8,0.2,0.9,0.6h0l0.1-0.5
			L194.3,27z M192.9,28.8c0.2-0.6,0.1-1.1-0.5-1.1c-0.6,0-1,0.6-1.2,1.1c-0.1,0.5-0.1,1.1,0.5,1.1C192.3,29.9,192.7,29.4,192.9,28.8
			z"/>
		<path class="st2" d="M195.3,27l0.9,0l-1,3.6l-0.9,0L195.3,27z M195.8,25.5l0.9,0l-0.3,0.9l-0.9,0L195.8,25.5z"/>
		<path class="st2" d="M199.2,27.8c-0.3-0.1-0.5-0.2-0.8-0.2c-0.3,0-0.6,0.1-0.7,0.4c-0.2,0.6,1.6,0.2,1.2,1.5
			c-0.2,0.8-1.1,1.2-1.8,1.2c-0.4,0-0.7-0.1-1-0.2l0.3-0.8c0.3,0.1,0.5,0.2,0.9,0.2c0.2,0,0.6-0.1,0.7-0.4c0.2-0.7-1.6-0.2-1.2-1.5
			c0.2-0.8,1-1.1,1.7-1.1c0.4,0,0.7,0.1,1,0.1L199.2,27.8z"/>
		<path class="st2" d="M200.5,27.7l-0.7,0l0.2-0.7l0.7,0l0.2-0.7l1-0.3l-0.3,1l0.8,0l-0.2,0.7l-0.8,0l-0.5,1.7
			c-0.1,0.3-0.1,0.6,0.3,0.6c0.2,0,0.3,0,0.5-0.1l-0.2,0.7c-0.2,0.1-0.4,0.1-0.7,0.1c-0.7,0-1-0.5-0.8-1.2L200.5,27.7z"/>
		<path class="st2" d="M205,30.5c-0.4,0.2-0.8,0.3-1.3,0.3c-1.2,0-1.7-0.7-1.4-1.9c0.3-1,1.1-1.9,2.2-1.9c1.3,0,1.5,0.9,1.1,2.2
			l-2.5,0c-0.1,0.6,0.2,0.9,0.8,0.9c0.5,0,0.9-0.2,1.3-0.4L205,30.5z M204.9,28.5c0.1-0.5,0-0.8-0.5-0.8c-0.5,0-0.9,0.4-1.1,0.8
			L204.9,28.5z"/>
		<path class="st2" d="M207,27.1l0.8,0l-0.2,0.8h0c0.1-0.3,0.7-0.9,1.2-0.9c0.1,0,0.2,0,0.3,0l-0.3,0.9c-0.1,0-0.2-0.1-0.4-0.1
			c-0.8,0-1,1-1.2,1.5l-0.4,1.3l-0.9,0L207,27.1z"/>
		<path class="st2" d="M211.5,30.5c-0.4,0.2-0.8,0.3-1.3,0.3c-1.2,0-1.7-0.7-1.4-1.9c0.3-1,1.1-1.9,2.2-1.9c1.3,0,1.5,0.9,1.1,2.2
			l-2.5,0c-0.1,0.6,0.2,0.9,0.8,0.9c0.5,0,0.9-0.2,1.3-0.4L211.5,30.5z M211.4,28.5c0.1-0.5,0-0.8-0.5-0.8c-0.5,0-0.9,0.4-1.1,0.8
			L211.4,28.5z"/>
		<path class="st2" d="M214.9,30.3L214.9,30.3c-0.4,0.3-0.8,0.5-1.3,0.5c-1.1,0-1.3-0.9-1-1.9c0.3-1,0.9-1.9,2-1.9
			c0.5,0,0.8,0.2,0.9,0.5h0l0.6-2.1l0.9,0l-1.5,5.3l-0.9,0L214.9,30.3z M214.1,30.1c0.6,0,1-0.7,1.2-1.2c0.1-0.5,0.1-1.2-0.5-1.2
			c-0.6,0-1,0.7-1.1,1.1C213.5,29.4,213.5,30,214.1,30.1z"/>
		<path class="st2" d="M219.8,27.8l-0.7,0l0.2-0.7l0.7,0l0.2-0.7l1-0.3l-0.3,1l0.8,0l-0.2,0.7l-0.8,0l-0.5,1.7
			c-0.1,0.3-0.1,0.6,0.3,0.6c0.2,0,0.3,0,0.5-0.1l-0.2,0.7c-0.2,0.1-0.4,0.1-0.7,0.1c-0.7,0-1-0.5-0.8-1.2L219.8,27.8z"/>
		<path class="st2" d="M222.4,27.1l0.8,0l-0.2,0.8h0c0.1-0.3,0.7-0.9,1.2-0.9c0.1,0,0.2,0,0.3,0l-0.3,0.9c-0.1,0-0.2-0.1-0.4-0.1
			c-0.8,0-1,1-1.2,1.5l-0.4,1.3l-0.9,0L222.4,27.1z"/>
		<path class="st2" d="M225.2,27.3c0.4-0.2,0.9-0.3,1.3-0.3c1.1,0,1.4,0.5,1.1,1.5l-0.1,0.5c-0.1,0.4-0.2,0.6-0.2,0.9
			c-0.1,0.3-0.1,0.5-0.2,0.8l-0.8,0c0-0.2,0.1-0.4,0.1-0.5h0c-0.3,0.4-0.9,0.6-1.3,0.6c-0.6,0-1.1-0.4-1-1.1c0.2-0.5,0.5-0.9,0.9-1
			c0.4-0.2,0.9-0.2,1.3-0.2l0.5,0c0.2-0.6,0-0.8-0.6-0.8c-0.4,0-0.8,0.2-1.2,0.4L225.2,27.3z M225.5,30.1c0.3,0,0.5-0.1,0.7-0.3
			c0.2-0.2,0.3-0.5,0.4-0.7l-0.4,0c-0.4,0-1.1,0.1-1.2,0.6C225,30,225.2,30.1,225.5,30.1z"/>
		<path class="st2" d="M229,27.1l0.9,0l-1,3.6l-0.9,0L229,27.1z M229.4,25.6l0.9,0l-0.3,0.9l-0.9,0L229.4,25.6z"/>
		<path class="st2" d="M230.9,27.1l0.9,0l-0.1,0.5h0c0.4-0.4,0.9-0.6,1.3-0.6c0.9,0,1.1,0.6,0.8,1.4l-0.6,2.3l-0.9,0l0.5-1.9
			c0.1-0.4,0.3-1-0.3-1c-0.7,0-1,0.7-1.2,1.2l-0.5,1.8l-0.9,0L230.9,27.1z"/>
		<path class="st2" d="M235.2,27.1l0.9,0l-1,3.6l-0.9,0L235.2,27.1z M235.7,25.6l0.9,0l-0.3,0.9l-0.9,0L235.7,25.6z"/>
		<path class="st2" d="M237.2,27.1l0.9,0l-0.1,0.5h0c0.4-0.4,0.9-0.6,1.3-0.6c0.9,0,1.1,0.6,0.8,1.4l-0.6,2.3l-0.9,0l0.5-1.9
			c0.1-0.4,0.3-1-0.3-1c-0.7,0-1,0.7-1.2,1.2l-0.5,1.8l-0.9,0L237.2,27.1z"/>
		<path class="st2" d="M244.7,27.2l-0.9,3.3c-0.3,1-0.9,1.9-2.4,1.9c-0.4,0-0.8-0.1-1.2-0.2l0.3-0.8c0.2,0.2,0.7,0.3,1,0.3
			c1,0,1.3-0.8,1.5-1.4h0c-0.3,0.3-0.8,0.6-1.3,0.6c-1.1,0-1.2-0.9-1-1.8c0.2-0.9,1-1.9,2.1-1.9c0.5,0,0.8,0.2,0.9,0.6h0l0.1-0.5
			L244.7,27.2z M243.3,28.9c0.2-0.6,0.1-1.1-0.5-1.1c-0.6,0-1,0.6-1.2,1.1c-0.1,0.5-0.1,1.1,0.5,1.1C242.7,30,243.1,29.5,243.3,28.9
			z"/>
		<path class="st2" d="M249.3,27.1c1.1,0,1.7,0.7,1.3,1.9c-0.3,1-1.2,1.9-2.4,1.9c-1.2,0-1.6-0.8-1.4-1.9
			C247.2,27.8,248.3,27.1,249.3,27.1z M248.5,30.1c0.7,0,1.1-0.6,1.3-1.2c0.2-0.6,0-1.1-0.6-1.1c-0.6,0-1.1,0.5-1.2,1.1
			C247.7,29.5,247.7,30.1,248.5,30.1z"/>
		<path class="st2" d="M251.9,27.2l0.8,0l-0.2,0.8h0c0.1-0.3,0.7-0.9,1.2-0.9c0.1,0,0.2,0,0.3,0l-0.3,0.9c-0.1,0-0.2-0.1-0.4-0.1
			c-0.8,0-1,1-1.2,1.5l-0.4,1.3l-0.9,0L251.9,27.2z"/>
		<path class="st2" d="M257.9,27.2l-0.9,3.3c-0.3,1-0.9,1.9-2.4,1.9c-0.4,0-0.8-0.1-1.2-0.2l0.3-0.8c0.2,0.2,0.7,0.3,1,0.3
			c1,0,1.3-0.8,1.5-1.4h0c-0.3,0.3-0.8,0.6-1.3,0.6c-1.1,0-1.2-0.9-1-1.8c0.2-0.9,1-1.9,2.1-1.9c0.5,0,0.8,0.2,0.9,0.6h0l0.1-0.5
			L257.9,27.2z M256.5,29c0.2-0.6,0.1-1.1-0.5-1.1c-0.6,0-1,0.6-1.2,1.1c-0.1,0.5,0,1.1,0.5,1.1C256,30.1,256.3,29.6,256.5,29z"/>
		<path class="st2" d="M259,27.4c0.4-0.2,0.9-0.3,1.3-0.3c1.1,0,1.4,0.5,1.1,1.5l-0.1,0.5c-0.1,0.4-0.2,0.6-0.2,0.9
			c-0.1,0.3-0.1,0.5-0.2,0.8l-0.8,0c0-0.2,0.1-0.4,0.1-0.5h0c-0.3,0.4-0.9,0.6-1.3,0.6c-0.6,0-1.1-0.4-1-1.1c0.2-0.5,0.5-0.9,0.9-1
			c0.4-0.2,0.9-0.2,1.3-0.2l0.5,0c0.2-0.6,0-0.8-0.6-0.8c-0.4,0-0.8,0.2-1.2,0.4L259,27.4z M259.3,30.2c0.3,0,0.5-0.1,0.7-0.3
			c0.2-0.2,0.3-0.5,0.4-0.7l-0.4,0c-0.4,0-1.1,0.1-1.2,0.6C258.8,30.1,259,30.2,259.3,30.2z"/>
		<path class="st2" d="M262.8,27.2l0.9,0l-0.1,0.5h0c0.4-0.4,0.9-0.6,1.3-0.6c0.9,0,1.1,0.6,0.8,1.4l-0.6,2.3l-0.9,0l0.5-1.9
			c0.1-0.4,0.3-1-0.3-1c-0.7,0-1,0.7-1.2,1.2l-0.5,1.8l-0.9,0L262.8,27.2z"/>
		<path class="st2" d="M267.1,27.2l0.9,0l-1,3.6l-0.9,0L267.1,27.2z M267.5,25.7l0.9,0l-0.3,0.9l-0.9,0L267.5,25.7z"/>
		<path class="st2" d="M270.9,28c-0.3-0.1-0.5-0.2-0.8-0.2c-0.3,0-0.6,0.1-0.7,0.4c-0.2,0.6,1.6,0.2,1.2,1.5
			c-0.2,0.8-1.1,1.2-1.8,1.2c-0.4,0-0.7-0.1-1-0.2l0.3-0.8c0.3,0.1,0.5,0.2,0.9,0.2c0.2,0,0.6-0.1,0.7-0.4c0.2-0.7-1.6-0.2-1.2-1.5
			c0.2-0.8,1-1.1,1.7-1.1c0.4,0,0.7,0.1,1,0.1L270.9,28z"/>
		<path class="st2" d="M272.2,27.4c0.4-0.2,0.9-0.3,1.3-0.3c1.1,0,1.4,0.5,1.1,1.5l-0.1,0.5c-0.1,0.4-0.2,0.6-0.2,0.9
			c-0.1,0.3-0.1,0.5-0.2,0.8l-0.8,0c0-0.2,0.1-0.4,0.1-0.5h0c-0.3,0.4-0.9,0.6-1.3,0.6c-0.6,0-1.1-0.4-1-1.1c0.2-0.5,0.5-0.9,0.9-1
			c0.4-0.2,0.9-0.2,1.3-0.2l0.5,0c0.2-0.6,0-0.8-0.6-0.8c-0.4,0-0.8,0.2-1.2,0.4L272.2,27.4z M272.5,30.2c0.3,0,0.5-0.1,0.7-0.3
			c0.2-0.2,0.3-0.5,0.4-0.7l-0.4,0c-0.4,0-1.1,0.1-1.2,0.6C272,30.1,272.2,30.2,272.5,30.2z"/>
		<path class="st2" d="M276.1,27.9l-0.7,0l0.2-0.7l0.7,0l0.2-0.7l1-0.3l-0.3,1l0.8,0l-0.2,0.7l-0.8,0l-0.5,1.7
			c-0.1,0.3-0.1,0.6,0.3,0.6c0.2,0,0.3,0,0.5-0.1l-0.2,0.7c-0.2,0.1-0.4,0.1-0.7,0.1c-0.7,0-1-0.5-0.8-1.2L276.1,27.9z"/>
		<path class="st2" d="M278.8,27.2l0.9,0l-1,3.6l-0.9,0L278.8,27.2z M279.2,25.7l0.9,0l-0.3,0.9l-0.9,0L279.2,25.7z"/>
		<path class="st2" d="M282.4,27.2c1.1,0,1.7,0.7,1.3,1.9c-0.3,1-1.2,1.9-2.4,1.9c-1.2,0-1.6-0.8-1.4-1.9
			C280.3,27.9,281.3,27.2,282.4,27.2z M281.5,30.2c0.7,0,1.1-0.6,1.3-1.2c0.2-0.6,0-1.1-0.6-1.1c-0.6,0-1.1,0.5-1.2,1.1
			C280.8,29.6,280.8,30.2,281.5,30.2z"/>
		<path class="st2" d="M285,27.3l0.9,0l-0.1,0.5h0c0.4-0.4,0.9-0.6,1.3-0.6c0.9,0,1.1,0.6,0.8,1.4l-0.6,2.3l-0.9,0l0.5-1.9
			c0.1-0.4,0.3-1-0.3-1c-0.7,0-1,0.7-1.2,1.2l-0.5,1.8l-0.9,0L285,27.3z"/>
	</g>
	<path class="st1" d="M47,9.6l11.3,0l0,3.1l-6.4,0l0,1.8l6.1,0l0,3.1l-6.1,0l0,1.8l6.5,0l0,3.1l-11.4,0L47,9.6z"/>
	<path class="st1" d="M59.3,9.6l8.1,0c3.1,0,5,1,5,3.5c0,2-1.3,3-3.1,3.4v0c1.1,0.2,1.7,0.7,2.2,1.4c0.8,1.4,0.7,3.4,1.2,4.7l-5.2,0
		c-0.2-0.9-0.3-3-0.7-3.7c-0.3-0.6-0.8-0.7-1.4-0.7l-1.1,0l0,4.4l-5,0L59.3,9.6z M64,15.3l1.3,0c1,0,2-0.1,2-1.4
		c0-1.2-0.9-1.3-2-1.3l-1.4,0L64,15.3z"/>
	<path class="st1" d="M73.2,9.7l11.1,0l0,3.1l-6.1,0l0,2.1l6,0l0,3.1l-6,0l0,4.6l-5,0L73.2,9.7z"/>
	<path class="st1" d="M92.4,23c-4.5,0-7.2-2.3-7.2-6.7c0-4.4,2.7-6.7,7.2-6.7c4.5,0,7.3,2.4,7.2,6.7C99.7,20.7,96.9,23,92.4,23z
		 M92.4,19.8c2,0,2-2.2,2.1-3.6c0-1.2-0.1-3.6-2-3.6c-1.8,0-2,2.4-2,3.6C90.4,17.6,90.6,19.8,92.4,19.8z"/>
	<path class="st1" d="M100.8,9.8l8.1,0c3.1,0,5,1,5,3.5c0,2-1.3,3-3.1,3.4v0c1.1,0.2,1.7,0.7,2.2,1.4c0.8,1.4,0.7,3.4,1.2,4.7
		l-5.2,0c-0.2-0.9-0.3-3-0.7-3.7c-0.3-0.6-0.8-0.7-1.4-0.7l-1.1,0l0,4.4l-5,0L100.8,9.8z M105.6,15.4l1.3,0c1,0,2-0.1,2-1.4
		c0-1.2-0.9-1.3-2-1.3l-1.4,0L105.6,15.4z"/>
	<path class="st1" d="M114.9,9.8l7.4,0l1.7,7.1l0,0l1.7-7.1l7.4,0l0,13l-4.5,0l0-10.2l0,0l-2.6,10.2l-4.2,0l-2.5-10.2l-0.1,0
		l-0.1,10.2l-4.2,0L114.9,9.8z"/>
	<path class="st1" d="M137.2,9.8l6.9,0l4.6,13l-5.2,0l-0.8-2.8l-4.2,0l-0.8,2.8l-5,0L137.2,9.8z M139.1,16.9l2.9,0l-1.4-4.3h0
		L139.1,16.9z"/>
	<path class="st1" d="M148.3,9.9l7.5,0l2.4,9.2h0l0-9.2l4.3,0l0,13l-7.3,0l-2.5-9.4h0l0,9.4l-4.3,0L148.3,9.9z"/>
	<path class="st1" d="M175,22.6c-0.9,0.3-2.3,0.5-3.6,0.5c-4.3,0-7.8-2.3-7.8-6.9c0-4.4,3.6-6.5,7.8-6.5c1.4,0,2.2,0.2,3.5,0.4
		l0,3.4c-0.8-0.3-1.7-0.5-2.5-0.5c-2.1,0-3.7,1.1-3.7,3.2c0,2.2,1.5,3.4,3.5,3.4c0.9,0,1.8-0.2,2.7-0.5L175,22.6z"/>
	<path class="st1" d="M176.1,9.9l10.2,0l1,1.7l0,1.4l-6.4,0l0,1.8l6.1,0l0,3.1l-6.1,0l0,1.8l6.5,0l0,3.1l-11.4,0L176.1,9.9z"/>
	<path d="M203.6,13.8l-6,0l0,9.2l-5,0l0-9.2l-4.4,0l0-2l-1-1.9l16.4,0L203.6,13.8z"/>
	<path d="M203,10l8.1,0c3.1,0,5,1,5,3.5c0,2-1.3,3-3.1,3.4v0c1.1,0.2,1.7,0.7,2.2,1.4c0.8,1.4,0.7,3.4,1.2,4.7l-5.2,0
		c-0.2-0.9-0.3-3-0.7-3.7c-0.3-0.6-0.8-0.7-1.4-0.7l-1.1,0l0,4.4l-5,0L203,10z M207.8,15.7l1.3,0c1,0,2-0.1,2-1.4
		c0-1.2-0.9-1.3-2-1.3l-1.4,0L207.8,15.7z"/>
	<path d="M220.5,10l6.9,0l4.6,13l-5.2,0l-0.8-2.8l-4.2,0l-0.8,2.8l-5,0L220.5,10z M222.4,17.1l2.9,0l-1.4-4.3l0,0L222.4,17.1z"/>
	<path d="M236.6,10.1l0,13l-5,0l0-13L236.6,10.1z"/>
	<path d="M237.9,10.1l7.5,0l2.4,9.2h0l0-9.2l4.3,0l0,13l-7.3,0l-2.5-9.4h0l0,9.4l-4.3,0L237.9,10.1z"/>
	<path d="M258.3,10.1l0,13l-5,0l0-13L258.3,10.1z"/>
	<path d="M259.6,10.1l7.5,0l2.4,9.2l0,0l0-9.2l4.3,0l0,13l-7.3,0l-2.5-9.4h0l0,9.4l-4.3,0L259.6,10.1z"/>
	<path d="M287.6,22.7c-1.7,0.5-3.3,0.7-5.4,0.7c-4.3,0-7.8-2.3-7.8-6.9c0-4.4,3.6-6.5,7.8-6.5c2.4,0,3.6,0.2,4.9,0.5l0,3.5
		c-0.7-0.4-2-0.7-3.4-0.8c-2.5,0-4.1,1.2-4.1,3.6c0,1.8,0.7,3.4,2.7,3.4c0.4,0,0.8,0,1.1-0.1l0-3.5l4.3,0L287.6,22.7z"/>
	<path class="st0" d="M34.5,9.6l8.6,0c2,0,4.8,1,4.8,4.5c0,3.4-2.2,4.8-4.8,4.8l-3.6,0l0,3.7l-5,0L34.5,9.6z M39.3,15.8l1.1,0
		c1.2,0,2.4-0.2,2.4-1.7c0-1.4-1.2-1.5-2.4-1.6l-1.1,0L39.3,15.8z"/>
	<path class="st1" d="M33.4,9.6l8.6,0c2,0,4.8,1,4.8,4.5c0,3.4-2.2,4.8-4.8,4.8l-3.6,0l0,3.7l-5,0L33.4,9.6z M38.3,15.8l1.1,0
		c1.2,0,2.4-0.2,2.4-1.7c0-1.4-1.2-1.5-2.4-1.6l-1.1,0L38.3,15.8z"/>
</g>
</svg>
