<?xml version="1.0" encoding="utf-8"?>
<!-- Generator: Adobe Illustrator 27.2.0, SVG Export Plug-In . SVG Version: 6.00 Build 0)  -->
<svg version="1.1" id="Layer_1" xmlns="http://www.w3.org/2000/svg" xmlns:xlink="http://www.w3.org/1999/xlink" x="0px" y="0px"
	 viewBox="0 0 180 110" style="enable-background:new 0 0 180 110;" xml:space="preserve">
<style type="text/css">
	.st0{fill:#D08A20;}
	.st1{fill:#231F20;}
	.st2{fill:#58595B;}
</style>
<g>
	<g>
		<path class="st0" d="M61.8,43.5h14.4l0,3.9l-8.2,0l0,2.4l7.8,0l0,4l-7.8,0l0,2.3l8.3,0l0,4.1H61.7L61.8,43.5z"/>
	</g>
	<g>
		<path class="st0" d="M77.6,43.5h10.3c4,0,6.4,1.2,6.4,4.4c0,2.6-1.6,3.8-4,4.4v0c1.4,0.2,2.2,0.9,2.8,1.8c1,1.8,0.9,4.4,1.6,6
			h-6.7c-0.3-1.2-0.3-3.9-0.9-4.9c-0.4-0.8-1-0.9-1.8-0.9l-1.4,0l0,5.7h-6.4L77.6,43.5z M83.7,50.7l1.7,0c1.3,0,2.6-0.1,2.6-1.8
			c0-1.5-1.2-1.7-2.5-1.7l-1.8,0L83.7,50.7z"/>
	</g>
	<path class="st1" d="M91.8,43.5c2.7,0.3,3.5,2.3,3.5,4.9l2.7,0l0,11.8h6.4l0-11.8l4.3,0l0,11.7h6.4l0-5.6l1.4,0
		c0.8,0,1.4,0.1,1.8,0.9c0.5,1,0.6,3.6,0.9,4.8h6.7c-0.7-1.6-0.6-4.2-1.6-5.9c-0.6-0.9-1.4-1.6-2.8-1.8v0c2.4-0.6,4-1.9,4-4.4
		c0-3.2-2.4-4.5-6.4-4.5H91.8z M116.4,50.8l-1.7,0l0-3.6l1.8,0c1.3,0,2.5,0.2,2.5,1.7C119,50.6,117.7,50.8,116.4,50.8z"/>
	<g>
		<path class="st1" d="M131,43.5h8.8l5.9,16.6H139l-1.1-3.5l-5.4,0l-1,3.6h-6.4L131,43.5z M133.5,52.6l3.7,0l-1.8-5.5h0L133.5,52.6z
			"/>
	</g>
	<g>
		<path class="st1" d="M151.7,43.5l0,16.6h-6.4l0-16.6H151.7z"/>
	</g>
	<g>
		<path class="st1" d="M152.7,43.5h9.6l3,11.9h0l0-11.9h5.5l0,16.6h-9.4l-3.2-12h0l0,12h-5.5L152.7,43.5z"/>
	</g>
	<g>
		<path class="st0" d="M43.2,43.5h11.9c2.6,0,6.1,1.1,6.1,5.6c0,4.3-2.8,6.1-6.1,6.1l-4.6,0l0,5h-7.3L43.2,43.5z M50.3,51.3l1.4,0
			c1.5,0,3.1-0.3,3.1-2.1c0-1.8-1.5-2-3.1-2l-1.4,0L50.3,51.3z"/>
	</g>
</g>
<g>
	<g>
		<path class="st2" d="M82.3,62.3l0.9,0l-1.1,5l-0.9,0L82.3,62.3z"/>
		<path class="st2" d="M84,65.9c0,0.6,0.3,0.9,0.9,0.9c0.4,0,0.7-0.1,1.1-0.2l-0.1,0.7c-0.3,0.1-0.7,0.2-1.1,0.2
			c-1,0-1.6-0.5-1.6-1.5c0-1.1,0.8-2.1,2-2.1c0.8,0,1.4,0.4,1.4,1.3c0,0.3,0,0.5-0.1,0.8L84,65.9z M85.6,65.3c0-0.1,0-0.2,0-0.2
			c0-0.4-0.2-0.6-0.6-0.6c-0.6,0-0.8,0.3-1,0.8L85.6,65.3z"/>
		<path class="st2" d="M88.9,66.8L88.9,66.8c-0.3,0.4-0.6,0.6-1.1,0.6c-0.6,0-1.1-0.3-1.1-1c0-1.1,1.3-1.2,2.1-1.2l0.3,0
			c0-0.1,0-0.2,0-0.3c0-0.3-0.4-0.4-0.7-0.4c-0.4,0-0.8,0.1-1.1,0.3l0.1-0.7c0.4-0.1,0.8-0.2,1.2-0.2c0.7,0,1.3,0.3,1.3,1.1
			c0,0.5-0.3,1.8-0.4,2.4l-0.8,0L88.9,66.8z M88.1,66.8c0.7,0,0.9-0.5,1-1l-0.3,0c-0.4,0-1.1,0.1-1.2,0.6
			C87.6,66.6,87.8,66.8,88.1,66.8z"/>
		<path class="st2" d="M91.1,64.4c0-0.1,0.1-0.3,0.1-0.5l0.9,0l-0.1,0.6h0c0.2-0.4,0.6-0.7,1-0.7c0.1,0,0.2,0,0.3,0L93,64.8
			c-0.1,0-0.2-0.1-0.3-0.1c-0.6,0-0.9,0.6-1.1,1.1l-0.3,1.5l-0.9,0L91.1,64.4z"/>
		<path class="st2" d="M93.7,64.4c0-0.2,0.1-0.4,0.1-0.5l0.9,0l-0.1,0.3h0c0.2-0.2,0.6-0.4,1-0.4c0.7,0,1.1,0.4,1.1,1.1
			c0,0.3-0.1,0.5-0.1,0.7l-0.4,1.7l-0.9,0l0.3-1.6c0-0.2,0.1-0.5,0.1-0.7c0-0.3-0.2-0.5-0.5-0.5c-0.6,0-0.8,0.6-1,1.1l-0.4,1.7
			l-0.9,0L93.7,64.4z"/>
		<path class="st2" d="M97.8,63.9l0.9,0L98,67.4l-0.9,0L97.8,63.9z M98.2,62.5l0.9,0l-0.2,0.9l-0.9,0L98.2,62.5z"/>
		<path class="st2" d="M99.6,64.4c0-0.2,0.1-0.4,0.1-0.5l0.9,0l-0.1,0.3h0c0.2-0.2,0.6-0.4,1-0.4c0.7,0,1.1,0.4,1.1,1.1
			c0,0.3-0.1,0.5-0.1,0.7l-0.4,1.7l-0.9,0l0.3-1.6c0-0.2,0.1-0.5,0.1-0.7c0-0.3-0.2-0.5-0.5-0.5c-0.6,0-0.8,0.6-1,1.1l-0.4,1.7
			l-0.9,0L99.6,64.4z"/>
		<path class="st2" d="M103.1,67.9c0.4,0.1,0.7,0.3,1.1,0.3c0.9,0,1.1-0.7,1.3-1.4h0c-0.2,0.4-0.7,0.6-1.2,0.6
			c-0.8,0-1.2-0.7-1.2-1.5c0-1,0.6-2.1,1.7-2c0.5,0,0.8,0.2,1,0.6L106,64l0.9,0c0,0.1-0.1,0.3-0.1,0.5l-0.6,2.6
			c-0.2,1.1-0.7,1.8-2,1.8c-0.5,0-0.9-0.1-1.4-0.2L103.1,67.9z M105,64.6c-0.6,0-0.9,0.8-0.9,1.4c0,0.4,0.2,0.8,0.6,0.8
			c0.7,0,1-0.7,1-1.4C105.6,64.9,105.4,64.6,105,64.6z"/>
		<path class="st2" d="M111.1,66.9L111.1,66.9c-0.3,0.4-0.6,0.6-1.1,0.6c-0.6,0-1.1-0.3-1.1-1c0-1.1,1.3-1.2,2.1-1.2l0.3,0
			c0-0.1,0-0.2,0-0.3c0-0.3-0.4-0.4-0.7-0.4c-0.4,0-0.8,0.1-1.1,0.3l0.1-0.7c0.4-0.1,0.8-0.2,1.2-0.2c0.7,0,1.3,0.3,1.3,1.1
			c0,0.5-0.3,1.8-0.4,2.4l-0.8,0L111.1,66.9z M110.2,66.8c0.7,0,0.9-0.5,1-1l-0.3,0c-0.4,0-1.1,0.1-1.2,0.6
			C109.7,66.7,110,66.8,110.2,66.8z"/>
		<path class="st2" d="M113.2,64.5c0-0.2,0.1-0.4,0.1-0.5l0.9,0l-0.1,0.3h0c0.2-0.2,0.6-0.4,1-0.4c0.7,0,1.1,0.4,1.1,1.1
			c0,0.3-0.1,0.5-0.1,0.7l-0.4,1.7l-0.9,0l0.3-1.6c0-0.2,0.1-0.5,0.1-0.7c0-0.3-0.2-0.5-0.5-0.5c-0.6,0-0.8,0.6-1,1.1l-0.4,1.7
			l-0.9,0L113.2,64.5z"/>
		<path class="st2" d="M120.9,62.4l-0.9,4.2c-0.1,0.3-0.1,0.6-0.1,0.8l-0.8,0l0.1-0.5h0c-0.3,0.4-0.6,0.6-1.1,0.6
			c-0.8,0-1.2-0.7-1.2-1.4c0-1,0.6-2.2,1.7-2.2c0.4,0,0.8,0.2,1.1,0.5l0.4-2L120.9,62.4z M117.7,66c0,0.3,0.1,0.8,0.5,0.8
			c0.7,0,1-0.8,1-1.4c0-0.4-0.2-0.8-0.6-0.8C118,64.6,117.7,65.5,117.7,66z"/>
		<path class="st2" d="M125.2,64.7c-0.2-0.1-0.5-0.2-0.7-0.2c-0.3,0-0.6,0.1-0.6,0.3c0,0.4,1.2,0.6,1.2,1.4c0,0.9-0.8,1.2-1.5,1.2
			c-0.4,0-0.7-0.1-1-0.2l0.2-0.7c0.3,0.1,0.5,0.3,0.8,0.3c0.3,0,0.6-0.1,0.6-0.4c0-0.6-1.2-0.6-1.2-1.5c0-0.8,0.8-1.1,1.5-1.1
			c0.3,0,0.7,0.1,1,0.1L125.2,64.7z"/>
		<path class="st2" d="M127.7,66.9L127.7,66.9c-0.3,0.4-0.6,0.6-1.1,0.6c-0.6,0-1.1-0.3-1.1-1c0-1.1,1.3-1.2,2.1-1.2l0.3,0
			c0-0.1,0-0.2,0-0.3c0-0.3-0.4-0.4-0.7-0.4c-0.4,0-0.8,0.1-1.1,0.3l0.1-0.7c0.4-0.1,0.8-0.2,1.2-0.2c0.7,0,1.3,0.3,1.3,1.1
			c0,0.5-0.3,1.8-0.4,2.4l-0.8,0L127.7,66.9z M126.8,66.9c0.7,0,0.9-0.5,1-1l-0.3,0c-0.4,0-1.1,0.1-1.2,0.6
			C126.4,66.7,126.6,66.9,126.8,66.9z"/>
		<path class="st2" d="M130.1,64.7l-0.7,0l0.1-0.7l0.7,0c0.2-0.9,0.5-1.6,1.5-1.6c0.2,0,0.4,0,0.6,0.1l-0.2,0.7
			c-0.1,0-0.2-0.1-0.3-0.1c-0.5,0-0.6,0.6-0.7,0.9l0.8,0l-0.1,0.7l-0.8,0l-0.6,2.8l-0.9,0L130.1,64.7z"/>
		<path class="st2" d="M132.7,66c0,0.6,0.3,0.9,0.9,0.9c0.4,0,0.7-0.1,1-0.2l-0.1,0.7c-0.3,0.1-0.7,0.2-1.1,0.2
			c-1,0-1.6-0.5-1.6-1.5c0-1.1,0.8-2.1,2-2.1c0.8,0,1.4,0.4,1.4,1.3c0,0.3,0,0.5-0.1,0.8L132.7,66z M134.3,65.4c0-0.1,0-0.2,0-0.2
			c0-0.4-0.2-0.6-0.6-0.6c-0.6,0-0.8,0.3-1,0.8L134.3,65.4z"/>
		<path class="st2" d="M135.8,64l0.6,0l0.2-0.7l1-0.3l-0.2,1l0.8,0l-0.1,0.7l-0.8,0l-0.3,1.5c0,0.1,0,0.2,0,0.3
			c0,0.2,0.1,0.3,0.3,0.3c0.2,0,0.3,0,0.4-0.1l-0.2,0.7c-0.2,0-0.3,0.1-0.5,0.1c-0.6,0-1-0.2-1-0.9c0-0.3,0.1-0.5,0.1-0.8l0.3-1.2
			l-0.6,0L135.8,64z"/>
		<path class="st2" d="M139.3,64l0.3,2.5h0l1.4-2.5l1,0l-2.3,3.9c-0.3,0.5-0.6,1-1.4,1c-0.2,0-0.4,0-0.7-0.1l0.2-0.7
			c0.1,0,0.2,0.1,0.4,0.1c0.3,0,0.5-0.1,0.8-0.6l-0.6-3.6L139.3,64z"/>
		<path class="st2" d="M146.2,64.8c-0.2-0.1-0.5-0.2-0.7-0.2c-0.3,0-0.6,0.1-0.6,0.3c0,0.4,1.2,0.6,1.2,1.4c0,0.9-0.8,1.2-1.5,1.2
			c-0.4,0-0.7-0.1-1-0.2l0.2-0.7c0.3,0.1,0.5,0.3,0.8,0.3c0.3,0,0.6-0.1,0.6-0.4c0-0.6-1.2-0.6-1.2-1.5c0-0.8,0.8-1.1,1.5-1.1
			c0.3,0,0.7,0.1,1,0.1L146.2,64.8z"/>
		<path class="st2" d="M150.3,65.5c0,1.2-0.8,2.1-2,2.1c-1,0-1.6-0.6-1.6-1.6c0-1.1,0.9-2,2-2C149.6,64,150.3,64.6,150.3,65.5z
			 M149.3,65.5c0-0.4-0.2-0.8-0.7-0.8c-0.7,0-1.1,0.8-1.1,1.4c0,0.5,0.2,0.8,0.7,0.8C149,66.9,149.3,66.1,149.3,65.5z"/>
		<path class="st2" d="M151.7,62.5l0.9,0l-1.1,5l-0.9,0L151.7,62.5z"/>
		<path class="st2" d="M155.7,67c0,0.2-0.1,0.4-0.1,0.5l-0.9,0l0.1-0.3h0c-0.2,0.2-0.6,0.4-1,0.4c-0.7,0-1.1-0.4-1.1-1.1
			c0-0.3,0.1-0.5,0.1-0.7l0.4-1.7l0.9,0l-0.3,1.6c0,0.2-0.1,0.5-0.1,0.7c0,0.3,0.2,0.5,0.5,0.5c0.6,0,0.8-0.6,1-1.1l0.4-1.7l0.9,0
			L155.7,67z"/>
		<path class="st2" d="M156.9,64.1l0.6,0l0.2-0.7l1-0.3l-0.2,1l0.8,0l-0.1,0.7l-0.8,0l-0.3,1.5c0,0.1,0,0.2,0,0.3
			c0,0.2,0.1,0.3,0.3,0.3c0.2,0,0.3,0,0.4-0.1l-0.2,0.7c-0.2,0-0.3,0.1-0.5,0.1c-0.6,0-1-0.2-1-0.9c0-0.3,0.1-0.5,0.1-0.8l0.3-1.2
			l-0.6,0L156.9,64.1z"/>
		<path class="st2" d="M159.8,64.1l0.9,0l-0.7,3.4l-0.9,0L159.8,64.1z M160.2,62.6l0.9,0l-0.2,0.9l-0.9,0L160.2,62.6z"/>
		<path class="st2" d="M164.7,65.5c0,1.2-0.8,2.1-2,2.1c-1,0-1.6-0.6-1.6-1.6c0-1.1,0.9-2,2-2C164,64,164.7,64.6,164.7,65.5z
			 M163.7,65.5c0-0.4-0.2-0.8-0.7-0.8c-0.7,0-1.1,0.8-1.1,1.4c0,0.5,0.2,0.8,0.7,0.8C163.4,66.9,163.7,66.1,163.7,65.5z"/>
		<path class="st2" d="M165.6,64.6c0-0.2,0.1-0.4,0.1-0.5l0.9,0l-0.1,0.3h0c0.2-0.2,0.6-0.4,1-0.4c0.7,0,1.1,0.4,1.1,1.1
			c0,0.3-0.1,0.5-0.1,0.7l-0.4,1.7l-0.9,0l0.3-1.6c0-0.2,0.1-0.5,0.1-0.7c0-0.3-0.2-0.5-0.5-0.5c-0.6,0-0.8,0.6-1,1.1l-0.4,1.7
			l-0.9,0L165.6,64.6z"/>
		<path class="st2" d="M171.7,64.9c-0.2-0.1-0.5-0.2-0.7-0.2c-0.3,0-0.6,0.1-0.6,0.3c0,0.4,1.2,0.6,1.2,1.4c0,0.9-0.8,1.2-1.5,1.2
			c-0.4,0-0.7-0.1-1-0.2l0.2-0.7c0.3,0.1,0.5,0.3,0.8,0.3c0.3,0,0.6-0.1,0.6-0.4c0-0.6-1.2-0.6-1.2-1.5c0-0.8,0.8-1.1,1.5-1.1
			c0.3,0,0.7,0.1,1,0.1L171.7,64.9z"/>
	</g>
</g>
<g>
	<path class="st0" d="M23.3,42l-11.2,5.1l4.6,2.2l6.5,3.1l1.6-0.7l9.5-4.4L23.3,42z M22.9,53l-11-5.2v15.9l11,5.2L22.9,53z
		 M34.7,47.9l-11.1,5l0,15.8l11.1-5.1V47.9z"/>
	<path class="st0" d="M10.4,64.4l2.7,1.4c3.5,1.7,9,4.4,10.1,4.9c1.4-0.7,11.4-5.3,13-6v-18l-0.1-0.1c-2-1-11.3-5.5-12.7-6.2
		c-1.4,0.7-11.4,5.3-13,6V64.4z M23.2,71.5c-0.1,0-0.1,0-0.2,0c-0.2-0.1-6.4-3.1-10.2-5l-3-1.5c-0.1-0.1-0.2-0.2-0.2-0.4V46.2
		c0-0.2,0.2-0.3,0.3-0.4c0.3-0.2,13-6.1,13.3-6.2c0.1,0,0.2,0,0.3,0c0.3,0.1,10.7,5.2,12.9,6.2l0.4,0.2c0.1,0.1,0.2,0.2,0.2,0.4
		v18.5c0,0.2-0.2,0.3-0.3,0.4c-0.3,0.2-13,6.1-13.3,6.2C23.3,71.5,23.2,71.5,23.2,71.5"/>
</g>
</svg>
