<?xml version="1.0" encoding="UTF-8"?>
<svg xmlns="http://www.w3.org/2000/svg" version="1.1" viewBox="0 0 124 40.2">
  <defs>
    <style>
      .cls-1 {
        fill: #ca0919;
      }

      .cls-2 {
        fill: #1a1818;
      }
    </style>
  </defs>
  <!-- Generator: Adobe Illustrator 28.6.0, SVG Export Plug-In . SVG Version: 1.2.0 Build 709)  -->
  <g>
    <g id="Layer_1">
      <path class="cls-2" d="M55.2,0c-1.8,0-3.3,1.1-3.9,2.8l-7.5,23h8.2L60.4,0h-5.2"/>
      <path class="cls-2" d="M92.6.8c-1.1-.5-2.3-.8-3.5-.8h-15.2,0s-5.2,0-5.2,0c-1.8,0-3.3,1.1-3.9,2.8l-7.5,23h8.2l1.2-3.6,4.1-12.4.8-2.6h15.5c1,0,1.8.5,2.2,1.4.4.9.3,1.9-.2,2.6-.7.9-1.7,1.4-2.9,1.4h-14.7l-2.3,7.1h18.1c3.9,0,8.6-2.4,10.1-9.2,1.4-6.1-3.3-8.9-4.7-9.6"/>
      <path class="cls-2" d="M39.7.8h0c-1.1-.5-2.3-.8-3.5-.8h-15.2,0s-5.2,0-5.2,0c-1.8,0-3.3,1.1-3.9,2.8l-7.5,23h8.2l1.2-3.6,4.1-12.4h0l.8-2.6h15.5c1,0,1.8.5,2.2,1.4.4.9.3,1.9-.2,2.6-.7.9-1.7,1.4-2.9,1.4h-14.7l-2.3,7.1h18.1c3.9,0,8.6-2.4,10.1-9.2,1.4-6.1-3.3-8.9-4.7-9.6"/>
      <path class="cls-1" d="M.2,38.2l2.4-6.3c.5-1.3,1.5-2,2.9-2h4.4c1.5,0,1.9.6,1.4,2l-.5,1.4h-3l.3-.9c0-.2,0-.3-.2-.3h-2.2c-.2,0-.3,0-.4.3l-2,5.2c0,.2,0,.3.2.3h2.2c.2,0,.3,0,.4-.3l.5-1.3h-1.6l.8-2.2h4.6l-1.5,4c-.5,1.3-1.5,2-2.9,2H1.6c-1.5,0-1.9-.6-1.4-2"/>
      <polyline class="cls-1" points="13.9 30 16.9 30 13.8 37.8 18.3 37.8 17.4 40.2 9.9 40.2 13.9 30"/>
      <path class="cls-1" d="M19.1,38.2l2.4-6.3c.5-1.3,1.5-2,2.9-2h4.5c1.5,0,1.9.6,1.4,2l-2.4,6.3c-.5,1.3-1.5,2-2.9,2h-4.5c-1.5,0-1.9-.6-1.4-2M24.7,37.9c.2,0,.3,0,.4-.3l2-5.1c0-.2,0-.3-.2-.3h-2.3c-.2,0-.3,0-.4.3l-2,5.1c0,.2,0,.3.2.3h2.3Z"/>
      <path class="cls-1" d="M32.9,30h6.5c1.5,0,1.9.6,1.4,2l-.4,1.1c-.4,1.1-.9,1.7-2,1.9,1.1.1,1.1,1,.7,1.9l-.5,1.4c-.5,1.3-1.5,2-2.9,2h-6.6l3.9-10.2M35.3,38c.2,0,.3,0,.4-.3l.6-1.6c0-.2,0-.3-.2-.3h-2.5l-.8,2.1h2.5ZM36.7,34c.2,0,.3,0,.4-.3l.5-1.3c0-.2,0-.3-.2-.3h-2.4l-.7,1.9h2.4Z"/>
      <path class="cls-1" d="M46.1,38.1h-3.3l-1.4,2.1h-3.1l7.3-10.2h4l-.5,10.2h-3.2l.2-2.1M46.3,35.9l.4-3.7-2.5,3.7h2.1Z"/>
      <polyline class="cls-1" points="54 30 57 30 54 37.8 58.4 37.8 57.5 40.2 50 40.2 54 30"/>
      <path class="cls-1" d="M62.8,38.2l.5-1.4h3l-.4.9c0,.2,0,.3.2.3h2.1c.2,0,.3,0,.4-.3l.3-.9c0-.2,0-.2-.2-.3l-2.7-.7c-1.4-.4-2.1-.6-1.5-2.1l.7-1.8c.5-1.3,1.5-2,2.9-2h4.1c1.5,0,1.9.6,1.4,2l-.5,1.3h-3l.3-.8c0-.2,0-.3-.2-.3h-1.8c-.2,0-.3,0-.4.3l-.3.8c0,.2,0,.2.2.3l2.7.7c1.4.4,2.1.6,1.5,2.1l-.7,1.9c-.5,1.3-1.5,2-2.9,2h-4.3c-1.5,0-1.9-.6-1.4-2"/>
      <path class="cls-1" d="M79,38.1h-3.3l-1.4,2.1h-3.1l7.3-10.2h4l-.5,10.2h-3.2l.2-2.1M79.2,35.9l.4-3.7-2.5,3.7h2.1Z"/>
      <polyline class="cls-1" points="86.9 30 94.7 30 93.9 32.2 89 32.2 88.3 34 92.2 34 91.3 36.3 87.5 36.3 86 40.2 82.9 40.2 86.9 30"/>
      <polyline class="cls-1" points="96.1 30 103.9 30 103.1 32.2 98.2 32.2 97.6 33.8 101.4 33.8 100.6 36.1 96.7 36.1 96 37.9 100.9 37.9 100 40.2 92.1 40.2 96.1 30"/>
      <polyline class="cls-1" points="106.8 32.3 104 32.3 104.8 30 113.5 30 112.6 32.3 109.8 32.3 106.7 40.2 103.7 40.2 106.8 32.3"/>
      <polyline class="cls-1" points="114.7 37 113.8 30 117.1 30 117.2 34.3 120.7 30 124 30 117.7 37 116.5 40.2 113.5 40.2 114.7 37"/>
    </g>
  </g>
</svg>