<?xml version="1.0" encoding="utf-8"?>
<!-- Generator: Adobe Illustrator 27.2.0, SVG Export Plug-In . SVG Version: 6.00 Build 0)  -->
<svg version="1.1" id="Layer_1" xmlns="http://www.w3.org/2000/svg" xmlns:xlink="http://www.w3.org/1999/xlink" x="0px" y="0px"
	 viewBox="0 0 180 110" style="enable-background:new 0 0 180 110;" xml:space="preserve">
<style type="text/css">
	.st0{fill:#F37021;}
</style>
<g>
	<g>
		<path class="st0" d="M12.7,81h4.1c1.1,0,1.9,0.3,2.4,0.9s0.8,1.5,0.8,2.7c0,1.3-0.3,2.2-0.9,2.8c-0.6,0.5-1.5,0.8-2.6,0.8h-1.1
			v5.2h-2.7V81z M16.3,86.2c0.5,0,0.8-0.1,1-0.4c0.2-0.3,0.2-0.7,0.2-1.3c0-0.5-0.1-1-0.2-1.2s-0.5-0.4-1-0.4h-0.9v3.3H16.3z"/>
		<path class="st0" d="M21,81h3.4c1.4,0,2.4,0.2,3.1,0.7c0.7,0.5,1,1.3,1,2.5c0,0.8-0.1,1.5-0.3,2c-0.2,0.5-0.6,0.9-1.2,1.1l1.7,6
			h-2.8l-1.4-5.5h-0.8v5.5H21V81z M24.4,86.3c0.5,0,0.9-0.1,1.2-0.4c0.2-0.3,0.3-0.7,0.3-1.3c0-0.6-0.1-1-0.3-1.3
			c-0.2-0.3-0.6-0.4-1.1-0.4h-0.9v3.4H24.4z"/>
		<path class="st0" d="M30.3,92.5c-0.6-0.7-0.9-1.7-0.9-3v-4.6c0-1.3,0.3-2.3,0.9-3c0.6-0.7,1.5-1,2.9-1c1.3,0,2.3,0.3,2.9,1
			c0.6,0.7,0.9,1.7,0.9,3v4.6c0,1.3-0.3,2.4-0.9,3c-0.6,0.7-1.5,1-2.9,1C31.8,93.6,30.9,93.2,30.3,92.5z M33.9,91.2
			c0.1-0.3,0.2-0.6,0.2-1.1v-5.9c0-0.5-0.1-0.8-0.2-1.1c-0.1-0.3-0.4-0.4-0.8-0.4c-0.4,0-0.6,0.1-0.7,0.4c-0.1,0.3-0.2,0.6-0.2,1.1
			v5.9c0,0.4,0.1,0.8,0.2,1.1c0.1,0.3,0.4,0.4,0.7,0.4C33.5,91.6,33.8,91.5,33.9,91.2z"/>
		<path class="st0" d="M42.4,92.5c-0.6-0.7-0.8-1.7-0.8-3.1V85c0-1.4,0.3-2.4,0.8-3.1c0.6-0.7,1.5-1,2.9-1c1.3,0,2.2,0.3,2.7,0.9
			c0.5,0.6,0.8,1.5,0.8,2.6v1.1h-2.7v-1.2c0-0.5-0.1-0.8-0.2-1.1c-0.1-0.3-0.3-0.4-0.7-0.4c-0.4,0-0.6,0.1-0.8,0.4
			c-0.1,0.3-0.2,0.6-0.2,1.1v5.8c0,0.5,0.1,0.9,0.2,1.1c0.1,0.3,0.4,0.4,0.8,0.4c0.4,0,0.6-0.1,0.7-0.4c0.1-0.3,0.2-0.6,0.2-1.1
			v-1.3h2.7v1.1c0,1.2-0.3,2.1-0.8,2.7c-0.5,0.6-1.5,1-2.7,1C43.9,93.6,42.9,93.2,42.4,92.5z"/>
		<path class="st0" d="M49.8,81h2.7v5h1.9v-5h2.7v12.3h-2.7V88h-1.9v5.4h-2.7V81z"/>
		<path class="st0" d="M59.1,92.5c-0.6-0.7-0.9-1.7-0.9-3v-4.6c0-1.3,0.3-2.3,0.9-3c0.6-0.7,1.5-1,2.9-1c1.3,0,2.3,0.3,2.9,1
			c0.6,0.7,0.9,1.7,0.9,3v4.6c0,1.3-0.3,2.4-0.9,3c-0.6,0.7-1.5,1-2.9,1C60.7,93.6,59.7,93.2,59.1,92.5z M62.7,91.2
			c0.1-0.3,0.2-0.6,0.2-1.1v-5.9c0-0.5-0.1-0.8-0.2-1.1c-0.1-0.3-0.4-0.4-0.8-0.4c-0.4,0-0.6,0.1-0.7,0.4c-0.1,0.3-0.2,0.6-0.2,1.1
			v5.9c0,0.4,0.1,0.8,0.2,1.1c0.1,0.3,0.4,0.4,0.7,0.4C62.4,91.6,62.6,91.5,62.7,91.2z"/>
		<path class="st0" d="M66.8,81h2.7v12.3h-2.7V81z"/>
		<path class="st0" d="M71.5,92.5c-0.6-0.7-0.8-1.7-0.8-3.1V85c0-1.4,0.3-2.4,0.8-3.1c0.6-0.7,1.5-1,2.9-1c1.3,0,2.2,0.3,2.7,0.9
			c0.5,0.6,0.8,1.5,0.8,2.6v1.1h-2.7v-1.2c0-0.5-0.1-0.8-0.2-1.1c-0.1-0.3-0.3-0.4-0.7-0.4c-0.4,0-0.6,0.1-0.8,0.4
			c-0.1,0.3-0.2,0.6-0.2,1.1v5.8c0,0.5,0.1,0.9,0.2,1.1c0.1,0.3,0.4,0.4,0.8,0.4c0.4,0,0.6-0.1,0.7-0.4c0.1-0.3,0.2-0.6,0.2-1.1
			v-1.3h2.7v1.1c0,1.2-0.3,2.1-0.8,2.7c-0.5,0.6-1.5,1-2.7,1C73,93.6,72.1,93.2,71.5,92.5z"/>
		<path class="st0" d="M78.9,81h5.5v1.9h-2.8V86h2.1v1.9h-2.1v3.7h2.9v1.8h-5.6V81z"/>
		<path class="st0" d="M89.5,92.6c-0.6-0.6-0.9-1.6-0.9-3l2.3-0.4c0,0.8,0.1,1.3,0.3,1.7c0.2,0.3,0.4,0.5,0.8,0.5
			c0.5,0,0.7-0.3,0.7-0.9c0-0.5-0.1-0.9-0.3-1.2c-0.2-0.3-0.6-0.7-1-1.1l-1.1-0.9c-0.5-0.4-0.9-0.9-1.2-1.4s-0.4-1.1-0.4-1.8
			c0-1,0.3-1.8,0.9-2.4c0.6-0.6,1.5-0.8,2.5-0.8c1.2,0,2,0.3,2.4,1c0.4,0.7,0.6,1.5,0.7,2.5l-2.3,0.3c0-0.6-0.1-1.1-0.2-1.4
			c-0.1-0.3-0.3-0.4-0.6-0.4c-0.2,0-0.4,0.1-0.5,0.3c-0.1,0.2-0.2,0.4-0.2,0.7c0,0.4,0.1,0.8,0.3,1.1c0.2,0.3,0.5,0.6,0.9,1l1,0.9
			c0.6,0.5,1.1,1.1,1.4,1.6c0.3,0.6,0.5,1.3,0.5,2.1c0,0.6-0.1,1.1-0.4,1.6c-0.3,0.5-0.6,0.8-1.1,1.1c-0.5,0.3-1.1,0.4-1.7,0.4
			C91,93.6,90.1,93.2,89.5,92.6z"/>
		<path class="st0" d="M98.1,81h3.1l2.3,12.3H101l-0.4-2.6h-1.8l-0.4,2.6h-2.6L98.1,81z M100.3,89.1l-0.7-4.8L99,89.1H100.3z"/>
		<path class="st0" d="M104.4,81h5.3v1.8h-2.6V86h2.3v1.9h-2.3v5.5h-2.7V81z"/>
		<path class="st0" d="M110.6,81h5.5v1.9h-2.8V86h2.1v1.9h-2.1v3.7h2.9v1.8h-5.6V81z"/>
		<path class="st0" d="M118.6,83.1h-1.9v-2h6.4v2h-1.8v10.3h-2.7V83.1z"/>
		<path class="st0" d="M125.9,88.3l-2.3-7.3h2.6l1.2,3.9l1.1-3.9h2.5l-2.3,7.3v5h-2.6V88.3z"/>
		<path class="st0" d="M135.6,92.4c-0.5-0.7-0.8-1.8-0.8-3.2v-4.1c0-1.4,0.3-2.5,0.8-3.2c0.6-0.7,1.5-1.1,2.9-1.1
			c1.3,0,2.2,0.3,2.8,0.9c0.6,0.6,0.8,1.5,0.8,2.7v0.8h-2.7v-1c0-0.5-0.1-0.9-0.2-1.1s-0.4-0.4-0.7-0.4c-0.4,0-0.7,0.1-0.8,0.4
			c-0.1,0.3-0.2,0.7-0.2,1.1v5.7c0,0.5,0.1,0.9,0.2,1.2c0.1,0.3,0.4,0.4,0.8,0.4c0.7,0,1.1-0.5,1.1-1.6v-1.4h-1.1V87h3.6v6.4h-1.8
			l-0.2-1c-0.4,0.8-1.1,1.2-2,1.2C137,93.6,136.1,93.2,135.6,92.4z"/>
		<path class="st0" d="M143.3,81h5.5v1.9H146V86h2.1v1.9H146v3.7h2.9v1.8h-5.6V81z"/>
		<path class="st0" d="M151.8,81h3.1l2.3,12.3h-2.5l-0.4-2.6h-1.8l-0.4,2.6h-2.6L151.8,81z M154,89.1l-0.7-4.8l-0.7,4.8H154z"/>
		<path class="st0" d="M158.1,81h3.4c1.4,0,2.4,0.2,3.1,0.7c0.7,0.5,1,1.3,1,2.5c0,0.8-0.1,1.5-0.3,2c-0.2,0.5-0.6,0.9-1.2,1.1
			l1.7,6h-2.8l-1.4-5.5h-0.8v5.5h-2.7V81z M161.5,86.3c0.5,0,0.9-0.1,1.2-0.4c0.2-0.3,0.3-0.7,0.3-1.3c0-0.6-0.1-1-0.3-1.3
			c-0.2-0.3-0.6-0.4-1.1-0.4h-0.9v3.4H161.5z"/>
	</g>
	<g>
		<path class="st0" d="M159.7,24.2c-1.5,0-2.6-1.2-2.6-2.6c0-1.4,1.2-2.6,2.6-2.6c1.4,0,2.6,1.2,2.6,2.6
			C162.3,23.1,161.1,24.2,159.7,24.2 M159.7,19.5c-1.2,0-2.1,0.9-2.1,2.1c0,1.2,0.9,2.1,2.1,2.1c1.2,0,2.1-0.9,2.1-2.1
			C161.8,20.4,160.9,19.5,159.7,19.5 M160.2,23l-0.6-1.1h-0.4V23h-0.5v-2.8h1.1c0.5,0,0.9,0.4,0.9,0.9c0,0.4-0.2,0.7-0.6,0.8
			l0.6,1.2H160.2z M159.8,20.6h-0.5v0.8h0.5c0.3,0,0.5-0.2,0.5-0.4C160.2,20.8,160,20.6,159.8,20.6"/>
		<path class="st0" d="M158.3,25.5c-5.9-5.8-14-9-22.8-9s-17,3.2-22.9,9.1c-2.1,2.1-3.8,4.4-5.2,6.9c-0.8-3.5-2.4-6.5-4.8-8.8
			c-4.1-4.1-10.2-6.3-17.8-6.3H57.1V26c-0.7-1-1.5-1.9-2.4-2.7c-4.2-3.9-10.1-5.9-17.1-5.9H12.7v60.2h15.9v-17h7.8
			c6.9,0,12.9-1.9,17.3-5.4c1.3-1.1,2.4-2.2,3.4-3.5v26h15.9V59.5h7.2l12.2,18.2h18.8L96.7,56.4c2.9-1.4,5.2-3.2,7-5.4
			c0.7,7.1,3.8,13.6,8.8,18.6c5.9,5.8,14,9,22.8,9s17-3.2,22.9-9.1c5.8-5.8,9.1-13.6,9.1-22v-0.2C167.3,39,164.1,31.2,158.3,25.5z
			 M45,39.2c0,4.2-3.2,6.9-8.2,6.9h-8.2V32.1h7.9c7,0,8.4,3.7,8.4,6.9V39.2z M91.8,38.7c0,3.9-2.9,6.3-7.8,6.3H73.1V32.1h10.7
			c3.7,0,8.1,1.1,8.1,6.4V38.7z M151,47.7c-0.2,0.7-0.7,1.3-1.2,1.8l-30.1,21.2c-0.5,0.4-0.5,0.2-0.5,0.2c-0.1-0.1,0.6-0.8,1.2-1.7
			c0,0,10.5-14.1,10.2-27.8c-0.1-5.6-1.2-13-1.7-16.1c-0.1-0.5,0.2-0.8,0.6-0.9c0.4-0.2,1,0.1,1.3,0.6l19.5,19.4
			C151.2,45.2,151.4,46.5,151,47.7z"/>
	</g>
</g>
</svg>
