<?xml version="1.0" encoding="UTF-8"?>
<svg id="Layer_1" data-name="Layer 1" xmlns="http://www.w3.org/2000/svg" version="1.1" viewBox="0 0 251.4 331.7">
  <defs>
    <style>
      .cls-1 {
        fill: #0083d4;
      }

      .cls-1, .cls-2, .cls-3, .cls-4 {
        stroke-width: 0px;
      }

      .cls-5 {
        stroke: #221a60;
        stroke-miterlimit: 2.6;
        stroke-width: .7px;
      }

      .cls-5, .cls-6 {
        fill: none;
      }

      .cls-2 {
        fill: #000100;
      }

      .cls-3 {
        fill: #221a60;
      }

      .cls-4 {
        fill: #308ec0;
      }

      .cls-6 {
        stroke: #000100;
        stroke-miterlimit: 10;
        stroke-width: .5px;
      }
    </style>
  </defs>
  <path class="cls-4" d="M80.4,18.6v60.8H20c-10.3,0-18.6,8.3-18.6,18.6v55.8h79.7l-.2-2.2c-.7-8.6-.3-17.2.8-25.7,1.1-8.6,4-17.3,8.5-24.6.4-.6.7-1.1,1.1-1.7,5.7-8.4,13.7-14.1,21.3-20.1.1,0,.2-.2.4-.3,9.1-7.3,18.6-14.4,26.7-23.2,10-10.9,16.1-24.6,21-39,1.7-5.2,3.6-10.9,4.1-16.6v-.2h-65.7c-10.3,0-18.6,8.3-18.6,18.6"/>
  <path class="cls-3" d="M172.8,84.4s2.4,3.4,4,10.3l.5,2.1c2.1,8.2,2.6,16.8,1.4,25.1-1.1,8-3.4,15.2-6.7,21.8-2.6,5.4-5.9,10.3-9.5,15-9.2,11.7-21.2,21.2-32.9,29.8-12.9,9.4-26.1,19.5-34.6,34.1-2.8,4.8-7.4,13-6.7,19.3h65.2c10.3,0,18.6-8.3,18.6-18.6v-64.6h59.4c10.3,0,18.6-8.3,18.6-18.6v-55.8h-77.2Z"/>
  <path class="cls-4" d="M140.8,133.4c0-10.8-6.9-19.5-15.4-19.5s-15.4,8.7-15.4,19.5,6.9,19.5,15.4,19.5,15.4-8.7,15.4-19.5"/>
  <path class="cls-3" d="M132.9,44c0-10.8-6.9-19.5-15.4-19.5s-15.4,8.7-15.4,19.5,6.9,19.5,15.4,19.5,15.4-8.7,15.4-19.5"/>
  <path class="cls-4" d="M173.3,95.1l-.5-2.1c-1.6-7-4-10.3-4-10.3.5,4.5.8,12.2.8,12.2,0,.4,0,.8,0,1.2,0,4.3-.7,8.5-1.6,12.7,0,.3-.1.5-.2.8-4.6,21.8-18.2,35.2-33.2,47.4-18.2,14.8-38.5,27.9-47,52.4-3.4,9.8-4.6,20.3-3.4,30.7-.7-6.2,3.9-14.4,6.7-19.3,8.5-14.6,21.7-24.6,34.6-34.1,11.8-8.6,23.7-18.1,32.9-29.8,3.7-4.6,6.9-9.6,9.5-15,3.2-6.6,5.6-13.8,6.7-21.8,1.1-8.4.7-17-1.4-25.1"/>
  <path class="cls-2" d="M168.1,28.8V3.4c0,0,0,.1,0,.2v27.2c0-.6,0-1.3,0-1.9"/>
  <path class="cls-6" d="M168.1,28.8V3.4c0,0,0,.1,0,.2v27.2c0-.6,0-1.3,0-1.9Z"/>
  <path class="cls-3" d="M164,20.2c-4.8,14.4-10.9,28.1-21,39-8.1,8.8-17.5,15.9-26.7,23.2-.1,0-.2.2-.4.3-7.6,6.1-15.6,11.7-21.3,20.1-.4.6-.7,1.1-1.1,1.7-4.5,7.3-7.4,15.9-8.5,24.6-1.2,9.2-1.5,18.5-.6,27.8,1.1-17,8.6-32.2,20.4-42.9,12.3-11.1,26.3-19.5,38.2-31.3.6-.6,1.2-1.2,1.8-1.8,11.4-12,20.4-26.9,22.8-44.4.3-1.9.4-3.8.5-5.7V3.5c-.4,5.7-2.3,11.5-4.1,16.6"/>
  <path class="cls-3" d="M74.7,280.4c1.2,0,2.2,0,2.9-.2.7-.1,1.3-.4,1.7-.7,1-.9,1.6-2.1,1.6-3.8s-.8-3.4-2.2-4.1c-.4-.2-.8-.3-1.4-.4-.6,0-1.4-.1-2.5-.1h-9.3v9.4h9.3ZM59.5,280.4v-14.2h15c2.4,0,4.3.1,5.7.4,1.5.3,2.6.8,3.6,1.4,1.1.8,1.9,1.8,2.5,3,.6,1.2.9,2.6.9,4s-.2,2.7-.7,3.8c-.5,1.2-1.1,2.2-1.9,2.9-.5.5-1.1.9-1.6,1.2-.5.3-1.2.6-2.2.9,2,.7,3.4,1.8,4.3,3.2.9,1.4,1.4,3.5,1.6,6.2,0,.9,0,1.6.1,2,0,.5.1.9.2,1.2,0,.3.1.6.2.8,0,.2.2.5.3.8h-6.3c-.1-.3-.2-.5-.2-.7,0-.2,0-.5-.1-.8,0-1.1-.2-2.1-.3-3.1-.2-1.6-.4-2.9-.8-4-.4-1.1-1-1.9-1.7-2.6-.8-.7-1.7-1.1-2.9-1.4-1.2-.3-2.6-.4-4.4-.4h-5.3v13h-5.9v-13h-4.4v-4.8h4.4Z"/>
  <path class="cls-3" d="M95.5,279.8c.3-2.4.8-4.5,1.7-6.4.9-1.9,2.1-3.4,3.6-4.6,1.1-.9,2.4-1.5,3.9-1.9,1.5-.4,3.4-.6,5.6-.6h10.2v4.8h-9.1c-1.1,0-2.1,0-2.9.2-.8.1-1.6.3-2.2.5-.6.2-1.2.6-1.7,1-.5.4-.9.9-1.3,1.4-.3.3-.5.7-.6,1-.1.4-.3.7-.4,1.1-.1.4-.2.9-.3,1.4,0,.6-.2,1.2-.2,2h18.7v4.8h-18.7c0,3,.9,5.2,2.4,6.7,1.5,1.4,3.9,2.1,7.1,2.1h9.2v4.8h-9.8c-3,0-5.4-.3-7.2-1-1.9-.6-3.4-1.7-4.6-3.1-2.1-2.5-3.3-5.7-3.6-9.6h-4.7v-4.8h4.8Z"/>
  <path class="cls-3" d="M123.6,293.4h14.6c1.2,0,2.2,0,3-.2.7-.1,1.3-.3,1.8-.6,1.2-.8,1.9-2,1.9-3.6s-.2-1.8-.6-2.6c-.4-.7-1-1.2-1.8-1.5-.4-.2-.9-.3-1.4-.3-.5,0-1.3,0-2.4,0h-4.1c-2,0-3.6-.1-4.9-.4-1.3-.3-2.4-.8-3.2-1.4-1-.8-1.8-1.7-2.4-2.9-.5-1.2-.8-2.5-.8-3.9s.5-3.6,1.4-5.2c.9-1.5,2.1-2.6,3.7-3.3.8-.4,1.8-.7,2.9-.8,1.1-.2,2.6-.2,4.4-.2h13.5v4.8h-13.2c-1.2,0-2.2,0-2.9.1-.7,0-1.3.3-1.8.5-.6.3-1.1.8-1.5,1.4-.4.6-.5,1.4-.5,2.2,0,1.5.5,2.5,1.5,3.1,1,.6,2.6.9,5,.9h2.9c1.3,0,2.4,0,3.4.1,1,0,1.8.2,2.6.4.7.2,1.4.4,1.9.7.6.3,1.1.6,1.5,1,.9.8,1.6,1.8,2.1,3.1.5,1.3.7,2.7.7,4.2s-.4,3.4-1.2,4.9c-.8,1.4-1.9,2.5-3.2,3.2-.4.2-.9.4-1.4.6-.5.2-1,.3-1.7.4-.6,0-1.4.2-2.2.2-.8,0-1.8,0-3,0h-14.5v-4.8Z"/>
  <path class="cls-3" d="M197.6,298.2h-15.9c-3.5,0-6.2-.4-8.4-1.3-2.1-.8-3.9-2.2-5.2-4.1-2-2.7-3-6.2-3-10.4s.4-5.5,1.3-7.8c.8-2.3,2-4.1,3.6-5.4,2.8-2.3,6.4-3.5,10.9-3.5s8.8,1.4,11.4,4.1c2.6,2.7,4,6.7,4,11.8s-.3,4.7-1,6.5c-.7,1.8-1.8,3.6-3.3,5.2h5.6v4.8ZM180.8,270.6c-6.2,0-9.3,3.8-9.3,11.3s.2,3.3.5,4.8c.3,1.4.8,2.6,1.4,3.6.7,1.1,1.7,1.9,3,2.5,1.3.6,2.8.9,4.6.9s3.2-.3,4.3-.8c1.1-.5,2-1.4,2.8-2.5.6-.9,1.1-2.1,1.4-3.6.3-1.4.5-2.9.5-4.5,0-3.9-.8-6.8-2.3-8.7-1.5-2-3.8-2.9-6.8-2.9Z"/>
  <polygon class="cls-1" points=".4 316.8 .4 314.3 12.8 314.3 12.8 316.8 8.1 316.8 8.1 331.1 5 331.1 5 316.8 .4 316.8"/>
  <path class="cls-1" d="M23.6,321.7c.6,0,1.1,0,1.5-.1.4,0,.7-.2.9-.4.6-.5.8-1.1.8-2s-.4-1.8-1.2-2.2c-.2,0-.4-.1-.8-.2-.3,0-.8,0-1.3,0h-4.9v4.9h4.9ZM15.6,321.7v-7.5h7.9c1.2,0,2.3,0,3,.2.8.2,1.4.4,1.9.8.6.4,1,.9,1.3,1.6.3.6.5,1.4.5,2.1s-.1,1.4-.4,2c-.2.6-.6,1.1-1,1.5-.3.3-.6.5-.8.6-.3.2-.6.3-1.1.5,1,.4,1.8.9,2.3,1.7.5.8.7,1.8.8,3.3,0,.5,0,.8,0,1.1,0,.3,0,.5,0,.6,0,.2,0,.3.1.4,0,.1,0,.3.2.4h-3.3c0-.2-.1-.3-.1-.4,0,0,0-.2,0-.4,0-.6-.1-1.1-.2-1.6,0-.8-.2-1.5-.4-2.1-.2-.6-.5-1-.9-1.4-.4-.3-.9-.6-1.5-.7-.6-.1-1.4-.2-2.3-.2h-2.8v6.8h-3.1v-6.8h-2.3v-2.6h2.3Z"/>
  <path class="cls-1" d="M44.7,322.8v-1.8c0-.9,0-1.6-.2-2.1-.1-.5-.4-.9-.7-1.3-.4-.4-.7-.7-1.1-.9-.4-.2-.9-.3-1.7-.3s-1.6.1-2.1.4c-.5.3-.9.7-1.2,1.2-.2.3-.3.6-.3,1.1,0,.4,0,1.1,0,1.9v1.6h7.3ZM34.3,322.8v-1.6c0-.7,0-1.4,0-1.9,0-.6.2-1,.3-1.5.1-.4.3-.8.5-1.1.2-.3.5-.6.8-.9.3-.3.7-.6,1-.8.4-.2.7-.4,1.2-.5.4-.1.9-.3,1.4-.3.5,0,1.1-.1,1.7-.1s1.3,0,1.8.1c.5,0,1,.2,1.4.4.4.2.8.4,1.1.7.3.3.7.6,1,1,.2.3.4.6.6.9.2.3.3.6.4,1,0,.4.2.8.2,1.3,0,.5,0,1,0,1.6v10.1s0,0,0,0h-3.1v-5.8h-7.3v5.8h-3.1v-5.8h-2.4v-2.5h2.4Z"/>
  <polygon class="cls-1" points="50.5 314.3 53.6 314.3 53.6 331.1 50.5 331.1 50.5 314.3"/>
  <polygon class="cls-1" points="59.3 331.1 56.3 331.1 56.3 314.3 60.2 314.3 67.9 327.3 67.9 314.3 70.9 314.3 70.9 331.1 67.2 331.1 59.3 318.2 59.3 331.1"/>
  <polygon class="cls-1" points="73.6 314.3 76.8 314.3 76.8 331.1 73.7 331.1 73.6 314.3"/>
  <polygon class="cls-1" points="82.5 331.1 79.5 331.1 79.5 314.3 83.4 314.3 91.1 327.3 91.1 314.3 94.1 314.3 94.1 331.1 90.4 331.1 82.5 318.2 82.5 331.1"/>
  <path class="cls-1" d="M101.9,323.8c.1,1.3.4,2.3.8,3,.2.3.4.6.7.8.3.2.5.4.9.6.3.1.7.2,1.2.3.4,0,1,0,1.6,0h3.3v-4.8h-8.3ZM98.5,321.3c.3-2.7,1.2-4.7,2.8-5.8.6-.4,1.4-.7,2.2-.9.8-.2,1.9-.3,3.1-.3h6.7v2.6h-6.4c-1.1,0-1.9,0-2.5.3-.6.2-1.1.5-1.5,1-.3.4-.6.8-.8,1.4-.2.5-.3,1.2-.4,1.8h11.5v9.9h-6.8c-.7,0-1.4,0-2,0-.6,0-1.1-.1-1.5-.3-.4-.1-.8-.3-1.2-.5-.4-.2-.7-.4-1-.7-1.4-1.2-2.2-3.2-2.4-5.7h-2.6v-2.6h2.6Z"/>
  <path class="cls-1" d="M122,328.6h7.7c.7,0,1.2,0,1.6-.1.4,0,.7-.2.9-.3.7-.4,1-1,1-1.9s-.1-1-.3-1.4c-.2-.4-.6-.7-1-.8-.2,0-.5-.1-.7-.2-.3,0-.7,0-1.2,0h-2.2c-1,0-1.9,0-2.6-.2-.7-.2-1.2-.4-1.7-.7-.5-.4-1-.9-1.2-1.5-.3-.6-.4-1.3-.4-2.1s.2-1.9.7-2.7c.5-.8,1.1-1.4,1.9-1.8.4-.2,1-.3,1.5-.4.6,0,1.4-.1,2.3-.1h7.1v2.6h-7c-.6,0-1.2,0-1.5,0-.4,0-.7.1-1,.3-.3.1-.6.4-.8.7-.2.3-.3.7-.3,1.2,0,.8.3,1.3.8,1.6.5.3,1.4.5,2.6.5h1.5c.7,0,1.3,0,1.8,0,.5,0,1,.1,1.4.2.4,0,.7.2,1,.4.3.1.6.3.8.5.5.4.8,1,1.1,1.6.3.7.4,1.4.4,2.2s-.2,1.8-.6,2.6c-.4.8-1,1.3-1.7,1.7-.2.1-.5.2-.7.3-.2,0-.5.2-.9.2-.3,0-.7,0-1.2.1-.4,0-1,0-1.6,0h-7.6v-2.6Z"/>
  <path class="cls-1" d="M145.5,314.1c2.7,0,4.8.7,6.1,2.2,1.3,1.4,2,3.6,2,6.6s-.7,4.9-2.1,6.3c-1.4,1.4-3.4,2.1-6.1,2.1s-2.9-.2-4-.7c-1.2-.5-2.1-1.2-2.7-2-.5-.7-.9-1.5-1.2-2.5-.3-1-.4-2.1-.4-3.3s.2-2.8.6-3.9c.4-1.1.9-2,1.6-2.7,1.4-1.4,3.5-2,6.1-2h0ZM145.5,316.5c-1.7,0-3,.5-3.8,1.5-.8,1-1.2,2.5-1.2,4.6s.4,3.8,1.2,4.7c.8,1,2,1.5,3.7,1.5s2.9-.5,3.7-1.5c.8-1,1.2-2.5,1.2-4.6s-.4-3.8-1.1-4.7c-.8-1-2-1.5-3.7-1.5h0Z"/>
  <path class="cls-1" d="M158.3,314.2v9.7c0,1,0,1.9.2,2.4.1.6.3,1,.6,1.3.4.3.8.6,1.4.7.6.2,1.4.2,2.3.2h3.6v2.6h-4c-.7,0-1.4,0-2,0-.6,0-1.1-.1-1.5-.3-.4-.1-.8-.3-1.2-.5-.3-.2-.7-.5-1-.8-.6-.5-1-1.2-1.2-2.1-.2-.8-.4-2-.4-3.4v-9.8h3.1Z"/>
  <path class="cls-1" d="M170.4,324.3c0,.9,0,1.6.2,2.1.1.5.4.9.7,1.3.4.4.7.7,1.1.9.4.2.9.3,1.7.3s1.6-.1,2.1-.4c.5-.3.9-.7,1.2-1.2.2-.3.3-.6.3-1.1,0-.4,0-1.1,0-1.9v-9.9h3.1v9.9c0,.7,0,1.4,0,1.9,0,.6-.2,1-.3,1.5-.1.4-.3.8-.5,1.1-.2.3-.5.6-.8.9-.3.3-.7.6-1,.8-.3.2-.7.4-1.2.5-.4.1-.9.3-1.4.3-.5,0-1.1.1-1.7.1s-1.3,0-1.8-.1c-.5,0-1-.2-1.4-.4-.4-.2-.8-.4-1.1-.7-.3-.3-.7-.6-1-1-.2-.3-.4-.6-.6-.9-.2-.3-.3-.6-.4-1-.1-.4-.2-.8-.2-1.3,0-.5,0-1,0-1.6v-10.1h3.1v10.1Z"/>
  <polygon class="cls-1" points="182.4 316.8 182.4 314.3 194.8 314.3 194.8 316.8 190.1 316.8 190.1 331.1 187 331.1 187 316.8 182.4 316.8"/>
  <polygon class="cls-1" points="195.7 314.3 198.8 314.3 198.8 331.1 195.7 331.1 195.7 314.3"/>
  <path class="cls-1" d="M209,314.1c2.7,0,4.8.7,6.1,2.2,1.3,1.4,2,3.6,2,6.6s-.7,4.9-2.1,6.3c-1.4,1.4-3.4,2.1-6.1,2.1s-2.9-.2-4-.7c-1.2-.5-2.1-1.2-2.7-2-.5-.7-.9-1.5-1.2-2.5-.3-1-.4-2.1-.4-3.3s.2-2.8.6-3.9c.4-1.1.9-2,1.6-2.7,1.4-1.4,3.5-2,6.1-2h0ZM209,316.5c-1.7,0-3,.5-3.8,1.5-.8,1-1.2,2.5-1.2,4.6s.4,3.8,1.2,4.7c.8,1,2,1.5,3.7,1.5s2.9-.5,3.7-1.5c.8-1,1.2-2.5,1.2-4.6s-.4-3.8-1.1-4.7c-.8-1-2-1.5-3.7-1.5h0Z"/>
  <polygon class="cls-1" points="222.6 331.1 219.6 331.1 219.6 314.3 223.5 314.3 231.2 327.3 231.2 314.3 234.2 314.3 234.2 331.1 230.5 331.1 222.6 318.2 222.6 331.1"/>
  <path class="cls-1" d="M236.7,328.6h7.7c.7,0,1.2,0,1.6-.1.4,0,.7-.2.9-.3.7-.4,1-1,1-1.9s-.1-1-.3-1.4c-.2-.4-.6-.7-1-.8-.2,0-.5-.1-.7-.2-.3,0-.7,0-1.2,0h-2.2c-1,0-1.9,0-2.6-.2-.7-.2-1.2-.4-1.7-.7-.5-.4-1-.9-1.2-1.5-.3-.6-.4-1.3-.4-2.1s.2-1.9.7-2.7c.5-.8,1.1-1.4,1.9-1.8.4-.2,1-.3,1.5-.4.6,0,1.4-.1,2.3-.1h7.1v2.6h-7c-.6,0-1.2,0-1.5,0-.4,0-.7.1-1,.3-.3.1-.6.4-.8.7-.2.3-.3.7-.3,1.2,0,.8.3,1.3.8,1.6.5.3,1.4.5,2.6.5h1.5c.7,0,1.3,0,1.8,0,.5,0,1,.1,1.4.2.4,0,.7.2,1,.4.3.1.6.3.8.5.5.4.8,1,1.1,1.6.3.7.4,1.4.4,2.2s-.2,1.8-.6,2.6c-.4.8-1,1.3-1.7,1.7-.2.1-.5.2-.7.3-.2,0-.5.2-.9.2-.3,0-.7,0-1.2.1-.4,0-1,0-1.6,0h-7.6v-2.6Z"/>
  <path class="cls-5" d="M74.7,280.4c1.2,0,2.2,0,2.9-.2.7-.1,1.3-.4,1.7-.7,1-.9,1.6-2.1,1.6-3.8s-.8-3.4-2.2-4.1c-.4-.2-.8-.3-1.4-.4-.6,0-1.4-.1-2.5-.1h-9.3v9.4h9.3ZM59.5,280.4v-14.2h15c2.4,0,4.3.1,5.7.4,1.5.3,2.6.8,3.6,1.4,1.1.8,1.9,1.8,2.5,3,.6,1.2.9,2.6.9,4s-.2,2.7-.7,3.8c-.5,1.2-1.1,2.2-1.9,2.9-.5.5-1.1.9-1.6,1.2-.5.3-1.2.6-2.2.9,2,.7,3.4,1.8,4.3,3.2.9,1.4,1.4,3.5,1.6,6.2,0,.9,0,1.6.1,2,0,.5.1.9.2,1.2,0,.3.1.6.2.8,0,.2.2.5.3.8h-6.3c-.1-.3-.2-.5-.2-.7,0-.2,0-.5-.1-.8,0-1.1-.2-2.1-.3-3.1-.2-1.6-.4-2.9-.8-4-.4-1.1-1-1.9-1.7-2.6-.8-.7-1.7-1.1-2.9-1.4-1.2-.3-2.6-.4-4.4-.4h-5.3v13h-5.9v-13h-4.4v-4.8h4.4Z"/>
  <path class="cls-5" d="M95.5,279.8c.3-2.4.8-4.5,1.7-6.4.9-1.9,2.1-3.4,3.6-4.6,1.1-.9,2.4-1.5,3.9-1.9,1.5-.4,3.4-.6,5.6-.6h10.2v4.8h-9.1c-1.1,0-2.1,0-2.9.2-.8.1-1.6.3-2.2.5-.6.2-1.2.6-1.7,1-.5.4-.9.9-1.3,1.4-.3.3-.5.7-.6,1-.1.4-.3.7-.4,1.1-.1.4-.2.9-.3,1.4,0,.6-.2,1.2-.2,2h18.7v4.8h-18.7c0,3,.9,5.2,2.4,6.7,1.5,1.4,3.9,2.1,7.1,2.1h9.2v4.8h-9.8c-3,0-5.4-.3-7.2-1-1.9-.6-3.4-1.7-4.6-3.1-2.1-2.5-3.3-5.7-3.6-9.6h-4.7v-4.8h4.8Z"/>
  <path class="cls-5" d="M123.6,293.4h14.6c1.2,0,2.2,0,3-.2.7-.1,1.3-.3,1.8-.6,1.2-.8,1.9-2,1.9-3.6s-.2-1.8-.6-2.6c-.4-.7-1-1.2-1.8-1.5-.4-.2-.9-.3-1.4-.3-.5,0-1.3,0-2.4,0h-4.1c-2,0-3.6-.1-4.9-.4-1.3-.3-2.4-.8-3.2-1.4-1-.8-1.8-1.7-2.4-2.9-.5-1.2-.8-2.5-.8-3.9s.5-3.6,1.4-5.2c.9-1.5,2.1-2.6,3.7-3.3.8-.4,1.8-.7,2.9-.8,1.1-.2,2.6-.2,4.4-.2h13.5v4.8h-13.2c-1.2,0-2.2,0-2.9.1-.7,0-1.3.3-1.8.5-.6.3-1.1.8-1.5,1.4-.4.6-.5,1.4-.5,2.2,0,1.5.5,2.5,1.5,3.1,1,.6,2.6.9,5,.9h2.9c1.3,0,2.4,0,3.4.1,1,0,1.8.2,2.6.4.7.2,1.4.4,1.9.7.6.3,1.1.6,1.5,1,.9.8,1.6,1.8,2.1,3.1.5,1.3.7,2.7.7,4.2s-.4,3.4-1.2,4.9c-.8,1.4-1.9,2.5-3.2,3.2-.4.2-.9.4-1.4.6-.5.2-1,.3-1.7.4-.6,0-1.4.2-2.2.2-.8,0-1.8,0-3,0h-14.5v-4.8Z"/>
  <path class="cls-5" d="M197.6,298.2h-15.9c-3.5,0-6.2-.4-8.4-1.3-2.1-.8-3.9-2.2-5.2-4.1-2-2.7-3-6.2-3-10.4s.4-5.5,1.3-7.8c.8-2.3,2-4.1,3.6-5.4,2.8-2.3,6.4-3.5,10.9-3.5s8.8,1.4,11.4,4.1c2.6,2.7,4,6.7,4,11.8s-.3,4.7-1,6.5c-.7,1.8-1.8,3.6-3.3,5.2h5.6v4.8ZM180.8,270.6c-6.2,0-9.3,3.8-9.3,11.3s.2,3.3.5,4.8c.3,1.4.8,2.6,1.4,3.6.7,1.1,1.7,1.9,3,2.5,1.3.6,2.8.9,4.6.9s3.2-.3,4.3-.8c1.1-.5,2-1.4,2.8-2.5.6-.9,1.1-2.1,1.4-3.6.3-1.4.5-2.9.5-4.5,0-3.9-.8-6.8-2.3-8.7-1.5-2-3.8-2.9-6.8-2.9Z"/>
  <polygon class="cls-5" points=".4 316.8 .4 314.3 12.8 314.3 12.8 316.8 8.1 316.8 8.1 331.1 5 331.1 5 316.8 .4 316.8"/>
  <path class="cls-5" d="M23.6,321.7c.6,0,1.1,0,1.5-.1.4,0,.7-.2.9-.4.6-.5.8-1.1.8-2s-.4-1.8-1.2-2.2c-.2,0-.4-.1-.8-.2-.3,0-.8,0-1.3,0h-4.9v4.9h4.9ZM15.6,321.7v-7.5h7.9c1.2,0,2.3,0,3,.2.8.2,1.4.4,1.9.8.6.4,1,.9,1.3,1.6.3.6.5,1.4.5,2.1s-.1,1.4-.4,2c-.2.6-.6,1.1-1,1.5-.3.3-.6.5-.8.6-.3.2-.6.3-1.1.5,1,.4,1.8.9,2.3,1.7.5.8.7,1.8.8,3.3,0,.5,0,.8,0,1.1,0,.3,0,.5,0,.6,0,.2,0,.3.1.4,0,.1,0,.3.2.4h-3.3c0-.2-.1-.3-.1-.4,0,0,0-.2,0-.4,0-.6-.1-1.1-.2-1.6,0-.8-.2-1.5-.4-2.1-.2-.6-.5-1-.9-1.4-.4-.3-.9-.6-1.5-.7-.6-.1-1.4-.2-2.3-.2h-2.8v6.8h-3.1v-6.8h-2.3v-2.6h2.3Z"/>
  <path class="cls-5" d="M44.7,322.8v-1.8c0-.9,0-1.6-.2-2.1-.1-.5-.4-.9-.7-1.3-.4-.4-.7-.7-1.1-.9-.4-.2-.9-.3-1.7-.3s-1.6.1-2.1.4c-.5.3-.9.7-1.2,1.2-.2.3-.3.6-.3,1.1,0,.4,0,1.1,0,1.9v1.6h7.3ZM34.3,322.8v-1.6c0-.7,0-1.4,0-1.9,0-.6.2-1,.3-1.5.1-.4.3-.8.5-1.1.2-.3.5-.6.8-.9.3-.3.7-.6,1-.8.4-.2.7-.4,1.2-.5.4-.1.9-.3,1.4-.3.5,0,1.1-.1,1.7-.1s1.3,0,1.8.1c.5,0,1,.2,1.4.4.4.2.8.4,1.1.7.3.3.7.6,1,1,.2.3.4.6.6.9.2.3.3.6.4,1,0,.4.2.8.2,1.3,0,.5,0,1,0,1.6v10.1s0,0,0,0h-3.1v-5.8h-7.3v5.8h-3.1v-5.8h-2.4v-2.5h2.4Z"/>
  <polygon class="cls-5" points="50.5 314.3 53.6 314.3 53.6 331.1 50.5 331.1 50.5 314.3"/>
  <polygon class="cls-5" points="59.3 331.1 56.3 331.1 56.3 314.3 60.2 314.3 67.9 327.3 67.9 314.3 70.9 314.3 70.9 331.1 67.2 331.1 59.3 318.2 59.3 331.1"/>
  <polygon class="cls-5" points="73.6 314.3 76.8 314.3 76.8 331.1 73.7 331.1 73.6 314.3"/>
  <polygon class="cls-5" points="82.5 331.1 79.5 331.1 79.5 314.3 83.4 314.3 91.1 327.3 91.1 314.3 94.1 314.3 94.1 331.1 90.4 331.1 82.5 318.2 82.5 331.1"/>
  <path class="cls-5" d="M101.9,323.8c.1,1.3.4,2.3.8,3,.2.3.4.6.7.8.3.2.5.4.9.6.3.1.7.2,1.2.3.4,0,1,0,1.6,0h3.3v-4.8h-8.3ZM98.5,321.3c.3-2.7,1.2-4.7,2.8-5.8.6-.4,1.4-.7,2.2-.9.8-.2,1.9-.3,3.1-.3h6.7v2.6h-6.4c-1.1,0-1.9,0-2.5.3-.6.2-1.1.5-1.5,1-.3.4-.6.8-.8,1.4-.2.5-.3,1.2-.4,1.8h11.5v9.9h-6.8c-.7,0-1.4,0-2,0-.6,0-1.1-.1-1.5-.3-.4-.1-.8-.3-1.2-.5-.4-.2-.7-.4-1-.7-1.4-1.2-2.2-3.2-2.4-5.7h-2.6v-2.6h2.6Z"/>
  <path class="cls-5" d="M122,328.6h7.7c.7,0,1.2,0,1.6-.1.4,0,.7-.2.9-.3.7-.4,1-1,1-1.9s-.1-1-.3-1.4c-.2-.4-.6-.7-1-.8-.2,0-.5-.1-.7-.2-.3,0-.7,0-1.2,0h-2.2c-1,0-1.9,0-2.6-.2-.7-.2-1.2-.4-1.7-.7-.5-.4-1-.9-1.2-1.5-.3-.6-.4-1.3-.4-2.1s.2-1.9.7-2.7c.5-.8,1.1-1.4,1.9-1.8.4-.2,1-.3,1.5-.4.6,0,1.4-.1,2.3-.1h7.1v2.6h-7c-.6,0-1.2,0-1.5,0-.4,0-.7.1-1,.3-.3.1-.6.4-.8.7-.2.3-.3.7-.3,1.2,0,.8.3,1.3.8,1.6.5.3,1.4.5,2.6.5h1.5c.7,0,1.3,0,1.8,0,.5,0,1,.1,1.4.2.4,0,.7.2,1,.4.3.1.6.3.8.5.5.4.8,1,1.1,1.6.3.7.4,1.4.4,2.2s-.2,1.8-.6,2.6c-.4.8-1,1.3-1.7,1.7-.2.1-.5.2-.7.3-.2,0-.5.2-.9.2-.3,0-.7,0-1.2.1-.4,0-1,0-1.6,0h-7.6v-2.6Z"/>
  <path class="cls-5" d="M145.5,314.1c2.7,0,4.8.7,6.1,2.2,1.3,1.4,2,3.6,2,6.6s-.7,4.9-2.1,6.3c-1.4,1.4-3.4,2.1-6.1,2.1s-2.9-.2-4-.7c-1.2-.5-2.1-1.2-2.7-2-.5-.7-.9-1.5-1.2-2.5-.3-1-.4-2.1-.4-3.3s.2-2.8.6-3.9c.4-1.1.9-2,1.6-2.7,1.4-1.4,3.5-2,6.1-2h0ZM145.5,316.5c-1.7,0-3,.5-3.8,1.5-.8,1-1.2,2.5-1.2,4.6s.4,3.8,1.2,4.7c.8,1,2,1.5,3.7,1.5s2.9-.5,3.7-1.5c.8-1,1.2-2.5,1.2-4.6s-.4-3.8-1.1-4.7c-.8-1-2-1.5-3.7-1.5h0Z"/>
  <path class="cls-5" d="M158.3,314.2v9.7c0,1,0,1.9.2,2.4.1.6.3,1,.6,1.3.4.3.8.6,1.4.7.6.2,1.4.2,2.3.2h3.6v2.6h-4c-.7,0-1.4,0-2,0-.6,0-1.1-.1-1.5-.3-.4-.1-.8-.3-1.2-.5-.3-.2-.7-.5-1-.8-.6-.5-1-1.2-1.2-2.1-.2-.8-.4-2-.4-3.4v-9.8h3.1Z"/>
  <path class="cls-5" d="M170.4,324.3c0,.9,0,1.6.2,2.1.1.5.4.9.7,1.3.4.4.7.7,1.1.9.4.2.9.3,1.7.3s1.6-.1,2.1-.4c.5-.3.9-.7,1.2-1.2.2-.3.3-.6.3-1.1,0-.4,0-1.1,0-1.9v-9.9h3.1v9.9c0,.7,0,1.4,0,1.9,0,.6-.2,1-.3,1.5-.1.4-.3.8-.5,1.1-.2.3-.5.6-.8.9-.3.3-.7.6-1,.8-.3.2-.7.4-1.2.5-.4.1-.9.3-1.4.3-.5,0-1.1.1-1.7.1s-1.3,0-1.8-.1c-.5,0-1-.2-1.4-.4-.4-.2-.8-.4-1.1-.7-.3-.3-.7-.6-1-1-.2-.3-.4-.6-.6-.9-.2-.3-.3-.6-.4-1-.1-.4-.2-.8-.2-1.3,0-.5,0-1,0-1.6v-10.1h3.1v10.1Z"/>
  <polygon class="cls-5" points="182.4 316.8 182.4 314.3 194.8 314.3 194.8 316.8 190.1 316.8 190.1 331.1 187 331.1 187 316.8 182.4 316.8"/>
  <polygon class="cls-5" points="195.7 314.3 198.8 314.3 198.8 331.1 195.7 331.1 195.7 314.3"/>
  <path class="cls-5" d="M209,314.1c2.7,0,4.8.7,6.1,2.2,1.3,1.4,2,3.6,2,6.6s-.7,4.9-2.1,6.3c-1.4,1.4-3.4,2.1-6.1,2.1s-2.9-.2-4-.7c-1.2-.5-2.1-1.2-2.7-2-.5-.7-.9-1.5-1.2-2.5-.3-1-.4-2.1-.4-3.3s.2-2.8.6-3.9c.4-1.1.9-2,1.6-2.7,1.4-1.4,3.5-2,6.1-2h0ZM209,316.5c-1.7,0-3,.5-3.8,1.5-.8,1-1.2,2.5-1.2,4.6s.4,3.8,1.2,4.7c.8,1,2,1.5,3.7,1.5s2.9-.5,3.7-1.5c.8-1,1.2-2.5,1.2-4.6s-.4-3.8-1.1-4.7c-.8-1-2-1.5-3.7-1.5h0Z"/>
  <polygon class="cls-5" points="222.6 331.1 219.6 331.1 219.6 314.3 223.5 314.3 231.2 327.3 231.2 314.3 234.2 314.3 234.2 331.1 230.5 331.1 222.6 318.2 222.6 331.1"/>
  <path class="cls-5" d="M236.7,328.6h7.7c.7,0,1.2,0,1.6-.1.4,0,.7-.2.9-.3.7-.4,1-1,1-1.9s-.1-1-.3-1.4c-.2-.4-.6-.7-1-.8-.2,0-.5-.1-.7-.2-.3,0-.7,0-1.2,0h-2.2c-1,0-1.9,0-2.6-.2-.7-.2-1.2-.4-1.7-.7-.5-.4-1-.9-1.2-1.5-.3-.6-.4-1.3-.4-2.1s.2-1.9.7-2.7c.5-.8,1.1-1.4,1.9-1.8.4-.2,1-.3,1.5-.4.6,0,1.4-.1,2.3-.1h7.1v2.6h-7c-.6,0-1.2,0-1.5,0-.4,0-.7.1-1,.3-.3.1-.6.4-.8.7-.2.3-.3.7-.3,1.2,0,.8.3,1.3.8,1.6.5.3,1.4.5,2.6.5h1.5c.7,0,1.3,0,1.8,0,.5,0,1,.1,1.4.2.4,0,.7.2,1,.4.3.1.6.3.8.5.5.4.8,1,1.1,1.6.3.7.4,1.4.4,2.2s-.2,1.8-.6,2.6c-.4.8-1,1.3-1.7,1.7-.2.1-.5.2-.7.3-.2,0-.5.2-.9.2-.3,0-.7,0-1.2.1-.4,0-1,0-1.6,0h-7.6v-2.6Z"/>
</svg>