<?xml version="1.0" encoding="UTF-8"?>
<svg id="Layer_1" xmlns="http://www.w3.org/2000/svg" version="1.1" xmlns:xlink="http://www.w3.org/1999/xlink" viewBox="0 0 235.9 85">
  <!-- Generator: Adobe Illustrator 29.1.0, SVG Export Plug-In . SVG Version: 2.1.0 Build 142)  -->
  <defs>
    <style>
      .st0 {
        fill: url(#New_Gradient_Swatch_218);
      }

      .st1 {
        fill: url(#New_Gradient_Swatch_27);
      }

      .st1, .st2, .st3, .st4, .st5 {
        opacity: 0;
      }

      .st6 {
        fill: url(#New_Gradient_Swatch_23);
      }

      .st6, .st7 {
        opacity: 0;
      }

      .st8 {
        fill: url(#New_Gradient_Swatch_213);
      }

      .st8, .st9 {
        opacity: .3;
      }

      .st10 {
        fill: url(#New_Gradient_Swatch_215);
      }

      .st10, .st11 {
        opacity: .7;
      }

      .st12 {
        fill: url(#New_Gradient_Swatch_2);
      }

      .st12, .st13 {
        opacity: .5;
      }

      .st14 {
        fill: #bad2ed;
      }

      .st15 {
        fill: url(#New_Gradient_Swatch_212);
      }

      .st15, .st16 {
        opacity: .1;
      }

      .st17 {
        fill: url(#New_Gradient_Swatch_15);
      }

      .st18 {
        fill: url(#New_Gradient_Swatch_220);
      }

      .st7 {
        fill: url(#New_Gradient_Swatch_211);
      }

      .st19 {
        fill: url(#New_Gradient_Swatch_13);
      }

      .st2 {
        fill: url(#New_Gradient_Swatch_25);
      }

      .st20 {
        fill: url(#New_Gradient_Swatch_14);
      }

      .st21 {
        fill: url(#New_Gradient_Swatch_217);
      }

      .st3 {
        fill: url(#New_Gradient_Swatch_26);
      }

      .st22 {
        fill: url(#New_Gradient_Swatch_216);
      }

      .st22, .st23 {
        opacity: .9;
      }

      .st24 {
        fill: url(#New_Gradient_Swatch_210);
      }

      .st24, .st25 {
        opacity: 0;
      }

      .st26 {
        fill: url(#New_Gradient_Swatch_219);
      }

      .st25 {
        fill: url(#New_Gradient_Swatch_24);
      }

      .st23 {
        fill: url(#New_Gradient_Swatch_222);
      }

      .st27 {
        fill: url(#New_Gradient_Swatch_11);
      }

      .st9 {
        fill: url(#New_Gradient_Swatch_21);
      }

      .st28 {
        fill: url(#New_Gradient_Swatch_221);
      }

      .st13 {
        fill: url(#New_Gradient_Swatch_214);
      }

      .st29 {
        fill: url(#New_Gradient_Swatch_16);
      }

      .st4 {
        fill: url(#New_Gradient_Swatch_28);
      }

      .st16 {
        fill: url(#New_Gradient_Swatch_22);
      }

      .st11 {
        fill: url(#New_Gradient_Swatch_223);
      }

      .st30 {
        fill: url(#New_Gradient_Swatch_1);
      }

      .st5 {
        fill: url(#New_Gradient_Swatch_29);
      }

      .st31 {
        fill: url(#New_Gradient_Swatch_12);
      }

      .st32 {
        fill: url(#New_Gradient_Swatch_17);
      }
    </style>
    <linearGradient id="New_Gradient_Swatch_2" data-name="New Gradient Swatch 2" x1="53.8" y1="-25.5" x2="62.3" y2="-27" gradientTransform="translate(-18.5 48.3) rotate(-7.6)" gradientUnits="userSpaceOnUse">
      <stop offset="0" stop-color="#003e7e"/>
      <stop offset=".7" stop-color="#0096d6"/>
    </linearGradient>
    <linearGradient id="New_Gradient_Swatch_21" data-name="New Gradient Swatch 2" x1="139" y1="42.5" x2="147.5" y2="41" gradientTransform="translate(-93.6 -46.1) rotate(7.4)" xlink:href="#New_Gradient_Swatch_2"/>
    <linearGradient id="New_Gradient_Swatch_22" data-name="New Gradient Swatch 2" x1="239" y1="86.1" x2="247.4" y2="84.6" gradientTransform="translate(-141.8 -156.7) rotate(22.4)" xlink:href="#New_Gradient_Swatch_2"/>
    <linearGradient id="New_Gradient_Swatch_23" data-name="New Gradient Swatch 2" x1="346.8" y1="102.4" x2="355.2" y2="100.9" gradientTransform="translate(-159.8 -276) rotate(37.4)" xlink:href="#New_Gradient_Swatch_2"/>
    <linearGradient id="New_Gradient_Swatch_24" data-name="New Gradient Swatch 2" x1="455.1" y1="90.2" x2="463.6" y2="88.7" gradientTransform="translate(-146.3 -395.9) rotate(52.4)" xlink:href="#New_Gradient_Swatch_2"/>
    <linearGradient id="New_Gradient_Swatch_25" data-name="New Gradient Swatch 2" x1="556.6" y1="50.5" x2="565.1" y2="49" gradientTransform="translate(-102.2 -508.2) rotate(67.4)" xlink:href="#New_Gradient_Swatch_2"/>
    <linearGradient id="New_Gradient_Swatch_26" data-name="New Gradient Swatch 2" x1="644.4" y1="-14.2" x2="652.9" y2="-15.7" gradientTransform="translate(-30.6 -605.3) rotate(82.4)" xlink:href="#New_Gradient_Swatch_2"/>
    <linearGradient id="New_Gradient_Swatch_27" data-name="New Gradient Swatch 2" x1="712.5" y1="-99.3" x2="721" y2="-100.8" gradientTransform="translate(63.8 -680.6) rotate(97.4)" xlink:href="#New_Gradient_Swatch_2"/>
    <linearGradient id="New_Gradient_Swatch_28" data-name="New Gradient Swatch 2" x1="756.2" y1="-199.2" x2="764.7" y2="-200.7" gradientTransform="translate(174.3 -728.9) rotate(112.3)" xlink:href="#New_Gradient_Swatch_2"/>
    <linearGradient id="New_Gradient_Swatch_29" data-name="New Gradient Swatch 2" x1="772.6" y1="-307" x2="781.1" y2="-308.5" gradientTransform="translate(293.6 -747) rotate(127.3)" xlink:href="#New_Gradient_Swatch_2"/>
    <linearGradient id="New_Gradient_Swatch_210" data-name="New Gradient Swatch 2" x1="760.6" y1="-415.3" x2="769.1" y2="-416.8" gradientTransform="translate(413.5 -733.6) rotate(142.3)" xlink:href="#New_Gradient_Swatch_2"/>
    <linearGradient id="New_Gradient_Swatch_211" data-name="New Gradient Swatch 2" x1="721" y1="-516.9" x2="729.5" y2="-518.4" gradientTransform="translate(525.9 -689.7) rotate(157.3)" xlink:href="#New_Gradient_Swatch_2"/>
    <linearGradient id="New_Gradient_Swatch_212" data-name="New Gradient Swatch 2" x1="656.4" y1="-604.7" x2="664.9" y2="-606.2" gradientTransform="translate(623.1 -618.2) rotate(172.3)" xlink:href="#New_Gradient_Swatch_2"/>
    <linearGradient id="New_Gradient_Swatch_213" data-name="New Gradient Swatch 2" x1="571.3" y1="-672.9" x2="579.8" y2="-674.4" gradientTransform="translate(698.5 -523.9) rotate(-172.7)" xlink:href="#New_Gradient_Swatch_2"/>
    <linearGradient id="New_Gradient_Swatch_214" data-name="New Gradient Swatch 2" x1="471.5" y1="-716.8" x2="480" y2="-718.3" gradientTransform="translate(746.9 -413.4) rotate(-157.7)" xlink:href="#New_Gradient_Swatch_2"/>
    <linearGradient id="New_Gradient_Swatch_215" data-name="New Gradient Swatch 2" x1="363.7" y1="-733.3" x2="372.2" y2="-734.8" gradientTransform="translate(765.1 -294.2) rotate(-142.7)" xlink:href="#New_Gradient_Swatch_2"/>
    <linearGradient id="New_Gradient_Swatch_216" data-name="New Gradient Swatch 2" x1="255.4" y1="-721.4" x2="263.9" y2="-722.9" gradientTransform="translate(751.9 -174.2) rotate(-127.7)" xlink:href="#New_Gradient_Swatch_2"/>
    <linearGradient id="New_Gradient_Swatch_217" data-name="New Gradient Swatch 2" x1="153.8" y1="-681.9" x2="162.3" y2="-683.4" gradientTransform="translate(708.1 -61.8) rotate(-112.8)" xlink:href="#New_Gradient_Swatch_2"/>
    <linearGradient id="New_Gradient_Swatch_218" data-name="New Gradient Swatch 2" x1="65.8" y1="-617.4" x2="74.3" y2="-618.9" gradientTransform="translate(636.7 35.5) rotate(-97.8)" xlink:href="#New_Gradient_Swatch_2"/>
    <linearGradient id="New_Gradient_Swatch_219" data-name="New Gradient Swatch 2" x1="-2.4" y1="-532.4" x2="6.1" y2="-533.9" gradientTransform="translate(542.5 111) rotate(-82.8)" xlink:href="#New_Gradient_Swatch_2"/>
    <linearGradient id="New_Gradient_Swatch_220" data-name="New Gradient Swatch 2" x1="-46.4" y1="-432.7" x2="-37.9" y2="-434.1" gradientTransform="translate(432.1 159.5) rotate(-67.8)" xlink:href="#New_Gradient_Swatch_2"/>
    <linearGradient id="New_Gradient_Swatch_221" data-name="New Gradient Swatch 2" x1="-63" y1="-324.9" x2="-54.5" y2="-326.4" gradientTransform="translate(312.8 177.9) rotate(-52.8)" xlink:href="#New_Gradient_Swatch_2"/>
    <linearGradient id="New_Gradient_Swatch_222" data-name="New Gradient Swatch 2" x1="-51.3" y1="-216.5" x2="-42.8" y2="-218" gradientTransform="translate(192.9 164.8) rotate(-37.8)" xlink:href="#New_Gradient_Swatch_2"/>
    <linearGradient id="New_Gradient_Swatch_223" data-name="New Gradient Swatch 2" x1="-11.9" y1="-114.9" x2="-3.4" y2="-116.4" gradientTransform="translate(80.4 121.1) rotate(-22.8)" xlink:href="#New_Gradient_Swatch_2"/>
    <linearGradient id="New_Gradient_Swatch_1" data-name="New Gradient Swatch 1" x1="81.6" y1="52.2" x2="81.6" y2="29.5" gradientUnits="userSpaceOnUse">
      <stop offset="0" stop-color="#003e7e"/>
      <stop offset=".7" stop-color="#0096d6"/>
      <stop offset="1" stop-color="#003e7e"/>
    </linearGradient>
    <linearGradient id="New_Gradient_Swatch_11" data-name="New Gradient Swatch 1" x1="124.2" y1="52.2" x2="124.2" y2="29.5" xlink:href="#New_Gradient_Swatch_1"/>
    <linearGradient id="New_Gradient_Swatch_12" data-name="New Gradient Swatch 1" x1="155.3" y1="52.2" x2="155.3" y2="29.5" xlink:href="#New_Gradient_Swatch_1"/>
    <linearGradient id="New_Gradient_Swatch_13" data-name="New Gradient Swatch 1" x1="185.9" y1="52.2" x2="185.9" y2="29.5" xlink:href="#New_Gradient_Swatch_1"/>
    <linearGradient id="New_Gradient_Swatch_14" data-name="New Gradient Swatch 1" x1="208.9" y1="52.2" x2="208.9" y2="29.5" xlink:href="#New_Gradient_Swatch_1"/>
    <linearGradient id="New_Gradient_Swatch_15" data-name="New Gradient Swatch 1" x1="226.5" y1="52.2" x2="226.5" y2="29.5" xlink:href="#New_Gradient_Swatch_1"/>
    <linearGradient id="New_Gradient_Swatch_16" data-name="New Gradient Swatch 1" x1="100" y1="52.2" x2="100" y2="29.5" xlink:href="#New_Gradient_Swatch_1"/>
    <linearGradient id="New_Gradient_Swatch_17" data-name="New Gradient Swatch 1" x1="63.8" y1="52.2" x2="63.8" y2="29.5" xlink:href="#New_Gradient_Swatch_1"/>
  </defs>
  <g>
    <polygon class="st12" points="27.6 3.7 35.6 .4 40.1 27.6 36.8 27.5 27.6 3.7"/>
    <polygon class="st9" points="38.2 1.2 46.8 0 44 27.4 40.9 26.6 38.2 1.2"/>
    <polygon class="st16" points="49 1.5 57.6 2.5 47.9 28.3 45 26.7 49 1.5"/>
    <polygon class="st6" points="59.4 4.5 67.4 7.8 51.4 30.2 49 27.9 59.4 4.5"/>
    <polygon class="st25" points="68.7 10.2 75.6 15.4 54.2 32.9 52.6 30.1 68.7 10.2"/>
    <polygon class="st2" points="76.1 18.1 81.5 24.9 56.3 36.2 55.5 33.1 76.1 18.1"/>
    <polygon class="st3" points="81.3 27.6 84.7 35.6 57.5 40 57.5 36.8 81.3 27.6"/>
    <polygon class="st1" points="83.9 38.1 85 46.7 57.6 44 58.5 40.8 83.9 38.1"/>
    <polygon class="st4" points="83.6 49 82.5 57.6 56.7 47.8 58.4 45 83.6 49"/>
    <polygon class="st5" points="80.5 59.4 77.3 67.4 54.9 51.3 57.2 49 80.5 59.4"/>
    <polygon class="st24" points="74.9 68.6 69.7 75.5 52.2 54.2 55 52.6 74.9 68.6"/>
    <polygon class="st7" points="67 76.1 60.2 81.4 48.8 56.3 52 55.5 67 76.1"/>
    <polygon class="st15" points="57.5 81.3 49.5 84.7 45 57.5 48.3 57.5 57.5 81.3"/>
    <polygon class="st8" points="47 83.9 38.4 85 41.1 57.6 44.2 58.5 47 83.9"/>
    <polygon class="st13" points="36.1 83.6 27.5 82.5 37.2 56.7 40.1 58.4 36.1 83.6"/>
    <polygon class="st10" points="25.7 80.5 17.7 77.3 33.7 54.9 36 57.2 25.7 80.5"/>
    <polygon class="st22" points="16.5 74.9 9.5 69.7 30.8 52.2 32.5 55 16.5 74.9"/>
    <polygon class="st21" points="9 67 3.6 60.2 28.7 48.8 29.6 52 9 67"/>
    <polygon class="st0" points="3.8 57.5 .4 49.6 27.6 45 27.6 48.3 3.8 57.5"/>
    <polygon class="st26" points="1.2 47 0 38.4 27.4 41.1 26.6 44.2 1.2 47"/>
    <polygon class="st18" points="1.4 36.2 2.5 27.6 28.3 37.2 26.7 40.1 1.4 36.2"/>
    <polygon class="st28" points="4.5 25.7 7.7 17.7 30.2 33.7 27.9 36 4.5 25.7"/>
    <polygon class="st23" points="10.1 16.5 15.3 9.6 32.9 30.8 30 32.5 10.1 16.5"/>
    <polygon class="st11" points="18 9 24.8 3.7 36.2 28.7 33.1 29.6 18 9"/>
  </g>
  <g>
    <path class="st30" d="M84.6,52.9c-1.9,0-3.4-.6-4.5-1.8-1-1.2-1.6-2.6-1.6-4.4v-12.2h-2.5v-3.4h2.5v-6.7h4.5v6.7h4.3v3.4h-4.3v12c0,1.7.8,2.6,2.4,2.6h1.8v3.8h-2.7Z"/>
    <path class="st27" d="M128.8,52.9v-13.5c0-1.7-.4-2.9-1.2-3.7-.8-.8-1.9-1.2-3.2-1.2s-2.4.4-3.3,1.2c-.9.8-1.3,2.1-1.3,3.7v13.5h-4.5v-22.1h4.4v2.2c1.5-1.7,3.5-2.5,5.9-2.5s4.1.7,5.5,2c.8.8,1.4,1.7,1.7,2.7.3,1,.5,2.2.5,3.5v14.1h-4.5Z"/>
    <path class="st31" d="M166.6,52.9v-13.5c0-1.7-.4-2.9-1.2-3.7-.8-.8-1.9-1.2-3.2-1.2s-2.4.4-3.3,1.2c-.9.8-1.3,2-1.3,3.5v13.7h-4.5v-13.5c0-1.7-.4-2.9-1.2-3.7-.8-.8-1.9-1.2-3.2-1.2s-2.4.4-3.3,1.2c-.9.8-1.3,2.1-1.3,3.7v13.5h-4.5v-22.1h4.4v2.2c.7-.8,1.6-1.4,2.6-1.9,1-.4,2.1-.6,3.3-.6,2.8,0,4.9,1.1,6.3,3.2,1.8-2.2,4.1-3.2,6.9-3.2s2.2.2,3.1.5c1,.3,1.8.8,2.4,1.5,1.6,1.5,2.4,3.6,2.4,6.2v14.1h-4.5Z"/>
    <path class="st19" d="M194.5,46.9c-.4,1.4-1.1,2.6-2.1,3.6-.8.8-1.7,1.4-2.8,1.9-1.1.5-2.4.7-3.8.7s-2.7-.2-3.8-.7c-1.1-.5-2-1.1-2.8-1.9-1-1-1.7-2.3-2.1-3.6-.4-1.4-.6-3.1-.6-5.1s.2-3.7.6-5.1c.4-1.4,1.1-2.6,2.1-3.6.8-.8,1.7-1.5,2.8-1.9,1.1-.5,2.3-.7,3.8-.7s2.7.2,3.8.7c1.1.5,2.1,1.1,2.8,1.9,1,1,1.7,2.2,2.1,3.6.4,1.4.6,3.1.6,5.1s-.2,3.7-.6,5.1ZM190.3,38.1c-.2-1-.6-1.8-1.2-2.4-.8-.8-1.9-1.3-3.3-1.3s-2.4.4-3.2,1.3c-.6.6-1,1.4-1.2,2.4-.2,1-.3,2.2-.3,3.7s.1,2.7.3,3.7c.2,1,.6,1.8,1.2,2.4.9.9,1.9,1.3,3.2,1.3s2.4-.4,3.3-1.3c.6-.6,1-1.4,1.2-2.4.2-1,.3-2.2.3-3.7s-.1-2.7-.3-3.7Z"/>
    <path class="st20" d="M213.3,36c-.5-.5-1-.9-1.5-1.1-.5-.2-1.1-.3-1.8-.3-1.2,0-2.3.5-3.1,1.4-.9.9-1.3,2.1-1.3,3.6v13.4h-4.5v-22.1h4.4v2.4c.6-.8,1.4-1.4,2.5-1.9,1.1-.5,2.2-.7,3.4-.7s2,.2,2.9.5c.8.3,1.6.9,2.4,1.6l-3.4,3.4Z"/>
    <path class="st17" d="M221.5,43.1c0,1.9.5,3.4,1.5,4.5,1,1.1,2.4,1.7,4.1,1.7s2.2-.2,3-.5c.8-.3,1.6-.9,2.4-1.7l2.8,2.7c-1.2,1.2-2.4,2.1-3.6,2.6-1.2.6-2.8.8-4.6.8s-2.8-.2-4-.6c-1.2-.4-2.2-1.1-3.1-1.9-.9-.9-1.6-2.1-2.1-3.5-.5-1.5-.8-3.2-.8-5.3,0-3.5.9-6.3,2.6-8.3,1.7-2,4-3,6.8-3s5.2,1,6.9,2.9c1.7,1.9,2.5,4.5,2.5,7.7v2h-14.4ZM231.3,38.4c0-.4-.2-.9-.5-1.4-.3-.8-.9-1.5-1.7-2-.8-.5-1.7-.8-2.7-.8s-1.9.3-2.7.8c-.8.5-1.4,1.2-1.7,2-.2.5-.3.9-.4,1.3,0,.4-.1,1-.2,1.7h9.9c0-.7,0-1.2-.2-1.6Z"/>
    <path class="st29" d="M104.6,52.9v-2c-.8.8-1.7,1.4-2.5,1.7-.9.3-2,.5-3.4.5-2.6,0-4.6-.7-5.9-2-1.2-1.2-1.7-2.8-1.7-4.8s.7-3.5,2-4.6c1.3-1.2,3.2-1.7,5.7-1.7h5.8v-1.6c0-1.4-.4-2.5-1.2-3.1-.8-.7-2-1-3.7-1s-2.2.2-2.9.5c-.7.3-1.4.9-2,1.7l-2.9-2.7c1-1.2,2.1-2,3.3-2.5,1.2-.5,2.7-.7,4.6-.7,6.1,0,9.1,2.5,9.1,7.6v14.8h-4.4ZM104.5,43.1h-5.2c-2.6,0-4,1.1-4,3.2s1.4,3.1,4.1,3.1,1.8,0,2.4-.2c.6-.2,1.2-.5,1.8-1,.6-.6,1-1.7,1-3.3v-1.8Z"/>
    <path class="st32" d="M70.5,51.3c-1.7,1.2-3.9,1.8-6.7,1.8s-3.7-.2-5.2-.7c-1.5-.5-2.9-1.3-4.1-2.5l2.9-2.9c.8.8,1.8,1.4,2.9,1.8,1.1.3,2.3.5,3.5.5s2.6-.3,3.5-.8c.9-.5,1.4-1.3,1.4-2.3s-.2-1.4-.7-1.8-1.2-.7-2.2-.8l-1.8-.2h-1.7c-2.1-.3-3.7-.9-4.9-1.9-1.1-1-1.7-2.5-1.7-4.3s.8-3.7,2.4-5c1.6-1.2,3.6-1.8,6-1.8s3.3.2,4.6.6c1.4.4,2.6,1,3.6,1.9l-2.8,2.8c-.7-.6-1.5-1-2.4-1.2-.9-.3-1.9-.4-3.1-.4s-2.3.3-3,.8c-.7.5-1,1.2-1,2.1s.2,1.3.7,1.7c.5.4,1.3.7,2.4.8l1.8.2h1.7c2.1.3,3.8.9,4.9,1.9,1.1,1,1.7,2.5,1.7,4.4s-.9,4-2.6,5.2Z"/>
  </g>
  <circle class="st14" cx="42.5" cy="42.5" r="3.4"/>
</svg>